<?xml version="1.0" encoding="UTF-8"?>
<svg xmlns="http://www.w3.org/2000/svg" width="49.4mm" height="44.6mm" version="1.1" viewBox="0 0 140 126.3">
  <!-- Generator: Adobe Illustrator 29.7.1, SVG Export Plug-In . SVG Version: 2.1.1 Build 8)  -->
  <defs>
    <style>
      .st0 {
        fill: #c2b891;
      }

      .st1 {
        fill: #fff;
      }

      .st2 {
        fill: none;
      }

      .st3 {
        fill: #ab9861;
      }

      .st4 {
        fill: #89762a;
      }
    </style>
  </defs>
  <g id="Calque_2">
    <rect class="st3" x="-91" y="-32.3" width="383" height="298"/>
  </g>
  <g id="Objects">
    <path class="st0" d="M0,109.8v-21.6c46.7,15.1,93.3-15.1,140,0v21.6c-46.7-15.1-93.3,15.1-140,0Z"/>
    <path class="st1" d="M114.7,18.5c24.7,24.7,24.7,64.6,0,89.3-24.7,24.7-64.7,24.7-89.3,0C.7,83.1.7,43.2,25.3,18.5c24.7-24.7,64.6-24.7,89.3,0h0Z"/>
    <g>
      <path class="st3" d="M55.2,79.9V24.2h-17.5c-7.2,8.5-11.6,10.1-17.2,12.8l4.5,10.9,9.8-4.6v36.4h-9.8v13h39.3v-13h-9.1,0Z"/>
      <g>
        <path class="st2" d="M95.6,37.7c-3.7,0-8.3,7.6-8.3,19.9s4.9,21.1,8.9,21.1,8.1-8.1,8.1-20.4-3.8-20.6-8.7-20.6Z"/>
        <path class="st3" d="M95.2,23.1c-16.4,0-27.7,14.5-27.7,35.3s11.8,35.9,28.2,35.9,27.7-13.3,27.7-35.2-8.9-36-28.2-36ZM95.7,79c-3.9,0-8.7-7.9-8.7-20.7s4.5-19.6,8.1-19.5c4.8,0,8.5,8.4,8.5,20.2s-3.4,20-7.9,20Z"/>
      </g>
    </g>
    <g>
      <path class="st4" d="M140,109.8c-46.7,15.1-93.3-15.1-140,0v-21.6c46.7-15.1,93.3,15.1,140,0v21.6Z"/>
      <g>
        <path class="st1" d="M38.1,88.3c.3.3.4.6.4,1v12.7c0,.4,0,.7-.4.9-.2.2-.6.3-1,.3s-.7-.2-1-.4c-.3-.3-.4-.6-.4-1v-8.9c-1.2,1.8-2.4,3.6-3.6,5.4-.1.2-.3.3-.5.4s-.4.2-.6,0c-.2,0-.4,0-.6,0s-.4-.3-.5-.4c-1.2-1.9-2.4-3.8-3.6-5.7v9.1c0,.4-.1.7-.4,1-.2.3-.5.4-.9.4s-.7,0-.9-.3c-.2-.2-.4-.6-.4-.9v-12.7c0-.4.1-.7.4-1s.6-.4,1-.4.4,0,.7,0c.2,0,.4.2.5.4,1.6,2.4,3.2,4.9,4.8,7.3,1.6-2.4,3.3-4.8,4.9-7.2,0-.2.3-.3.5-.4s.4,0,.6,0c.4,0,.7.2,1,.4Z"/>
        <path class="st1" d="M54,103.8c0,.4,0,.7-.4.9-.2.2-.5.3-.9.2-.3,0-.5,0-.7-.3-.2-.2-.4-.4-.5-.7-.4-.9-.8-1.9-1.1-2.8-2.2-.3-4.4-.5-6.6-.7-.4.9-.8,1.7-1.1,2.6,0,.3-.3.5-.5.6s-.4.2-.7.2-.7-.2-.9-.4c-.2-.2-.3-.5-.3-.9v-.4c1.8-4.2,3.7-8.5,5.5-12.7,0-.3.3-.5.5-.6s.5-.2.8,0c.3,0,.5,0,.7.3.2.2.4.4.5.7,1.8,4.5,3.6,9,5.4,13.6,0,.2,0,.4,0,.5h.2ZM45,97.9c1.5,0,2.9.3,4.4.5-.7-1.8-1.5-3.6-2.2-5.4-.7,1.6-1.5,3.3-2.2,4.9Z"/>
        <path class="st1" d="M68.4,105.5c0,.2.2.4.2.6,0,.3,0,.5-.3.7-.2.2-.6.3-1,.2-.4,0-.7-.2-1-.4-1.1-.8-1.6-2.1-1.6-3.9s-.2-1-.5-1.3c-.3-.4-.8-.6-1.5-.7-1.4-.2-2.7-.4-4.1-.6v4.3c0,.4,0,.7-.3.9-.2.2-.5.3-.8.2-.4,0-.8-.2-1.1-.5s-.5-.6-.5-1v-12.7c0-.4,0-.7.4-.9.3-.2.6-.3,1-.2,2.1.3,4.2.6,6.3,1,.8,0,1.5.4,2.2,1,.7.5,1.2,1.2,1.6,2s.6,1.6.6,2.5-.2,1.4-.6,2-.9,1.1-1.5,1.4c.9.8,1.4,1.7,1.5,2.8v.7c0,.5,0,.8.2,1,0,.2.2.4.4.5.2,0,.3.3.5.5h0ZM64.2,98.3c.2-.2.5-.5.6-.9.2-.4.2-.8.2-1.3s0-.8-.2-1.2c-.2-.4-.4-.7-.6-.9-.2-.2-.5-.4-.8-.4-1.6-.3-3.2-.5-4.8-.7v5c1.6.2,3.2.5,4.8.7.3,0,.5,0,.8-.3Z"/>
        <path class="st1" d="M73.3,107.6c-.3.2-.6.3-1,.2-.4,0-.7-.2-1-.5s-.4-.6-.4-1v-12.7c0-.4,0-.7.4-.9.3-.2.6-.3,1-.2.4,0,.7.2.9.5.3.3.4.6.4,1v12.7c0,.4,0,.7-.4.9h0Z"/>
        <path class="st1" d="M89.3,109.1c0,.4,0,.7-.4.9-.2.2-.5.3-.9.3s-.5,0-.7-.3c-.2-.2-.4-.4-.5-.7-.4-.9-.8-1.9-1.1-2.8-2.2-.3-4.4-.6-6.6-1-.4.8-.8,1.7-1.1,2.5,0,.3-.3.5-.5.6s-.4.2-.7,0c-.4,0-.7-.2-.9-.4s-.3-.5-.3-.9v-.4c1.8-4.1,3.7-8.2,5.5-12.3,0-.3.3-.5.5-.6s.5-.2.8,0c.3,0,.5.2.7.3.2.2.4.4.5.7,1.8,4.6,3.6,9.1,5.4,13.6,0,.2,0,.4,0,.5h.2ZM80.2,103.1c1.5.2,2.9.4,4.4.6-.7-1.8-1.5-3.6-2.2-5.5-.7,1.6-1.5,3.2-2.2,4.8h0Z"/>
        <path class="st1" d="M103.3,103.7c.2.3.4.6.4,1v4.7c0,.5-.2.9-.7,1.2-1.4.8-3,1.2-4.7,1-1.5,0-2.8-.6-4-1.4s-2.2-1.9-2.9-3.2c-.7-1.3-1.1-2.7-1.1-4.1s.4-2.7,1.1-3.8c.7-1.1,1.7-2,2.9-2.6,1.2-.6,2.6-.8,4-.7,1.5,0,2.7.5,3.8,1.2.2,0,.4.3.5.5s.2.4.2.6c0,.4,0,.7-.4.9-.2.3-.5.4-.9.4s-.5,0-.7-.2c-.8-.4-1.6-.6-2.5-.7-.9,0-1.8,0-2.6.5-.8.4-1.4,1-1.9,1.7-.5.8-.7,1.6-.7,2.6s.2,1.9.7,2.7c.5.9,1.1,1.6,1.9,2.1.8.6,1.7.9,2.6.9h1.3c.5,0,.9,0,1.2-.2v-2.9c-.7,0-1.4,0-2.1-.2-.4,0-.7-.2-1-.5s-.4-.6-.4-1,0-.7.4-.9c.3-.2.6-.3,1-.3,1.2,0,2.4.2,3.6.2s.7.2.9.4h0Z"/>
        <path class="st1" d="M116,109.5c.3.2.4.5.4.9s0,.7-.4.9c-.3.2-.6.4-1,.4-2.5,0-4.9,0-7.4,0-.4,0-.7,0-1-.4s-.4-.6-.4-1v-12.7c0-.4,0-.7.4-.9.3-.2.6-.4,1-.4h7.4c.4,0,.7,0,1,.3.3.2.4.5.4.9s0,.7-.4.9c-.2.2-.6.4-1,.4-2,0-4,0-6,0v3.7h5c.4,0,.7,0,1,.3.3.2.4.5.4.9s0,.7-.4.9c-.2.2-.6.4-1,.4h-5v4.1h6c.4,0,.7,0,1,.3h0Z"/>
      </g>
    </g>
  </g>
  <metadata>
    <sfw xmlns="http://ns.adobe.com/SaveForWeb/1.0/">
      <slices/>
      <sliceSourceBounds x="-91" y="-139.43" width="383" height="298" bottomLeftOrigin="true"/>
    </sfw>
  </metadata>
</svg>