<?xml version="1.0" encoding="UTF-8"?>
<svg xmlns="http://www.w3.org/2000/svg" width="1316.9" height="1043" version="1.1" viewBox="0 0 1316.9 1043">
  <!-- Generator: Adobe Illustrator 29.8.0, SVG Export Plug-In . SVG Version: 2.1.1 Build 160)  -->
  <defs>
    <style>
      .st0 {
        font-family: ChauncyPro-Italic, 'Chauncy Pro';
        font-size: 125px;
        font-style: italic;
      }

      .st1 {
        fill: #ab9861;
      }
    </style>
  </defs>
  <g id="Calque_2">
    <g>
      <g>
        <path d="M1190.4,909.5c-2.5-5-6-9-9.7-13.3l-.9-1.1c-7.4-8.6-6.8-9.6-3.1-14.9.5-.7,1-1.4,1.5-2.3,4.7-7.1,2.7-11.8.2-14.5-5.9-6.3-6.1-13.3-4.7-21.9,1.6-9.3.6-17.1-2.8-24-5.1-10.1-5.3-19.8-.6-29.5.2-.5.4-1,.5-1.5.1-.4.2-.8.4-1.2,3.7-9.2,1.9-17.4-5.2-24.5-2.8-2.8-4.8-5.3-6.2-7.8-2.1-3.8-2.7-7.1-1.7-9.9,1-2.8,3.4-5,7.3-6.7,6.6-2.8,11.4-6.6,14.6-11.6,7.8-12.2,9.1-25.3,3.9-38.9-.2-.5-.4-.9-.6-1.4-.5-1.2-1.1-2.3-1.1-3.8-.4-11-11.7-21.3-23.2-21.3s-1.4,0-2.1.1c-7.5.9-13.7,4.5-19.4,8.1-2.3,1.4-4.4,2.2-6.5,2.2s-5.1-1.1-7.7-3.3c-4.5-3.9-8.6-7.3-12.5-10.2-6.5-4.9-13.1-7.3-20.2-7.3s-5,.3-7.6.9c-5.7,1.3-10.9,3.1-15.8,5.4-5,2.3-10,4.7-15,7.1l-4.6,2.2c-3.4,1.6-6.8,2.4-10.2,2.4s-7.8-1.1-11.7-3.3c-1.7-1-3.4-1.9-5.2-2.9-3.2-1.8-6.5-3.7-9.9-5.5-6.9-3.8-14.3-5.6-22.6-5.6s-7.2.3-11.1,1c-10,1.8-19.7,5.4-29,9h-.3c-1.9.8-3.8,1.6-5.7,2.3-6.7,2.5-12.7,3.7-18.4,3.7s-14.5-2.1-21.1-6.5c-.7-.5-1.5-.8-2.3-1.1-.4-.2-.8-.3-1.2-.5-7.4-3.5-15.1-5.2-23.7-5.2s-6.3.2-9.5.7c-13.8,1.9-26.7,6.3-38.6,10.9-9.7,3.7-18.6,5.5-27.2,5.5s-19.8-2.5-29.3-7.6c-7.4-4-15.8-6-25-6s-6.8.3-10.4.8c-12.3,1.8-24.1,5.8-35.5,9.7h-.4c-7.5,2.7-14.2,3.9-20.6,3.9-11.2,0-21-3.9-30-12-5.4-4.9-12.5-7.4-21-7.4s-1.6,0-2.4,0c-5.2.3-10.3,1-15.5,2.1-8.2,1.8-16.2,4.6-23.9,7.4-4.5,1.6-9.2,3.2-13.8,4.6-6.6,2-12.9,3-18.9,3s-15-1.7-21.9-5c-8.9-4.3-18-6.4-27.9-6.4s-16,1.3-24.8,4.1c-6.3,1.9-12.6,4.2-18.7,6.4-5.1,1.8-10.3,3.7-15.6,5.4-4.2,1.4-8.3,2-12.3,2s-11.1-1.3-16.4-4c-5.9-2.9-11.6-4.9-17.3-6.1-3-.6-6.1-.9-9.2-.9-9.5,0-18.5,2.8-26.8,5.9-1.6.6-3.2,1.2-4.8,1.8h-.2c-4.3,1.7-8.8,3.4-13.4,4.7-2,.6-4,.8-5.9.8-5.5,0-10.4-2.5-14.5-7.5-.8-.9-1.5-1.9-2.3-2.8-2-2.5-4.1-5.1-6.4-7.4-4.9-5.1-10.6-7.5-17.1-7.5s-3.1.1-4.7.4c-7.8,1.3-14.8,4.3-22.6,7.7-3.4,1.5-6.9,3.1-10.2,4.7-5.4,2.6-11,5.2-16.7,7.4-6.1,2.4-12.2,3.6-18.1,3.6s-11.2-1.1-16.7-3.2c-3.8-1.4-7.5-3-10.4-4.1-9-3.7-17.9-7.1-27.2-7.1s-.9,0-1.3,0h0c-.6,0-1.1,0-1.7,0-9.7,0-18.8,2.4-27.6,7.3-10.4,5.8-16.1,15.1-17.2,27.7-1.3,16.1,1.9,28.7,10.1,39.6,5.6,7.5,5.4,12.4-1.1,20-1.2,1.4-2.5,2.7-3.8,4.1-.9.9-1.8,1.9-2.7,2.9l-.8.9c-1.4,1.5-2.7,3-3.8,4.7-3.8,5.8-3,10.8,2.3,15.3.8.7,1.7,1.3,2.6,2l.5.4c2.4,1.7,3.5,2.6,3.7,3.6.2,1.1-.7,2.3-2.5,4.7-.6.8-1.3,1.7-1.9,2.5h0c-2.6,3.5-5,6.6-6.9,10.3-3.4,6.6-2.9,12.9,1.6,18.9,1.6,2.1,3.4,4.4,5.6,6.9,4.2,4.8,5,10.1,2.5,16.1l-.7,1.6c-1.4,3.4-2.8,6.8-4.1,10.3-2.2,5.9-2.1,10.5.3,14,4.4,6.5,3.2,12.8,1.2,18.5-.6,1.7-1.1,3.7-1.5,6-2.1,11.4,1.5,20.2,10.6,26.1,8.4,5.5,16.9,9.2,25.3,11.2,6.1,1.4,10.7,4.3,14.8,7.1.9.6,1.8,1.3,2.8,2,1.1.7,2.1,1.5,3.2,2.2,4.8,3.3,9.7,5,14.6,5s8.8-1.3,13.2-3.9c2.2-1.3,4.5-2.6,6.7-3.8l3-1.7c3-1.7,6-2.5,9-2.5s5.4.7,8.1,2l2.3,1.2c3.2,1.6,6.5,3.2,9.6,4.9,7.9,4.3,16.1,6.5,24.4,6.5s13.4-1.4,20.2-4.1c7.3-2.9,13.9-5.5,20.3-7.8,3.3-1.2,6.6-1.8,9.8-1.8,5.5,0,10.7,1.9,15.5,5.6,1.3,1,2.6,1.8,4,2.8,1,.7,1.9,1.3,2.9,2,6.2,4.5,13.1,6.7,20.9,6.7s5.4-.3,8.3-.8c4.9-.9,10.2-1.9,15.3-3.2,7.6-2,14.4-3,20.7-3,9,0,17.1,2,24.9,6.1,4.4,2.4,9.4,3.5,15.3,3.5s3.9-.1,6-.4c7.7-.9,14.7-3.6,21.8-6.5,2.4-1,4.7-2,7.1-3,5.4-2.3,11-4.6,16.7-6.5,6.4-2.1,12-3.2,17.4-3.2,8.9,0,16.6,2.9,23.6,8.9,1,.8,2.1,1.5,3.3,2.1,4.1,2.2,8.1,3.3,12.1,3.3s3.4-.2,5.1-.6c5.8-1.3,11-3.4,16.6-5.6h.2c1.6-.7,3.2-1.4,4.8-2,7-2.7,14.5-5.4,22.5-6.3,1.4-.2,2.8-.2,4.2-.2,10.2,0,19.5,4.2,27.2,8.3,8.4,4.5,16.9,6.7,25.2,6.7,8.1,0,16.3-2.1,24.5-6.3,8.5-4.4,15.6-7.6,22.4-10.1,5.2-1.9,10.2-2.9,15.1-2.9s12.5,1.7,18.3,4.9c1.2.7,2.5,1.3,3.7,1.9,1.4.7,2.8,1.4,4.2,2.2,7.3,4.2,14.8,6.3,23,6.3,5,0,10.3-.8,15.8-2.4,5.1-1.5,10.2-3.2,15.1-4.9,6.3-2.1,12.9-4.3,19.4-6.1,5.6-1.5,11.2-2.3,16.5-2.3,8.6,0,16.9,2.1,24.8,6.1,4.3,2.2,8.5,4.3,13.5,6.7,10,4.9,19.5,7.2,29.1,7.2,2.6,0,5.1-.2,7.7-.5,8.2-1.1,16.3-3.6,23.7-6.1,2.6-.9,5.2-1.8,7.8-2.7h.1c7.5-2.7,15.3-5.5,23.3-7.3,3.7-.9,7.3-1.3,10.8-1.3,9.2,0,17.5,3.2,24.7,9.6,1.2,1,2.4,2,3.7,3,.5.4,1,.8,1.6,1.2,5.1,4,10.3,5.9,15.9,5.9s6.1-.6,9.3-1.7c5.2-1.9,10.2-4.3,14.7-6.7l1.7-.9c6.4-3.3,13.1-6.8,19.9-9.7,7-3,13.3-4.5,19.3-4.5,8.5,0,16.2,3,23.4,9.3,4.5,3.9,9.4,5.9,14.6,5.9s9.4-1.6,14.3-4.7l1.7-1.1c4.2-2.7,8.6-5.5,13-8,5.6-3.3,10.4-4.8,15-4.8s4.9.4,7.3,1.3c.7.3,1.4.4,2,.4,2,0,3.5-1.3,4.7-2.8,5.4-6.3,6.1-13.2,2-21.2ZM610.5,931.6c-5.8,0-11.9,1-18.2,2.9-7.9,2.4-15.2,5.4-24,9.1-3.8,1.6-7.2,2.4-10.4,2.4-4.8,0-9.2-1.7-13.5-5.2-7.5-6-15.9-9-25.7-9s-10.9.9-17.2,2.6c-7.8,2.2-15.3,5.4-22.7,8.5l-3.4,1.4c-4.4,1.8-9.6,3.9-15.2,5.6-4,1.2-7.5,1.7-10.9,1.7s-8.1-.9-11.5-2.8c-8.9-4.8-18.2-7.1-28.7-7.1s-16.1,1.3-26.1,3.9c-4.9,1.3-10.8,2.7-17,3-.5,0-1,0-1.5,0-5.9,0-10.9-1.6-15.4-4.8-1.9-1.4-3.8-2.7-5.8-4-1-.7-2-1.3-2.9-2-6-4.1-12.2-6.1-19-6.1s-7.1.6-10.8,1.7c-6.6,2-13.4,4.5-20.3,7.7-6.5,3-13.1,4.5-19.4,4.5s-16.1-2.5-23.7-7.4c-7.3-4.7-14.2-7-21-7s-13.7,2.4-20.4,7.3c-3.7,2.7-7.4,4.1-11,4.1s-8.2-1.7-12.4-5.1c-6-4.9-12.2-9.9-20.3-11.3-6.2-1.1-11.7-3.5-17.3-6-2.7-1.2-5-3-7-4.5-3.5-2.7-5.1-6.1-5-10.6,0-4.9,1.5-9.5,2.8-13.6,2.3-7.3,1.6-13.4-1.9-18.7-1.9-2.8-2.2-6-.7-9.6.9-2.4,1.9-4.8,2.9-7.2.6-1.6,1.3-3.2,1.9-4.8,3.4-8.5,2.1-16.6-3.7-24.1-.8-1-1.6-2-2.4-3-.6-.7-1.2-1.5-1.8-2.2-4.5-5.6-4.6-8.1-.5-13.9,1.1-1.7,2.4-3.3,3.6-4.9,1.5-1.9,3-3.9,4.3-5.9,4.9-7.5,4-12.8-3.3-18.3-3.3-2.4-4.6-3.5-4.7-4.7-.1-1.2,1.1-2.5,4-5.6l.3-.4c2.6-2.7,5.3-5.5,7.6-8.5,7.3-9.5,7.6-18.2,1.2-28.4-.6-1-1.3-2-2-3-3-4.5-6.1-9.1-6.8-14.9-.9-6.7-1.7-13.6-.4-20.5,1.4-6.9,4.9-12,10.7-15.6,7.7-4.7,15.9-6.7,27.7-6.7h1.4c2.6,0,7.8.9,18.1,5,1.9.8,3.8,1.6,5.8,2.3h.3c2.1,1,4.2,1.9,6.3,2.7,7.1,2.9,14.3,4.3,21.5,4.3s14.3-1.4,21.5-4.2c6.1-2.4,12.1-5.2,17.9-7.9,3.1-1.5,6.3-3,9.5-4.4,5.8-2.6,12.1-5.3,18.8-6.8,1.5-.3,2.9-.5,4.3-.5,4.4,0,8.2,1.8,11.3,5.4,1.4,1.7,2.8,3.4,4.2,5h0c.9,1.3,1.9,2.4,2.9,3.6,6.3,7.5,13.5,11.2,22.1,11.2,3,0,6.1-.5,9.4-1.4,6.3-1.7,12.5-4.2,18.5-6.5l2.5-1c7-2.8,13.9-4.2,20.4-4.2s15.1,1.9,22.2,5.6c6.7,3.5,13.5,5.2,20.9,5.2s12.1-1.2,18.6-3.4c3-1.1,6-2.2,9-3.3,9.1-3.3,18.4-6.7,27.9-9.2,5.8-1.5,11.2-2.2,16.4-2.2,7.5,0,14.6,1.6,21.2,4.8,9.3,4.5,18.6,6.6,28.6,6.6,8.4,0,17-1.5,26.2-4.7,2.3-.8,4.5-1.6,6.9-2.4,9.3-3.3,18.9-6.7,28.8-8.7,3.7-.8,7-1.1,10.1-1.1,8.1,0,15.1,2.6,21.3,7.9,9,7.8,19.5,11.7,31,11.7s11.6-.9,17.8-2.7c5.2-1.5,10.4-3.1,15.5-4.7,4.5-1.4,9.5-2.9,14.4-4.4,6.5-1.9,12.8-2.9,18.8-2.9,9.1,0,17.9,2.2,26.2,6.5,9.3,4.9,18.8,7.3,29.1,7.3s15.6-1.4,23.9-4.1c3.1-1,6.2-2.1,9.4-3.2,8.5-2.9,17.3-5.9,26.2-8,5.5-1.3,10.8-1.9,15.7-1.9,9.4,0,17.9,2.3,25.8,7,7.3,4.3,14.7,6.4,22.8,6.4s11.1-1,17-2.9c4.2-1.4,8.4-2.9,12.4-4.4,7.8-2.9,15.8-5.8,24.1-7.6,3.7-.8,7.2-1.2,10.6-1.2,7.7,0,15,2,21.7,6,4.7,2.9,9,5.3,13.1,7.5,4.9,2.6,9.9,3.9,14.9,3.9s8.7-1,13-2.8c2.5-1.1,5.1-2.3,7.5-3.5h.3c1.3-.7,2.5-1.4,3.8-1.9l2-.9c3.8-1.8,7.8-3.6,11.7-5.4,5-2.3,9.8-3.4,14.3-3.4,7.3,0,14.1,3,20.1,9,2.2,2.1,4.6,4.1,7,5.9l1.1.9c4.2,3.4,8.4,5,12.9,5s7.3-1.1,11-3.3c3.1-1.9,6.4-3.8,9.8-5.3,2.4-1.1,4.8-1.6,7.2-1.6,6.6,0,12,4.2,14.2,11.1,2.3,7,3.6,12.9,4.1,18.5,1.2,12.5-5,23.4-16.3,28.4-5.8,2.6-9.9,6.6-11.8,11.7-1.9,5.1-1.5,10.9,1.3,16.8,1.9,4.1,4.2,7.2,6.8,9.5,6.4,5.5,7.6,12.1,3.8,20-.7,1.4-1.1,2.9-1.6,4.5-.1.4-.3.9-.4,1.3-2.9,9.1-2.5,17.3,1,24.5,4.5,9.1,5.7,18.9,3.7,29.9-1.5,8.4.3,15.4,5.6,21.3,2.1,2.3,1.7,4.3.4,6.5-7.4,12.7-7,16.6,2.6,27.7,2.5,2.9,4.7,5.6,6.8,8.2,1.9,2.5,3.2,4.9,3.9,7.4.8,2.7.8,4.2.2,5-.1.2-.6.7-2.1.7s-1.6-.1-2.8-.3c-1.4-.3-2.8-.4-4.2-.4-5.1,0-9.8,1.7-14.2,3.6-4.8,2-9,4.8-13.4,7.7-1.1.7-2.3,1.5-3.4,2.2-4.9,3.1-8.7,5.3-12.1,5.3s-6.6-2-11.8-6.1c-8.3-6.4-16.8-9.5-26.1-9.5s-10.4,1-15.9,2.9c-3.8,1.3-7.7,2.7-11.4,4.4-3.7,1.7-7.5,3.6-11.1,5.4-1.5.7-2.9,1.5-4.4,2.2-1,.5-2,1-3.1,1.5-2.6,1.3-5.3,2.6-7.9,4-3.8,2-7.3,3-10.7,3-4.9,0-9.4-2-13.8-6.1-9.6-8.9-20.4-13.4-32.1-13.4s-4.9.2-7.4.6c-5.3.8-10.9,2.1-17.3,4.1-4.8,1.5-9.7,3.2-14.4,4.9-6,2.1-12.2,4.3-18.4,6-5.5,1.6-11,2.4-16.3,2.4-8.3,0-16.5-2-24.4-5.9-1.5-.8-3.1-1.5-4.7-2.3-2.8-1.3-5.6-2.7-8.3-4.1-9.6-5.1-19.7-7.8-30.1-7.8s-13.7,1.1-20.7,3.2c-10.7,3.2-21,6.5-30.8,9.9-5,1.7-10,2.6-14.7,2.6-7.5,0-14.5-2.1-21.6-6.3-7-4.2-16.5-9.1-27.5-9.1s-1.7,0-2.5,0c-7.2.5-14.5,2.4-23,6.2-6.5,2.8-11.9,5.3-17.2,8-6.7,3.5-13.4,5.2-20,5.2s-13.4-1.8-20.1-5.4c-1.8-.9-3.5-1.7-5.5-2.6-1.2-.5-2.4-1.1-3.6-1.7-7.3-3.6-15.1-5.4-23.1-5.4Z"/>
        <path d="M1034.7,305c.1-8.2-4-15.8-9.1-22.7-7.9-10.7-17.6-19.1-30.7-22.9-1.2-.3-2.4-1.1-3.4-1.8-5.4-3.8-5.3-7.7.1-11.4,5.7-3.9,11.4-7.7,17.1-11.6,51.7-35.5,103.4-70.9,155.1-106.4,1.4-.9,2.8-1.9,4.2-2.7,2-1.1,4-1.1,5.7.4,1.8,1.5,2,3.4,1.3,5.6-1.7,5-4.5,9.4-7.6,13.6-22,30.3-43.9,60.5-65.9,90.8-17.6,24.2-35.2,48.4-52.9,72.7-.4.6-.9,1.2-1.3,1.8-2.8,3.7-6,5-9.6,3.8-4.3-1.5-3.7-5-3.1-9.2ZM1044.2,298c3.7-5.1,6.7-9.3,9.7-13.5,3.9-5.3,4.7-11.1,2.4-17.2-1.2-3.1-2.7-6.1-4-9.2-4.3-10.7-12.8-17-22.6-22-1.5-.8-3-1.6-4.7-.5-7.4,5.1-14.8,10.1-22.7,15.5,20.6,10,34.8,24.6,41.8,46.8ZM1036.2,228c7.8,4.8,14.6,9.4,19.6,16,4.9,6.5,7.4,14.4,11.2,22.5,6.6-9.1,12.7-17.6,18.9-26.1,1.1-1.6.5-3.2,0-4.8-3-11.7-10.8-19.2-21.6-23.9-1.6-.7-3-1-4.7.1-7.6,5.3-15.3,10.6-23.5,16.3ZM1094.3,228.9c6.5-9,12.4-17.1,18.3-25.1,1.7-2.3,1.5-4.4,0-6.7-2.9-4.5-7.1-7.4-11.5-10.3-2.1-1.4-3.5-1.1-5.4.2-6.8,4.8-13.7,9.5-20.6,14.3-1.1.8-2.8,1.2-2.9,3.3,10,5.1,17.7,12.6,22.1,24.3ZM1107.4,179c5.8,3.7,10.1,7.7,13.9,12.8,10.3-14.2,20.3-28.1,30.4-41.9-.3-.3-.6-.5-.9-.8-14.2,9.8-28.4,19.5-43.4,29.9Z"/>
        <path d="M592.1,26.9c1.3,2,1.5,4.1,2.1,6.1,12.2,43.1,21.9,86.9,33.6,130.1,3,11.3,6.6,22.5,9.9,33.7.6,2,1.3,3.9,1.2,6-.2,2.7-1.5,4.9-4.4,4.7-3.1-.2-6.2.1-9.4-.9-23.8-7.9-47.5-8.3-70.8,2.2-4.4,2-7.2.4-8.1-4.4-1.2-6.6.5-13,2-19.3,1.3-5.6,2.4-11.3,2.5-17.1,0-4.6,2.3-8.5,3.1-12.9,6.8-38.1,14.7-76,24.9-113.5,1.2-4.5,2.7-8.9,4.1-13.3.8-2.3,2.5-3.7,4.9-3.9,2.1-.2,3.5,1,4.3,2.4ZM627.1,196.3c-1.2-4-2.3-7.2-3.2-10.4-1-3.4-2.5-6.7-2.9-10.2-.9-8.3-5.5-11.6-13.5-13-14.3-2.3-28.2-2-41.9,2.5-1.9.6-3.9,1.1-4.4,3.7-1.7,9.1-3.7,18.2-5.7,28.3,12.5-3.5,23.7-6.8,35.6-6.5,12,.3,23.6,2.5,36,5.6ZM614.9,154.4c-1.9-7.8-3.7-15-5.4-22.2-.5-2-1.7-2.8-3.6-3.6-11.5-4.9-23-2.4-34.6-.5-1.7.3-2.6,1-3,2.7-1.5,7.8-3,15.6-4.7,24.3,17.2-4.9,33.7-5.2,51.2-.8ZM570.9,117.9c12.2-1.7,23.3-3.7,34.9,0-2-8.1-3.8-15.2-5.5-22.4-.5-2.2-1.8-3.4-3.9-4.3-6.1-2.5-12.1-.9-18.1.2-1.5.3-1.9,1.6-2.2,2.9-1.7,7.6-3.3,15.2-5.2,23.7ZM596.4,80.3c-2.7-11.2-5.3-21.5-8.9-31.5-3.4,10.4-5.9,20.8-8.1,31.8,5.7-.4,10.9-1.2,17-.3Z"/>
        <path d="M272.6,92.8c.3,4-2.3,5.1-4.7,6-6.7,2.5-12.8,5.9-18.8,9.7-12.3,7.7-21.1,18-24.9,32.3-1.7,6.1-4.5,6.7-9.6,3.2-3.2-2.2-5.3-5.1-7.4-8.2-21.9-32.8-43.7-65.6-65.6-98.4-.7-1.1-1.5-2.2-2-3.3-.9-2-1.1-4,.4-5.8,1.6-1.9,3.7-2.3,6.1-1.2,4,1.9,8.1,3.7,12.1,5.7,35.9,18,71.8,36,107.6,54.1,2.9,1.5,6.3,2.6,6.9,5.9ZM256.2,93.2c-6.7-3.4-12.2-6.2-17.6-8.9-1.3-.7-2.5-1.3-4.1-.6-10.5,4.4-18.8,11-23.3,21.9-1.2,3-1.5,6.6-4.7,8.6-1.1.7-.6,1.6,0,2.4,3.4,4.7,6.2,10,10.3,14.7,7.6-18.2,21.5-29.5,39.4-38.1ZM224.3,77.1c-6.5-3.2-12.2-5.9-17.7-9-2.6-1.4-4.5-1-6.6.7-6.2,4.8-9.6,11.2-11.2,18.7-.3,1.2-.3,2.2.4,3.2,3.5,5.2,6.9,10.5,10.9,16.5,3.7-13.9,12.7-22.6,24.2-30.1ZM181,78.4c3-7,6.7-12.3,12.1-17-11.3-5.6-22.1-11-32.9-16.4l-.7.9c7,10.5,14,21.1,21.6,32.5Z"/>
        <path d="M980.2,585.3c-.6,0-1.2-.2-1.9-.6-2-1.1-2.5-2.6-1.9-6.4,1-6.8,2.9-13.5,5.1-20.8.4-1.4.8-3.2-.2-4.8-1-1.6-2.7-2.1-4-2.3-.9-.2-1.7-.3-2.5-.5-2.8-.6-5.7-1.1-8.6-1.2h-.2s-.2,0-.2,0c-.6,0-1.1.2-1.6.2-1,.2-1.9.3-2.7.3h-.2c-3.6,0-3.8-1.4-4-2.2-.2-1-.5-2.8,3.2-3.5,6.3-1.3,12.2-3.8,17.8-6.3,2-.9,4-1.8,6-2.6,3.8-1.5,6.1-3.9,7.5-7.9,2.8-7.8,5.9-15.3,9.4-23.7,1.3-3,2.7-5.7,4.3-7.9,1.5-2.1,3.2-3.3,4.9-3.3s3.6,1.4,5,3.8c2.5,4.5,3.8,9.6,5,14.1.3,1.1,1.2,4.5,4.4,4.5s2.1-.4,3.5-1.2c3.3-1.9,6.8-3.7,10.2-5.4l2.1-1.1c1.5-.8,2.6-1.1,3.6-1.1s1.5.3,2.2.9c1.2,1.1,1.6,2.3.2,5.6-3.4,7.9-8.8,14.5-13.7,20-3.2,3.6-3.9,7.1-2.2,11.8,1.6,4.5,3,9.3,4.3,13.9.5,1.9,1.1,3.8,1.7,5.7v.4c.3.7.5,1.4.7,2.1.6,3.2.3,4.7-1.3,5.8-.6.4-1.2.6-1.8.6-1,0-2.1-.4-3.6-1.3-3.5-2.1-7.2-3.8-10.8-5.4-1.8-.8-3.6-1.6-5.3-2.5-1.8-.9-3.4-1.3-5-1.3-2.5,0-4.7,1.1-6.9,3.5-4.5,4.8-9.4,9.3-14.1,13.8-1.3,1.2-2.6,2.4-3.8,3.6-1.6,1.5-3,2.6-4.4,2.6ZM991.2,555.1c-3.5,0-4.3,3.1-5.5,7.4-.1.5-.3,1-.5,1.5-.6,1.9-1.3,4-1.1,6.9l.5,5.1,3.5-3.8c1.2-1.3,2.6-2.6,3.9-3.8,2.5-2.3,5.1-4.7,7-7.9l1.3-2.2-2.4-1c-3.3-1.4-5.1-2.1-6.7-2.1ZM1011.8,556.2l19,8.4-.9-4.4c-1.2-5.6-2.6-9.7-4.3-14.1l-1.3-3.4-12.3,13.5ZM1016.3,526.5c-1.3,0-2.8.4-4.7,1.3l-2.8,1.4c-3.6,1.8-7.4,3.6-11.1,5.2-5.5,2.4-6.1,7.8-6.4,11.1-.4,4,3.3,4.8,4.9,5.2.6.1,1.3.3,1.7.5.8.5,1.6.7,2.3.9.4.1.8.2,1.1.4,1.1.5,2.2.8,3.3.8,1.9,0,3.7-.9,5.3-2.8,2-2.3,4-4.6,6.1-6.8,1.2-1.3,2.4-2.6,3.5-3.9l.3-.3c1-1.1,2.5-2.7,2.2-5.2,0-6.4-3-7.8-5.5-7.8ZM1007.8,502c-3,6.3-6.1,13.1-8.5,20.9l-1.3,4.1,4.1-1.2c7.6-2.3,11.4-3.7,13-6.9,1.6-3.2.5-7-1.5-13-.2-.7-.5-1.3-.9-2.1-.2-.5-.5-1-.8-1.7l-2-4.6-2.2,4.5Z"/>
        <path d="M330.4,625.4c-.7,0-1.4-.3-2.2-.8-1-.8-1.1-1.4,0-4.3,1.3-3,2.2-6.2,3.1-9.2v-.5c2.3-7.5,1.6-8.7-6.1-11.1-2.6-.8-5.5-1.4-9.2-1.8-2.6-.3-2.9-1.3-3.1-2.3-.2-1.2,0-2.6,2.5-3.5,7.5-2.7,14.4-5,21-7.2,3.6-1.2,5.8-3.2,7.3-6.5,2-4.5,4.3-9,6.5-13.3l1.3-2.5c.7-1.4,1.7-2.8,2.8-4.3,1.3-1.7,2.3-1.9,2.9-1.9s.6,0,1,.2c1.1.3,2.1,1,2.6,3.6.5,3.4,1,6.3,1.2,9.2.3,4.3,3.1,4.8,4.3,4.8s1.5-.1,2.4-.4c2-.6,3.9-1.3,5.9-1.9,2.6-.9,5.3-1.7,7.9-2.6,1.4-.5,2.6-.8,3.7-.8s.2,0,.3,0c1.5,0,2.6.6,3.1,1.5.5.9.4,2.1-.2,3.4-.9,1.9-2.5,3.4-4.2,5l-2.4,2.3c-3.6,3.5-7.4,7.2-11.3,10.5-2.7,2.4-3.5,5-2.5,8.6,1.2,4.5,2.7,10.1,3.7,15.5.3,1.8,0,3.3-.7,4.2-.6.7-1.5,1.1-2.6,1.1s0,0-.1,0c-2.5-.4-4.8-1.7-7.2-3-.7-.4-1.4-.8-2.1-1.2h-.1c-4.6-2.5-7.1-3.9-9.7-3.9s-5.5,1.9-10,5.7c-1.4,1.1-2.7,2.3-4,3.4-.9.8-1.8,1.6-2.8,2.4-1.1,1-2.2,1.4-3.1,1.4ZM355.7,584.2c-.7,0-1.4,0-2.2.2-5.9,1.2-9.5,4.7-11,10.8,0,.2-.1.4-.2.6-.4,1.1-1.4,4,2,5.7h.2c1.1.7,2.3,1.3,3.8,1.3h0c1.3,0,2.6-.5,3.7-1.6,1.6-1.5,3.3-2.9,5-4.4.7-.6,1.4-1.2,2.1-1.8.7-.6,2.5-2.1,2.3-4.6,0-2.1-.4-3.7-1.5-4.8-1-1-2.3-1.5-4-1.5Z"/>
        <path d="M1173,448.7c-1.7,0-3.8-.6-5.8-5.1-8.4-18.6-11.6-36.5-9.8-54.7.6-6.5,2.4-11.7,5.6-16.1,2.7-3.8,6.5-5.9,10.5-5.9s6.8,1.5,9.6,4.3c4.5,4.5,5.8,10.4,7.1,17.6l.6,3.7,3-2.3c1-.8,2-1.5,3-2.3,2-1.6,3.9-3,5.9-4.4,2.1-1.5,4.5-2.6,7.4-3.3,1.4-.4,2.8-.5,4.1-.5,3.4,0,6.5,1.3,8.5,3.5,2.3,2.5,3.3,6.1,2.8,10.2-.5,4.5-1.8,8.7-3.8,12.4-11,20.1-25.3,33.7-43.7,41.6-1.9.8-3.5,1.2-4.8,1.2ZM1173.5,372.4c-2.4,0-4.5,1.3-6.3,3.8-2.1,2.9-3.4,6.4-4.1,10.8-2.2,15.1,0,30.4,7,49.7,1,2.7,2,5.6,5.1,5.6s3-.7,5-1.8c16.1-8.3,28.7-21.4,37.5-38.9,1-2,1.7-4.2,2.2-7,.6-3.4.1-6-1.3-7.7-.7-.9-2.1-1.9-4.4-1.9s-3,.4-4.7,1.2c-10.1,4.7-16.1,11.4-18.4,20.7-.4,1.5-1.1,2.7-2.1,4.1-1.5,2-2.4,2-2.7,2s-.7,0-1.1-.3c-.6-.3-1.9-.9-1.4-3.6.8-4.2.8-8.5.7-12.6,0-1,0-1.9,0-2.8,0-2.1,0-4.2,0-6.4-.3-3.4-1.1-8.3-4.8-12.1-1.9-2-3.9-3-6-3Z"/>
        <path d="M100,387.9c-1,0-2.2-.2-3.5-.5-19.7-5.2-35.6-14-48.7-26.8-4.6-4.6-7.6-9.3-9-14.4-1.1-4.1-.6-8.1,1.4-11.1,2.1-3.1,5.6-5,10-5.5.7,0,1.3-.1,2-.1,5.5,0,10.6,2.6,16.1,5.7l3.3,1.8v-3.8c.2-1.3.2-2.5.2-3.7,0-2.6.1-5,.3-7.3.2-2.6.9-5.1,2.1-7.8,2.3-5,6.3-7.9,10.8-7.9s6.4,1.5,9.2,4.3c3.2,3.2,5.6,6.8,7.2,10.8,8.7,21.2,10.2,40.8,4.7,60.1-1.5,5.2-3.5,6.3-6.2,6.3ZM52.6,334.8c-.4,0-.9,0-1.3,0-2.9.3-5.1,1.3-6.3,3.1-1.3,1.8-1.5,4.1-.8,7,.9,3.5,2.8,6.7,5.8,10,10.3,11.3,23.6,19.3,43,25.9,1.9.7,3.2,1,4.3,1,3.6,0,4.3-3.4,5-6.4,3.7-17.7,1.5-35.7-6.5-53.6-.9-2-2.2-4-4.1-6.1-2.2-2.5-4.5-3.8-6.7-3.8s-4.9.9-6.4,6.6c-2.8,10.8-1.3,19.7,4.5,27.3.9,1.2,1.4,2.6,1.9,4.2.8,2.9,0,3.5-1,4.1-.4.2-.8.3-1.2.3-1,0-1.9-.8-2.5-1.5-2.8-3.3-6.1-5.9-9.4-8.5-.7-.6-1.4-1.2-2.1-1.7-1.6-1.4-3.2-2.7-5-4-2.5-1.7-6.4-4-11.1-4Z"/>
        <path d="M439.4,135.6c-4.6,0-9.2-.9-13.6-1.9-13.1-2.8-23.9-7.8-33-15.4-4.8-4-8.1-8.5-10.2-13.7-1.9-4.8-1.7-9.3.6-12.7,2.2-3.1,5.9-4.9,10.6-4.9s1.5,0,2.2.1c3.2.4,6.3,1.4,9.6,2.5,1.4.5,2.8.9,4.3,1.4l3,.9v-3.2c-.1-.7-.1-1.4-.2-2.1-.1-3.3-.2-6.1.3-8.8,1.3-6.2,5.4-10.1,10.9-10.1s5.2.9,7.7,2.6c3.1,2.1,5.8,5,8.5,9.1,9.6,14.5,14.3,29.2,14.3,44.8,0,5.8-2.9,9.2-8.8,10.5-2,.4-4.1.7-6.4.7ZM393.6,92.4c-2.5,0-4.4.9-5.9,2.8-2.4,3.1-.9,6.2.1,8.3.1.3.3.6.4.8,1.7,3.8,4.4,7.2,7.9,10,11.9,9.4,26.1,14.8,42.3,15.9.6,0,1.2,0,1.8,0,2,0,4.5-.2,6.3-2.1,2.1-2.2,2.5-5.8,2.3-10.9h0c-1.1-11.4-5.8-23.8-13.4-35-1.4-2-2.9-4.3-5.1-6-2.3-1.9-4.3-2.8-6.2-2.8s-5.1.9-5.9,7.2c-1,7.9.8,13.9,5.6,18.3,2.3,2.1,1.7,3.2.9,4.3-1,1.3-2,1.3-2.3,1.3-.7,0-1.6-.3-2.5-.9-.2-.1-.3-.2-.5-.4-.3-.2-.5-.4-.8-.6-6.3-4.4-13.5-7.6-21.4-9.6-1.4-.4-2.6-.5-3.7-.5Z"/>
        <path d="M1257.5,848.3c-2.5,0-5-1.9-6.6-5.2-2.1-4.4-3.1-9.1-3.8-14.9-2.1-15.9-1.6-30.2,1.7-43.5,1.5-6.3,3.5-10.6,6.5-14.1,2.3-2.7,4.8-4.1,7.4-4.1s5.7,1.9,7.7,5.3c1.3,2.2,2.1,4.8,3,7.7.3.9.6,1.9.9,2.9l.9,2.6,2.4-1.3c4.6-2.5,8.2-4.2,12.1-4.9,1.1-.2,2.2-.3,3.3-.3,8.4,0,14.7,6.2,15.1,14.8.3,7.2-2.2,14-8,22.2-9.1,12.8-21.9,23-40.1,32.1-.8.4-1.6.6-2.4.6ZM1262.3,772.9c-2.9,0-4.1,2.6-4.7,3.8l-.4.9c-1,2.1-2,4.3-2.7,6.7-4.3,16.1-4.5,32.8-.8,50.8.4,2,.9,4.5,3.3,6.3l1.1.9,1.3-.6c15.2-7.2,27.4-17.2,36.4-29.5,3.6-5,7-10.6,6.8-17.7-.1-6.4-3.9-10.5-9.6-10.5s-2.1.1-3.2.4c-7.2,1.7-12.3,5.2-15.4,10.5-1.3,2.3-2.3,3.1-3.4,3.1s-.7,0-1-.2c-1.7-.5-1.9-1.1-1.3-4.7v-.2c.9-6,.2-11.2-2-16,0-.2-.1-.3-.2-.5-.4-1.1-1.3-3.5-4.2-3.5h0Z"/>
        <path d="M51.1,640.7c-2.9-.5-5.4-2.1-7.6-4.8-2.1-2.6-4.2-5.2-6.2-7.8-1.3-1.6-2.5-3.2-3.8-4.8-3.9-4.9-7.9-9.1-12.1-12.8-1.8-1.6-2.7-2.8-2.8-3.8,0-.9.6-2.2,2.1-3.8,7.3-8.1,12.2-17.5,16.6-26.4,1.1-2.2,2.8-4.9,4.7-4.9s2.9,1,4.8,3c9.5,10.1,17.6,21,24.1,32.7,1,1.7.8,2.9-.6,4.4-6.3,6.8-11.4,15.2-15.8,25.7-1,2.5-2,3.1-3.3,3.3ZM41.2,581.1c-.8,1.4-1.6,2.8-2.3,4.2-2.6,4.7-5,9.1-7.8,13.1-4.9,7.1-4.8,8.3.7,14.7l.3.3c3.5,4,6.8,8.1,10.4,12.4,1.6,1.9,3.1,3.8,4.8,5.8l2.2,2.6,1.6-3c3.7-6.8,7.4-13.7,12.2-19.8,2.3-2.9.6-5.6,0-6.6-5.4-8.8-11.4-16.7-18.4-24.2l-2.1-2.3-1.5,2.7Z"/>
        <path d="M998.8,1018.3c0-.8.6-1.7,1.6-2.4,8-5.7,14.4-13.6,19.4-24.1.8-1.8,1.7-2.8,2.6-3.1,1-.3,2.5.2,4.5,1.5,7.4,4.6,15.2,9.6,25.5,16l.8.5c1.8,1.2,3.9,2.5,6.5,3,2,.4,2.1,1.6,2.1,2,0,.1,0,.2,0,.3,0,1.2-.5,2.1-1.6,2.8-.7.4-1.4.8-2.2,1.2-.5.3-1.1.6-1.6.9l-1.6.9c-7.7,4.4-15.4,8.7-23.1,13.1-.2.1-.4.3-.6.4-.5.3-1.3.8-1.6.8h-.2s-.2,0-.2,0c-1.1,0-1.7-.2-2.4-.5-6.1-3.5-12.7-5.7-19.1-7.9l-3.1-1.1c-1.1-.4-2.2-.7-3.1-1.2-1.5-.8-2.5-2-2.5-3ZM1043.9,1007.4c-5.2-3.2-10-6.2-14.9-9.2-.1,0-.3-.2-.4-.3-.8-.6-2.1-1.5-3.7-1.1-1.1.3-2,1-2.7,2.3-2.7,5.1-6.4,10.1-12,16.2l-2.2,2.4,7.2,3c3.6,1.5,6.9,2.8,10.2,4.2,2.2.9,4.3.8,6.3-.3l20.8-11.9-8.7-5.4Z"/>
        <path d="M693.8,108.6c-.3,0-.5,0-.8-.2-1-.4-2-1-1.9-4.1,0-1.5,1.9-4.3,5.3-5.6,2.5-1,5.3-1.4,9.1-1.4,8.6,0,10.3-1.5,12.2-10.1.2-.9.4-1.8.6-2.7.4-2,.8-3.9,1.3-5.8,1.4-4.7,4.2-7.4,8.6-8,5.4-.7,9.3-3.7,11.7-9.2,1-2.3,2-4.6,2.8-6.9,2.4-6.5,6-10.4,11.9-12.8,5.6-2.2,9.2-6.7,12.7-11,1.1-1.4,2.2-2.7,3.4-4,.7-.7,1.2-1.5,1.8-2.2.7-.9,1.4-1.7,2.1-2.4.6-.6,1.2-.9,1.8-.9s1,.2,1.5.5c.7.5,1.2,1,.5,3.5,0,.1-.1.4-.3.6-1.1,1.4-2.3,2.8-3.4,4.2-5.8,7.3-11.2,14.2-19.9,17.6-3.5,1.3-5.1,4.1-6.3,6.9-.5,1.1-.9,2.2-1.4,3.3-1.2,2.8-2.3,5.6-3.7,8.3-2.8,5.3-6.8,8.4-12,9.2-4,.6-6.5,2.9-7.4,7.1-.3,1.1-.5,2.3-.7,3.4-.5,2.4-.9,4.6-1.5,6.7-2,6.8-5.3,9.4-12.5,9.7-.6,0-1.3,0-1.9,0-1.6,0-3.2.1-4.9.2-3.1.3-5.5,1.9-7,4.8-.3.5-.8,1.1-1.6,1.1Z"/>
        <path d="M1068.9,80.1c-.9,0-1.8-.9-2.4-2.2-.8-2-.8-3.8,0-5.1.8-1.3,2.2-2,4.2-2.2.5,0,1.1,0,1.7,0,1.1,0,2.3,0,3.5.2.8,0,1.5.1,2.3.1.7,0,1.3,0,1.9,0h0c1.6,0,3.2-.2,4.4-1.3,1.4-1.4,1.4-3.7,1.4-6.2,0-.9,0-1.9-.1-2.8,0,0,0,0,0-.1v-1c0-.7,0-1.3,0-2,0-1.4,0-2.7,0-4,.4-5,2.8-7.7,7.7-8.7h.3c.2-.1.5-.2.6-.2.7,0,1.3.1,1.9.1,9.7,0,10.6-8.8,10.8-11.7.4-4.3,3.3-7.1,7.4-7.1h.1c8.3,0,18.3-1.8,21.1-15.7.6-3,3.5-5.6,6.3-8l.8-.7c1-.9,2-1.4,2.8-1.4s.9,0,1.6.8c.6.6.9,1.1.9,1.7,0,.8-.5,1.6-1.3,2.4-4.6,4.3-7.7,9.6-9.8,16.7-1.6,5.3-5.5,8.3-11,8.3h-.6c-7.3,0-14.1,1.5-15,12.6-.2,2.7-1.5,6.3-10.2,7-8.9.7-9.8,1.8-9.2,10.8,0,.4,0,.8,0,1.2,0,.7.1,1.4.1,2.1.2,4.7-.7,8-2.6,10-1.8,1.9-4.7,2.8-8.9,2.8-.4,0-.8,0-1.2,0h-.3c-.5,0-.9,0-1.4,0-2,0-4.4.4-6.5,3-.4.4-.9.9-1.6.9Z"/>
        <path d="M33.3,513.8c-.9,0-1.8-.9-2.4-2.2-.8-2-.8-3.8,0-5.1.8-1.3,2.2-2,4.2-2.2.5,0,1.1,0,1.7,0,1.1,0,2.3,0,3.5.2.8,0,1.5.1,2.3.1.7,0,1.3,0,1.9,0h0c1.6,0,3.2-.2,4.4-1.3,1.4-1.4,1.4-3.7,1.4-6.2,0-.9,0-1.9-.1-2.8,0,0,0,0,0-.1v-1c0-.7,0-1.3,0-2,0-1.4,0-2.7,0-4,.4-5,2.8-7.7,7.7-8.7h.3c.2-.1.5-.2.6-.2.7,0,1.3.1,1.9.1,9.7,0,10.6-8.8,10.8-11.7.4-4.3,3.3-7.1,7.4-7.1h.1c8.3,0,18.3-1.8,21.1-15.7.6-3,3.5-5.6,6.3-8l.8-.7c1-.9,2-1.4,2.8-1.4s.9,0,1.6.8c.6.6.9,1.1.9,1.7,0,.8-.5,1.6-1.3,2.4-4.6,4.3-7.7,9.6-9.8,16.7-1.6,5.3-5.5,8.3-11,8.3h-.6c-7.3,0-14.1,1.5-15,12.6-.2,2.7-1.5,6.3-10.2,7-8.9.7-9.8,1.8-9.2,10.8,0,.4,0,.8,0,1.2,0,.7.1,1.4.1,2.1.2,4.7-.7,8-2.6,10-1.8,1.9-4.7,2.8-8.9,2.8-.4,0-.8,0-1.2,0h-.3c-.5,0-.9,0-1.4,0-2,0-4.4.4-6.5,3-.4.4-.9.9-1.6.9Z"/>
        <path d="M1219,712.6c-.1,0-.2,0-.3,0-.6,0-1.6-.1-2.1-2.7-1.9-9.3,6.2-23.5,15.5-27,2.6-.9,5.2-1.4,7.8-1.4s1.4,0,2.1.1c.5,0,.9,0,1.4,0,4.3,0,7.3-2.2,9-6.7,1.7-4.3,3.6-9.2,5.8-13.8,4.1-8.7,9.8-12.8,18.1-12.9,4.1,0,7.8-1.7,11-5,2.2-2.2,4.5-4.3,6.8-6.4l1.7-1.5c1.2-1.1,2.2-1.6,3-1.6s1.2.3,1.9.9c.4.3.6.7.6,1.2,0,1-.6,2.1-1.7,3.3-2.9,2.9-6.1,5.7-9.1,8.5-.9.8-1.8,1.6-2.7,2.5-2.4,2.2-5.5,3.3-9.1,3.3h-.2c-7.6,0-12.8,3.7-15.9,11.4-1.9,4.6-3.9,9.5-6.1,14.3-2.5,5.5-6.5,8-12.6,8h-.9c-12,0-18.6,5.7-20.6,17.9-.1.9-.2,1.7-.3,2.6,0,1-.2,2-.4,2.9-.4,2-1.5,2.2-2.5,2.2Z"/>
        <path d="M76.3,903.1c-1.5,0-2.1-1.4-2.2-2.3-1.6-7.8-5.8-13.3-12.9-16.9-4-2-4.8-6.5-5.2-11.1-.3-3.8-1.4-7.5-7.7-7.8-5.1-.3-7.4-2.7-8.2-8.4,0-.4,0-.8-.1-1.2,0-.5,0-1-.2-1.5-1.4-10-2.2-10.7-12.5-11.8-3.4-.4-5.8-1.5-7.2-3.3-1.4-1.8-1.9-4.5-1.3-7.9.5-3,1.5-5.8,3.3-8.3,1-1.5,2.2-2.2,3.6-2.4.9,0,1.6.4,2,1.1.3.4.6,1.2,0,2.4-.3.7-.8,1.4-1.3,2.1-1.4,2.2-3.4,5.2-1.8,8.4,1.6,3.1,4.9,3.1,6.4,3.1s.8,0,1.2,0c.4,0,.7,0,1.1,0s1.1,0,1.6.1c5,1.1,7.8,3.9,9,9,.2.8.3,1.6.4,2.4.3,4.7.8,11.8,10.7,12.1,4.9.1,5.6,6.7,5.7,8,.5,7,3.1,11.2,8.7,14.3,5.3,2.9,8.3,8.1,9.4,16.4.4,2.8-.6,3.2-1.8,3.5-.3,0-.6.1-.8.1Z"/>
        <path d="M828.8,216.7c-.6,0-2.1-.4-4.4-3.5l-2.6-3.4c-3.5-4.5-7.1-9.2-10.5-13.8-2.8-3.9-2.8-4,.3-7.9,3.2-4,6.3-8.2,9.3-12.2,1.7-2.3,3.5-4.6,5.2-6.9,1.1-1.5,1.7-3,2.2-4.5l.2-.6c.6-1.6,1.7-2.4,2.4-2.4s1.2.6,1.5,1.1c3.6,5.9,6.9,12.2,10,18.3,1.1,2.2,2.3,4.3,3.4,6.5,0,.1,0,.5.1.7,0,.1,0,.2,0,.3-.1,1-.4,2-1.1,3.1-2.3,4-4.6,8-6.9,12-1.8,3.1-3.5,6.2-5.3,9.3-1.5,2.6-2.9,4-4.1,4ZM830.6,174.2c-.8,0-1.9.3-3,1.8-1,1.4-2.2,2.8-3.5,4.2-3.1,3.5-6.3,7.1-7.1,11.6-.8,4.2,2.6,7.7,5.6,10.7,1.1,1.1,2.1,2.2,2.9,3.2.4.5.9.7,1.3.9.2,0,.4.2.7.3l1.9.9s7.6-13.2,9.6-16.9c1.1-2,1.1-4,0-6-1-1.6-2-3.3-2.9-4.9-.7-1.2-1.4-2.4-2.1-3.6-.9-1.5-2-2.2-3.2-2.2Z"/>
        <path d="M407.3,1024.1c-3.2,0-6.5-.9-9.6-2.6-1.2-.6-2.2-1.2-2.9-2-.9-1.1-.8-1.8-.3-2.6.7-1.2,1.4-1.3,2-1.3s.2,0,.4,0c.5,0,.6.1.6.1,3,1.9,6.1,2.9,9.3,2.9,5.6,0,10.6-2.9,14.8-5.7,3.7-2.4,7.8-5.1,12.3-7,2.7-1.2,5.1-1.7,7.2-1.7s3.4.4,4.9,1.2c1.5.8,3,1.2,4.5,1.2,2.9,0,5.2-1.6,6.7-2.8,4.4-3.6,8.4-6.7,12.2-9.6,3.6-2.7,7.1-4.4,10.5-5,.5,0,1.1-.1,1.6-.1,2.1,0,4.1.8,5.5,2.2,1.3,1.3,2,3.1,2,5,0,2.9-1.2,3.2-1.9,3.4-.3,0-.5.1-.8.1-1.1,0-1.6-.8-1.9-1.5-1-2.9-2.9-3.5-4.2-3.5s-2.2.5-3.3,1c-3.4,1.7-6.4,4-9.2,6.3l-.8.6c-.8.6-1.6,1.3-2.4,1.9-2.3,1.9-4.7,3.8-7.2,5.5-2.2,1.5-4.4,2.3-6.5,2.3s-3.2-.4-4.8-1.3c-1.7-.9-3.5-1.3-5.3-1.3s-4.3.6-6.5,1.9c-2.5,1.4-5,2.9-7.4,4.3-2.8,1.7-5.6,3.4-8.5,4.9-3.8,2.1-7.5,3.2-11.1,3.2Z"/>
        <path d="M35.1,1013.8c-1.8,0-3.6-.2-5.6-.6-1.7-.4-4.6-1.3-4.2-3.4.2-.9.3-2,3.7-2s.9,0,1.4,0c.3,0,.7,0,1,.1h.6c.9.2,1.8.3,2.8.3,3.5,0,6.9-1,10-3,3.1-2,6-3,8.7-3s4.5.7,6.7,2c1.1.7,2.2,1,3.3,1s2.6-.5,3.9-1.6c2.6-2.2,5.5-3.2,8.7-3.2s5.2.6,8.4,1.9c2.9,1.1,4.9,1.9,6.7,1.9,3.1,0,4.7-2,7.7-5.8,3.4-4.2,6.7-6.3,10.2-6.3s2.7.3,4.2.9c1.5.6,2.7,1.5,3.7,2.6,1.5,1.7,1.1,2.8.4,3.7-.5.6-1.1,1-1.7,1s-.8-.1-1.1-.4c-1.8-1.3-3.4-2-5.1-2-3.5,0-5.7,2.9-7.2,4.9-4.3,5.6-6.6,7.4-9.6,7.4s-4.5-.7-8.6-2.4c-2.8-1.2-5.1-1.7-7.2-1.7-3.1,0-5.9,1.1-8.6,3.5-1.3,1.1-2.7,1.7-4.2,1.7s-2.3-.4-3.5-1.1c-2.3-1.5-4.6-2.2-6.9-2.2s-5.1.9-7.9,2.7c-3.1,2-6.6,3-10.5,3Z"/>
        <path d="M1190.8,606.3c-1.7.6-3.5,1-5.4,1.3-1.7.2-4.7.3-5.1-1.8-.2-.9-.3-2,2.9-3.1s.9-.3,1.3-.4c.3,0,.6-.1,1-.2h.5c.9-.3,1.8-.5,2.7-.8,3.3-1.2,6.2-3.2,8.4-6.1,2.3-2.9,4.6-4.8,7.2-5.7s4.4-.8,7-.3c1.3.3,2.4.2,3.4-.1s2.3-1.4,3.2-2.8c1.8-2.9,4.1-4.9,7.2-5.9s5.1-1.1,8.6-1c3.1.1,5.2.2,6.9-.4,2.9-1,3.8-3.5,5.3-8,1.8-5.1,4.3-8.1,7.6-9.3s2.7-.6,4.2-.5c1.6,0,3,.5,4.3,1.2,2,1.1,2,2.3,1.6,3.4-.2.8-.7,1.3-1.3,1.5s-.8.1-1.2,0c-2.1-.7-3.9-.7-5.5-.2-3.3,1.1-4.4,4.6-5.2,6.9-2.2,6.7-3.8,9.1-6.6,10.1s-4.5.8-9,.5c-3-.2-5.3,0-7.4.8-3,1-5.2,3-6.9,6.1-.8,1.5-2,2.5-3.4,3s-2.3.4-3.7.1c-2.7-.6-5.1-.6-7.3.2s-4.5,2.5-6.6,5.1c-2.3,2.9-5.3,5-9,6.2Z"/>
        <path d="M171.5,437.2c-.7,0-1.4-.1-2.1-.4-2-.7-4-2-3.6-3.4.4-1.5,1.1-2,2.6-2s1,0,1.6.2c.5,0,.9.1,1.3.1,2.2,0,4.1-1,5.8-1.8.5-.2.9-.5,1.4-.7,3.3-1.5,6.9-3,10.6-3s2.3.1,3.5.5c.6.2,1.2.2,1.7.2,2.5,0,4.1-1.6,5.3-2.8,3.2-3.3,6.9-4.9,10.8-4.9s4.7.5,7.2,1.5c1.6.7,3,1,4.3,1,2.8,0,5-1.5,6.7-4.6,2.4-4.2,5.1-7.3,8.5-9.4,2.2-1.4,4.5-2.1,6.8-2.1s5.6,1.2,7.7,3.3c2.3,2.4,1.7,3.5,1,4.4-.8,1-1.4,1-1.6,1-.6,0-1.3-.3-2-.9-1.7-1.5-3.5-2.2-5.3-2.2s-4.4,1.2-6.5,3.6c-1.7,1.9-3.1,4-4.5,5.9-.5.8-1.1,1.5-1.6,2.3-2.5,3.5-4.7,4.9-7.3,4.9s-2.7-.3-4.4-1.1c-2.9-1.2-5.5-1.8-7.8-1.8-4.2,0-7.9,1.9-11.2,5.8-1.1,1.3-2.6,2-4.3,2s-1.3-.1-2-.3c-1.5-.5-3.1-.7-4.6-.7-2.7,0-5.5.7-8.3,2.2-1.7.9-3.5,1.5-5.4,2.2-.7.2-1.4.5-2.1.8-.6.2-1.2.3-1.8.3Z"/>
        <path d="M1074.7,452.4c-.7,0-1.5,0-2.3-.2-.9-.1-1.8-.2-2.8-.2h-.3s-.2,0-.2,0c-1.1.2-2.2.3-3.3.3-5.4,0-9.8-2.5-13.3-7.6-1.9-2.8-4.2-3.4-5.9-3.4s-2.8.4-4.4,1.2l-1.2.6c-2.2,1.2-4.4,2.3-6.6,3.2-1.7.6-3.1,1-4.4,1-2.5,0-4.6-1.2-6.9-4-4.7-5.8-7.1-8.7-10.8-8.7s-5.8,2-11.3,6c-.7.5-1.5,1-2.2,1.3-.5.1-.9.2-1.3.2-.9,0-1.5-.3-2-1.2-.4-.7-.7-1.6.5-2.9,2.2-2.4,4.6-4.4,7.2-6.1,3-1.9,5.9-2.9,8.8-2.9s7.4,1.7,10.6,4.9c1.2,1.2,2.3,2.7,3.5,4.5,1.3,2,3,3,4.8,3s2.2-.4,3.4-1.1c1.8-1.1,3.9-2.2,6.2-3.2,2.5-1.1,4.6-1.6,6.5-1.6,3.1,0,5.8,1.5,8.2,4.6,3.7,4.7,8.1,6.9,13.7,6.9s1.1,0,1.7,0c.4,0,.9,0,1.3,0,1.2,0,2.4.1,3.7.3,2.5.4,2.5,2,2.5,2.6,0,.6,0,1.8-2.5,2.4-.4.1-.9.2-1.4.2Z"/>
        <path d="M843.3,1032.2c-.5.6-1.4,1-2.1,1.1-1.1.3-2.4.1-3.7,0-.9-.1-1.9-.2-2.9-.2h-.2s-.2,0-.2,0c-7,1.2-12.4-1.2-16.6-7.3-1.4-2.1-4.6-5.1-10.3-2.2l-1.2.6c-2.2,1.2-4.4,2.3-6.6,3.2-4.8,1.9-7.9,1.1-11.2-3-9-11-10.4-11.2-22-2.6-.7.5-1.5,1-2.2,1.3-2,.6-2.8-.1-3.3-.9-.4-.6-.7-1.4.1-2.5s.2-.3.3-.4c2.2-2.4,4.6-4.4,7.2-6.1,6.8-4.4,13.7-3.7,19.4,2,1.2,1.2,2.3,2.6,3.6,4.5,2.9,4.3,6.4,3,8.2,1.9,1.8-1.1,3.9-2.2,6.2-3.2,6.4-2.9,10.9-2,14.8,2.9,4.1,5.1,9,7.3,15.4,6.8,1.5-.1,3.2,0,5,.3,2.5.4,2.5,2,2.5,2.6,0,.5-.1.9-.4,1.2Z"/>
        <path d="M1316.7,938c.3.7.2,1.7,0,2.4-.3,1.1-1,2.2-1.8,3.3-.5.8-1.1,1.6-1.6,2.5h0c0,.1,0,.3,0,.3-2.3,6.7-7,10.3-14.3,11.1-2.5.3-6.7,1.7-6.8,8v1.4c0,2.5,0,4.9-.3,7.3-.6,5.1-2.8,7.4-8,8.5-13.9,2.7-14.8,3.9-12.8,18.2.1.8.2,1.8,0,2.6-.4,2.1-1.4,2.4-2.4,2.5-.7,0-1.5,0-2.1-1.3s-.1-.3-.2-.5c-1-3-1.7-6.2-2-9.3-.7-8.1,3.2-13.9,11-16.2,1.6-.5,3.4-.8,5.6-1,5.1-.5,5.7-4.2,5.6-6.3-.1-2.1,0-4.4,0-7,.5-7,3.4-10.5,9.6-11.6,6.5-1.2,10.7-4.5,13.3-10.4.6-1.4,1.5-2.8,2.6-4.3,1.5-2,2.9-1.3,3.4-1,.4.2.7.5.9.9Z"/>
        <path d="M244.2,1025.3c-1.6-.2-2.8-1-3.6-2.7-2.9-5.8-6.9-10.7-11.8-14.5-2.1-1.6-2.4-3.6-.8-5.8,5.3-7.4,9.8-13.3,14.1-18.4.5-.6,1.2-.9,2.1-.9,2.3,0,5.2,1.9,5.8,4.7,1.3,6.5,3.6,11.4,7.5,15.5,1.3,1.3,1.4,2.8.4,4.5-3.1,5.1-6.6,10.9-10.7,16-.7.9-1.7,1.5-3,1.7ZM240.4,994.9c-.7.9-1.4,1.6-2,2.4-4.7,5.8-4.7,7,.2,12.6.9,1,1.7,2.1,2.7,3.3.5.6,1.1,1.3,1.7,2.1l2,2.4,1.7-2.6c.5-.7,1.1-1.4,1.7-2.1,1.9-2.1,4.4-4.9,2.4-9-1.1-2.3-2.4-4.6-3.8-7-.6-1-1.1-2-1.7-3.1l-1.6-2.9-3.3,3.9Z"/>
        <path d="M330.4,82.8c-1.6-.2-2.8-1-3.6-2.7-2.9-5.8-6.9-10.7-11.8-14.5-2.1-1.6-2.4-3.6-.8-5.8,5.3-7.4,9.8-13.3,14.1-18.4.5-.6,1.2-.9,2.1-.9,2.3,0,5.2,1.9,5.8,4.7,1.3,6.5,3.6,11.4,7.5,15.5,1.3,1.3,1.4,2.8.4,4.5-3.1,5.1-6.6,10.9-10.7,16-.7.9-1.7,1.5-3,1.7ZM326.6,52.4c-.7.9-1.4,1.6-2,2.4-4.7,5.8-4.7,7,.2,12.6.9,1,1.7,2.1,2.7,3.3.5.6,1.1,1.3,1.7,2.1l2,2.4,1.7-2.6c.5-.7,1.1-1.4,1.7-2.1,1.9-2.1,4.4-4.9,2.4-9-1.1-2.3-2.4-4.6-3.8-7-.6-1-1.1-2-1.7-3.1l-1.6-2.9-3.3,3.9Z"/>
        <path d="M246.6,598.1c-3,0-6-.6-8.7-1.9-6.1-2.8-9-8.4-7.6-14.8.6-2.9,2.1-5.5,4.9-8.5,3.7-4,8.9-6.6,16.4-8.1.3,0,.6,0,1,0,4.8,0,10.7,6.1,11.3,11.9,0,.4,0,.9,0,1.3,0,.3,0,.5,0,.8,0,4.7-1.5,9.4-4.5,13.8-2.4,3.5-7.3,5.7-12.9,5.7ZM250.7,570.9c-2.8,0-5.4,1.5-7.6,2.7l-.6.3c-.7.4-1.5,1-2.2,1.6-2,1.8-6.1,5.5-4.3,11,1.6,4.8,5.8,5.4,8.6,5.9.3,0,1,.2,1,.2h.2c.3,0,.6,0,.8,0,5.8,0,8.8-2.1,10.7-7.6v-.3c1.3-3.4,3.2-8.5-1.5-12.1-1.5-1.2-3.3-1.8-5.1-1.8Z"/>
        <path d="M675.3,1023.2c-3,0-6-.6-8.7-1.9-6.1-2.8-9-8.4-7.6-14.8.6-2.9,2.1-5.5,4.9-8.5,3.7-4,8.9-6.6,16.4-8.1.3,0,.6,0,1,0,4.8,0,10.7,6.1,11.3,11.9,0,.4,0,.9,0,1.3,0,.3,0,.5,0,.8,0,4.7-1.5,9.4-4.5,13.8-2.4,3.5-7.3,5.7-12.9,5.7ZM679.3,996c-2.8,0-5.4,1.5-7.6,2.7l-.6.3c-.8.4-1.5,1-2.2,1.6-2,1.8-6.1,5.5-4.3,11,1.6,4.8,5.8,5.4,8.6,5.9.3,0,1,.2,1,.2h.2c.3,0,.6,0,.8,0,5.8,0,8.8-2.1,10.7-7.6v-.3c1.3-3.4,3.2-8.5-1.5-12.1-1.5-1.2-3.3-1.8-5.1-1.8Z"/>
        <path d="M367.8,235.4c-.8,0-2.4-.3-5.2-2-21.1-12.4-42.3-24.8-63.4-37.2-1.5-.9-3-1.8-4.2-2.9-.9-.8-1.1-1.8-.6-2.9.2-.5.5-1.1,2.6-1.1s.8,0,1.2,0c.3.1,1,.6,1.5.9.4.2.8.5,1.2.7l9.1,5.3c18.4,10.8,36.9,21.6,55.3,32.5,3.7,2.2,4.4,3.8,4.6,4.4,0,.3,0,.8-.3,1.4-.4.6-.9.9-1.6.9Z"/>
        <path d="M1110.2,589.8c-5.3,0-9.3-2.3-12.4-7-2.9-4.4-2.6-8.9.9-14.2,2.2-3.2,4.8-6,7.9-8.3,2.5-1.9,5.5-3.8,8.5-3.8s2.4.3,3.5,1c5.1,2.9,7.9,7.3,7.9,12.4-.5,8.3-3.4,18.5-14.2,19.7-.7,0-1.4.1-2.1.1ZM1114.3,562.6c-2.1,0-3.6,1.4-4.7,2.4-.3.2-.5.5-.8.7-1.5,1.2-3,2.7-4.6,4.8-2,2.6-2.9,5-2.5,7.2.3,1.9,1.4,3.7,3.4,5.1,1.6,1.1,3.4,1.7,5.4,1.7h0c3.3,0,6.4-1.7,8.1-4.4,1.6-2.7,2.5-5.5,2.5-8.6.4-3.3-1.1-6.3-4-8.1-.9-.5-1.8-.8-2.8-.8Z"/>
        <path d="M1177.6,531.8c-.5,0-1-.2-1.6-.5-.5-.3-.8-.7-.9-1.2-.2-1,.2-2.5,1.2-3.9,1.8-2.7,4.1-5.8,6.6-8.6.9-1,2.1-2.6,1.9-4.5-.2-1.9-1.7-3.2-3-4.1-2.3-1.6-4.4-3.5-6.2-5.1-.3-.3-1.2-1.1-.4-3,.2-.4.4-.9,3-.9h0c1.2,0,2.5,1.2,3.9,2.4.6.5,1.2,1.1,1.9,1.6,2.5,1.9,3.9,3,5.6,3s3.4-1.4,5.7-4c.3-.3.6-.7.9-1,.9-1,1.8-2,2.8-2.8.8-.7,1.6-1.1,2.3-1.1s.7,0,1.3.6c.5.5,1.8,1.6.1,4-1.1,1.5-2.4,3.1-4.1,4.8-.5.5-2.1,2.1-1.9,4.2.1,1.4.9,2.6,2.5,3.7,2,1.4,4.1,3.1,6.5,5,2.4,2,1.7,3,1.2,3.8-.7,1.1-1.3,1.2-1.8,1.2s-1.5-.3-2.5-.8c-2.5-1.4-4.6-3-6.2-4.6-1.5-1.6-3-2.3-4.5-2.3-2.4,0-3.9,1.8-5,3.4-1.1,1.7-2.4,3.3-3.6,4.9-.9,1.2-1.8,2.3-2.7,3.5-1.7,2.3-2.7,2.3-3,2.3Z"/>
        <path d="M1297.5,910.4c-1.3,0-2.7-.2-4-.6-6.2-1.9-9.4-7.6-7.7-13.8,1.7-6.3,5.6-11.2,11.8-14.6,1.9-1,3.8-1.6,5.4-1.6,4.3,0,6.8,3.5,8.2,6.5.6,1.4.8,2.9,1,4.4.1.9.2,1.8.4,2.6,0,4.9-1.8,9.3-5,12.6-2.8,2.8-6.4,4.4-10.1,4.4ZM1297.7,887.9c-3.1,2.1-5.3,5-6.5,8.5-.8,2.4-.4,4.2.2,5.2.6,1.1,1.8,2.5,4.5,3.2.5.1,1,.2,1.6.2,3.4,0,7.1-2.6,8.7-6,1-2.1,1.1-3.8.4-5.4-.6-1.5-1.9-2.6-3.8-3.3,0,0-.2-.2-.2-.4-.5-.7-1.3-2-3-2.4l-1-.2-.8.6Z"/>
        <path d="M85,962.9c-6.1-.3-10.1-3.5-11-8.8-1.1-6.3,3-15,8.6-18.2,1.8-1,3.7-1.6,5.7-1.6s4.5.8,6.1,2.3c8.2,7.9,8.6,10.6,5.7,15.8-3.6,6.4-8.9,10.1-15,10.4ZM87.6,940.2c-4,0-8.1,6.2-8.2,10.8,0,1.2,0,3.5,1.5,5,.9,1,2.3,1.4,3.9,1.4,3,0,6.7-2.5,8.8-4.8,1.6-1.8,2.4-3.5,2.3-5-.2-2.6-5.6-7.4-8.3-7.4h0Z"/>
        <path d="M566.5,1010.6c-6.5,0-12.9-7-13.2-14.4-.2-6.9,6.4-13.2,14.1-13.5h.2c5.4,0,12.3,6.9,12.4,12.3,0,7.6-6.7,15.5-13.4,15.6h-.1ZM564.7,989.2c-3.3.5-5.5,2.9-5.8,6.6-.3,3.8,3.4,8.8,6.8,9.3.2,0,.4,0,.6,0,3.5,0,7.7-4.3,8.1-8.3.1-1.2-.6-2-.8-2.3-1.2-1.5-5.9-5.1-8.4-5.3h-.3s-.3,0-.3,0Z"/>
        <path d="M663.9,62.8c-6.5,0-12.9-7-13.2-14.4-.2-6.9,6.4-13.2,14.1-13.5h.2c5.4,0,12.3,6.9,12.4,12.3,0,7.6-6.7,15.5-13.4,15.6h-.1ZM662.1,41.4c-3.3.5-5.5,2.9-5.8,6.6-.3,3.8,3.4,8.8,6.8,9.3.2,0,.4,0,.6,0,3.5,0,7.7-4.3,8.1-8.3.1-1.2-.6-2-.8-2.3-1.2-1.5-5.9-5.1-8.4-5.3h-.3s-.3,0-.3,0Z"/>
        <path d="M457.7,236.5c-4.7,0-8.4-4.8-8.5-11,0-7.5,6-14.2,13.1-14.4h.1c5.3,0,10.3,6.1,10.4,12.7,0,3-1,5.8-3,7.9-2.7,2.9-7,4.6-12,4.7h-.2Z"/>
        <path d="M879.6,85.9c-5.9,0-10.5-5.1-10.6-11.6,0-8.1,3.9-13.3,10-13.4h.1c3.2,0,7,1.8,9.8,4.7,2.3,2.4,3.6,5.1,3.6,7.4-.1,6.2-6.7,12.9-12.9,13h0Z"/>
        <path d="M1000,128.3c-1.3,0-2.5-.3-3.8-.9-4.4-2.2-5.2-6.2-5.3-8.5,0-9.3,6.3-17,13.9-17,3.7,0,6.7,1.3,8.5,3.7,1.8,2.3,2.3,5.4,1.4,8.7-1.2,4.5-3.8,8.3-7.9,11.3-2.5,1.8-4.7,2.7-6.9,2.7ZM1004.3,107.6c-3.7,0-7.6,4.5-7.9,9.2v.3s0,.3,0,.3c0,.1,0,.3,0,.5,0,.7,0,1.7.5,2.6.4.7,1.4,1.9,3.6,1.9,3.7,0,9-6.6,9-10,0-1.2-.4-4.1-4.4-4.7-.3,0-.5,0-.8,0Z"/>
        <path d="M771.5,86.5c-1.3,0-1.7-.5-2-1-.7-1.2-.7-2.4,0-3.4.6-.9,1.5-1.7,2.6-2.6,13.2-10.2,26.2-20.1,38.4-29.5,1.1-.9,2.2-1.5,3.1-1.7.5-.1.9-.2,1.3-.2.8,0,1.4.3,1.9,1.1.4.7.6,1.6-.6,3-.6.7-1.4,1.3-2.3,1.9-.3.2-.5.4-.8.6-10,7.7-20,15.4-30,23.1-2.3,1.8-4.6,3.5-6.6,5.9-1.5,1.8-3.1,2.7-4.9,2.7h-.2Z"/>
        <path d="M926.8,58.6c-.4,0-.9-.2-1.4-.5-.8-.6-1.8-1.4.9-5.3.3-.4.5-.7.8-1.1.2-.2.3-.4.5-.7,4.1-5.4,3.9-6.8-1.3-11.3h0c-2.3-2-2-3-1.4-4,.6-1.1,1.2-1.2,1.7-1.2s1.3.2,2.3.6c.5.2,1,.4,1.4.7,1.8,1.5,3.4,2.2,5.1,2.2s4.3-1.3,6-4c.2-.4.7-.8,1.2-1.2l.3-.2c1-.8,1.9-1.3,2.7-1.3s.9,0,1.7.9c.6.6,1.5,1.4-.5,3.9-.7.9-1.6,1.8-2.4,2.7-.4.4-.8.9-1.2,1.3l-1.3,1.4,1.1,1.5c1.5,2,3.5,3.4,5.2,4.5.9.6,1.8,1.2,2.6,1.9,2.3,2.1,1.8,3.2,1,4.2-.6.8-1.2,1-1.6,1-.6,0-1.4-.3-2.4-.9-1.9-1.2-3.9-2.6-6.2-4.3-1.1-.8-2.1-1.2-3.1-1.2s-2.7.8-3.8,2.3c-1.2,1.8-2.6,3.5-4,5.1-1.5,1.8-2.9,2.8-3.9,2.8Z"/>
        <path d="M312,338.6c-.4,0-.9-.2-1.4-.5-.8-.6-1.8-1.4.9-5.3.3-.4.5-.7.8-1,.2-.2.3-.4.5-.7,4.1-5.4,3.9-6.8-1.3-11.3h0c-2.3-2-2-3-1.4-4,.6-1.1,1.2-1.2,1.7-1.2s1.3.2,2.3.6c.5.2,1,.4,1.4.7,1.8,1.5,3.4,2.2,5.1,2.2s4.3-1.3,6-4c.2-.4.8-.8,1.3-1.2l.2-.2c1-.8,1.9-1.3,2.7-1.3s.9,0,1.7.9c.6.6,1.5,1.4-.5,3.9-.7.9-1.6,1.8-2.4,2.7-.4.4-.8.9-1.2,1.3l-1.3,1.4,1.1,1.5c1.5,2,3.5,3.4,5.2,4.5.9.6,1.8,1.2,2.6,1.9,2.3,2.1,1.8,3.2,1,4.2-.6.8-1.2,1-1.6,1-.6,0-1.4-.3-2.4-.9-1.9-1.2-3.9-2.6-6.2-4.3-1.1-.8-2.1-1.2-3.1-1.2s-2.7.8-3.8,2.3c-1.2,1.8-2.7,3.6-4,5.1-1.5,1.8-2.9,2.8-3.9,2.8Z"/>
        <path d="M916.7,378.4c-.4,0-.9-.1-1.5-.4-.9-.5-1.5-1.1-.5-4.2.3-.9.8-1.8,1.4-2.7.3-.5.5-.9.8-1.4.2-.5.6-1,.9-1.5.9-1.4,2-3.1,2-5,0-3.2-2.8-4.1-4.3-4.6-.5-.2-1.1-.4-1.3-.6-1.5-1.1-1.8-2.4-.9-4.1.6-1.1,1.4-1.7,2.3-1.7s1,.2,1.5.5c1.5,1,3.5,2.2,5.8,2.2s3.9-.9,6-2.8c.4-.4,1-.5,1.4-.5,1.3,0,2.5.7,2.9,1.4.4.6.7,1.5.5,2.3-.2.7-1,1.3-1.6,1.6-.6.3-2.6,1.3-2.9,3.4-.3,2.1,1.3,3.6,2.2,4.5,2,2,3.8,3.8,5.5,5.5,2,2.1,1.5,3.4.7,4.5-.5.6-1,.7-1.3.7-.5,0-1.6-.2-3.3-1.7-1.3-1.1-2.5-2.2-3.8-3.6-.7-.6-1.3-1.3-2.1-2l-2.1-2-1.4,2.5c-.5.9-1,1.7-1.5,2.5-1,1.7-1.9,3.3-2.9,4.9-.6.9-1.5,2-2.6,2Z"/>
        <path d="M162.6,1039.5c-.5,0-1.1-.3-1.6-.8-.6-.5-1.8-1.7.6-4.2,2.3-2.5,4.9-5.1,8.2-8.1,5.2-4.7,10.4-9.4,15.5-13.9,2.6-2.3,5.2-4.6,7.7-6.9,1-.9,1.8-1.3,2.7-1.3s.9.1,1.4.4c.5.2.9.6,1.1,2-.3,1.2-.9,2.3-1.9,3.2-3.6,3.3-7.3,6.6-10.9,9.7-6.7,5.9-13.6,12-20.1,18.5-.9.9-1.9,1.4-2.6,1.4Z"/>
        <path d="M1109.8,106.4c-.4,0-1-.1-1.7-1-.5-.6-.7-1.2-.7-1.8,0-.8.6-1.6,1.6-2.4,5.2-4.3,10.8-8.4,16.1-12.4h.2c4.7-3.6,9.3-6.9,14.9-10.9.7-.5,1.4-.7,2-.7s1.1.2,1.7.6c.6.4.8,1,.8,1.2-.1,1.9-.9,2.8-2.3,3.8-10,7.4-20,14.9-30,22.3-1,.8-1.9,1.2-2.6,1.2Z"/>
        <path d="M1264.6,732.8c-.5,0-1.2-.1-2-1.2-.3-.4-1.1-1.5.4-3.4,1.2-1.5,2.9-2.6,4.6-3.7.5-.3.9-.6,1.4-.9,2.9-1.9,5.8-3.9,8.7-5.8,5.3-3.6,10.8-7.2,16.2-10.8.8-.5,1.8-.8,2.6-.8s1.5,0,2,1c.4.8,1.2,2.4-1.5,4.2-3,2-6.2,4.1-9.2,6-7.1,4.6-14.4,9.3-21.1,14.8,0,0,0,0-.1,0-.2,0-.3.1-.5.2-.6.3-1.1.4-1.6.4Z"/>
        <path d="M52.4,729.2c-6.6,0-11.9-4.3-11.9-9.8,0-4.8,3.7-8.7,8.6-8.8h.2c6,0,10.4,4.5,10.5,10.8,0,4.9-2.4,7.7-7,7.8h-.3Z"/>
        <path d="M1274.6,478.4c-6.6,0-11.9-4.3-11.9-9.8,0-4.8,3.7-8.7,8.6-8.8h.2c6,0,10.4,4.5,10.5,10.8,0,4.9-2.4,7.7-7,7.8h-.3Z"/>
        <path d="M633.2,270.8c-2.7,0-5.1-1-6.9-2.8-1.7-1.7-2.6-4-2.6-6.4,0-5.2,3.7-9.3,8.2-9.3,6.4,0,9.9,3.5,9.9,9.9,0,2.4-.8,4.7-2.4,6.2-1.6,1.6-3.8,2.4-6.2,2.4h0Z"/>
        <path d="M184.4,237c-5.2,0-9.6-4.4-9.6-9.4,0-4.8,4.1-8.3,9.7-8.4h.1c5.6,0,9.3,3.4,9.4,8.4,0,2.2-1,4.5-2.9,6.4-1.9,1.9-4.3,3-6.6,3h0Z"/>
        <path d="M962.5,217.1c-4.2-.2-7.6-4.3-7.5-9.2,0-4.3,3.8-8.3,7.8-8.3,4.3,0,9.9,5.1,9.9,8.9,0,1.8-.9,3.7-2.5,5.3-2,2-4.8,3.3-7.4,3.3s-.2,0-.3,0Z"/>
        <path d="M236.2,508.3c-4.2-.2-7.6-4.3-7.5-9.2,0-4.3,3.8-8.3,7.8-8.3,4.3,0,9.9,5.1,9.9,8.9,0,1.8-.9,3.7-2.5,5.3-2,2-4.8,3.3-7.4,3.3s-.2,0-.3,0Z"/>
        <path d="M445.4,453.1c-4.2-.2-7.6-4.3-7.5-9.2,0-4.3,3.8-8.3,7.8-8.3,4.3,0,9.9,5.1,9.9,8.9,0,1.8-.9,3.7-2.5,5.3-2,2-4.8,3.3-7.4,3.3s-.2,0-.3,0Z"/>
        <path d="M472.1,1043c-.8,0-1.4-.4-1.9-.9-.5-.6-.6-1.5-.3-2.3.3-1.1,1.2-2,2.3-3,1.9-1.8,3.8-3.6,5.7-5.4,3.6-3.5,7.2-6.9,10.9-10.3.9-.9,1.9-1.7,2.9-2.1.4-.2.8-.3,1.2-.3.7,0,1.2.3,1.7.9.5.6.8,1.3,0,2.7-.2.5-.5,1-.8,1.2-6.3,6.1-12.6,12.1-18.9,18.1l-.4.4c-.6.6-1.5,1-2.5,1.2Z"/>
        <path d="M1156.4,303.7c-2.8-.1-3-.9-3.2-1.7-.4-1.5,0-2.5,1.2-3.2.7-.4,1.6-.8,2.4-1,7.9-2,15.7-3.9,21.5-5.3.7-.2,1.4-.3,2-.3h.1c2.4,0,2.7,1.2,2.8,1.8.2.7.4,2.3-1.2,2.7-6.5,1.9-13,3.6-19.3,5.3-2.2.6-4.4,1.2-6.6,1.7Z"/>
        <path d="M27.7,924.7c0,0-.2,0-.3,0-10.3-2.6-19.5-7.6-27.1-12.2-.4-.2-.4-1.3,0-2.3.2-.5.5-1.1,2.6-1.1h.1c0,0,.2,0,.3,0,.5.1,1.2.3,1.7.5,7.6,3.4,14.6,6.6,21.3,9.7,1.1.5,1.7,1,2.1,1.6.7,1,.5,2.3.1,3-.1.2-.4.7-.9.7Z"/>
        <path d="M105.9,108.5c-1.5,0-2.1-1.4-2.2-2.3-1.6-7.8-5.8-13.3-12.9-16.9-4-2-4.8-6.5-5.2-11.1-.3-3.8-1.4-7.5-7.7-7.8-5.1-.3-7.4-2.7-8.2-8.4,0-.4,0-.8-.1-1.2,0-.5,0-1-.2-1.5-1.4-10-2.2-10.7-12.5-11.8-3.4-.4-5.8-1.5-7.2-3.3-1.4-1.8-1.9-4.5-1.3-7.9.5-3,1.5-5.8,3.3-8.3,1-1.5,2.2-2.2,3.6-2.4.9,0,1.6.4,2,1.1.3.4.6,1.2,0,2.4-.3.7-.8,1.4-1.3,2.1-1.4,2.2-3.4,5.2-1.8,8.4,1.6,3.1,4.9,3.1,6.4,3.1s.8,0,1.2,0c.4,0,.7,0,1.1,0s1.1,0,1.6.1c5,1.1,7.8,3.9,9,9,.2.8.3,1.6.4,2.4.3,4.7.8,11.8,10.7,12.1,4.9.1,5.6,6.7,5.7,8,.5,7,3.1,11.2,8.7,14.3,5.3,2.9,8.3,8.1,9.4,16.4.4,2.8-.6,3.2-1.8,3.5-.3,0-.6.1-.8.1Z"/>
        <path d="M51.2,245.8c-1.8,0-3.6-.2-5.6-.6-1.7-.4-4.6-1.3-4.2-3.4.2-.9.3-2,3.7-2s.9,0,1.4,0c.3,0,.7,0,1,.1h.6c.9.2,1.8.3,2.8.3,3.5,0,6.9-1,10-3,3.1-2,6-3,8.7-3s4.5.7,6.7,2c1.1.7,2.2,1,3.3,1s2.6-.5,3.9-1.6c2.6-2.2,5.5-3.2,8.7-3.2s5.2.6,8.4,1.9c2.9,1.1,4.9,1.9,6.7,1.9,3.1,0,4.7-2,7.7-5.8,3.4-4.2,6.7-6.3,10.2-6.3s2.7.3,4.2.9c1.5.6,2.7,1.5,3.7,2.6,1.5,1.7,1.1,2.8.4,3.7-.5.6-1.1,1-1.7,1s-.8-.1-1.1-.4c-1.8-1.3-3.4-2-5.1-2-3.5,0-5.7,2.9-7.2,4.9-4.3,5.6-6.6,7.4-9.6,7.4s-4.5-.7-8.6-2.4c-2.8-1.2-5.1-1.7-7.2-1.7-3.1,0-5.9,1.1-8.6,3.5-1.3,1.1-2.7,1.7-4.2,1.7s-2.3-.4-3.5-1.1c-2.3-1.5-4.6-2.2-6.9-2.2s-5.1.9-7.9,2.7c-3.1,2-6.6,3-10.5,3Z"/>
        <path d="M114.7,168.3c-6.1-.3-10.1-3.5-11-8.8-1.1-6.3,3-15,8.6-18.2,1.8-1,3.7-1.6,5.7-1.6s4.5.8,6.1,2.3c8.2,7.9,8.6,10.6,5.7,15.8-3.6,6.4-8.9,10.1-15,10.4ZM117.2,145.5c-4,0-8.1,6.2-8.2,10.8,0,1.2,0,3.5,1.5,5,.9,1,2.3,1.4,3.9,1.4,3,0,6.7-2.5,8.8-4.8,1.6-1.8,2.4-3.5,2.3-5-.2-2.6-5.6-7.4-8.3-7.4h0Z"/>
        <path d="M57.3,130c0,0-.2,0-.3,0-10.3-2.6-19.5-7.6-27.1-12.2-.4-.2-.4-1.3,0-2.3.2-.5.5-1.1,2.6-1.1h.1c0,0,.2,0,.3,0,.5.1,1.2.3,1.7.5,7.6,3.4,14.6,6.6,21.3,9.7,1.1.5,1.7,1,2.1,1.6.7,1,.5,2.3.1,3-.1.2-.4.7-.9.7Z"/>
        <path d="M1235,103.5c1.5,0,2.1-1.4,2.2-2.3,1.6-7.8,5.8-13.3,12.9-16.9,4-2,4.8-6.5,5.2-11.1.3-3.8,1.4-7.5,7.7-7.8,5.1-.3,7.4-2.7,8.2-8.4,0-.4,0-.8.1-1.2,0-.5,0-1,.2-1.5,1.4-10,2.2-10.7,12.5-11.8,3.4-.4,5.8-1.5,7.2-3.3,1.4-1.8,1.9-4.5,1.3-7.9-.5-3-1.5-5.8-3.3-8.3-1-1.5-2.2-2.2-3.6-2.4-.9,0-1.6.4-2,1.1-.3.4-.6,1.2,0,2.4.3.7.8,1.4,1.3,2.1,1.4,2.2,3.4,5.2,1.8,8.4-1.6,3.1-4.9,3.1-6.4,3.1s-.8,0-1.2,0c-.4,0-.7,0-1.1,0s-1.1,0-1.6.1c-5,1.1-7.8,3.9-9,9-.2.8-.3,1.6-.4,2.4-.3,4.7-.8,11.8-10.7,12.1-4.9.1-5.6,6.7-5.7,8-.5,7-3.1,11.2-8.7,14.3-5.3,2.9-8.3,8.1-9.4,16.4-.4,2.8.6,3.2,1.8,3.5.3,0,.6.1.8.1Z"/>
        <path d="M1247.7,265.8c1.8,0,3.6-.2,5.6-.6,1.7-.4,4.6-1.3,4.2-3.4-.2-.9-.3-2-3.7-2s-.9,0-1.4,0c-.3,0-.7,0-1,.1h-.6c-.9.2-1.8.3-2.8.3-3.5,0-6.9-1-10-3-3.1-2-6-3-8.7-3s-4.5.7-6.7,2c-1.1.7-2.2,1-3.3,1s-2.6-.5-3.9-1.6c-2.6-2.2-5.5-3.2-8.7-3.2s-5.2.6-8.4,1.9c-2.9,1.1-4.9,1.9-6.7,1.9-3.1,0-4.7-2-7.7-5.8-3.4-4.2-6.7-6.3-10.2-6.3s-2.7.3-4.2.9c-1.5.6-2.7,1.5-3.7,2.6-1.5,1.7-1.1,2.8-.4,3.7.5.6,1.1,1,1.7,1s.8-.1,1.1-.4c1.8-1.3,3.4-2,5.1-2,3.5,0,5.7,2.9,7.2,4.9,4.3,5.6,6.6,7.4,9.6,7.4s4.5-.7,8.6-2.4c2.8-1.2,5.1-1.7,7.2-1.7,3.1,0,5.9,1.1,8.6,3.5,1.3,1.1,2.7,1.7,4.2,1.7s2.3-.4,3.5-1.1c2.3-1.5,4.6-2.2,6.9-2.2s5.1.9,7.9,2.7c3.1,2,6.6,3,10.5,3Z"/>
        <path d="M1211.3,152.9c-2.9-5.2-2.5-7.9,5.7-15.8,1.5-1.5,3.7-2.3,6.1-2.3s3.9.5,5.7,1.6c5.6,3.2,9.6,11.9,8.6,18.2-.9,5.3-4.9,8.5-11,8.8-6.1-.3-11.4-4-15-10.4ZM1223.7,140.5h0c-2.7,0-8.1,4.7-8.3,7.4-.1,1.5.6,3.2,2.3,5,2.1,2.3,5.8,4.8,8.8,4.8,1.7,0,3-.5,3.9-1.4,1.5-1.5,1.5-3.8,1.5-5,0-4.6-4.1-10.7-8.2-10.8h0Z"/>
        <path d="M1237.9,339.3c0,0,.2,0,.3,0,10.3-2.6,19.5-7.6,27.1-12.2.4-.2.4-1.3,0-2.3-.2-.5-.5-1.1-2.6-1.1h-.1c0,0-.2,0-.3,0-.5.1-1.2.3-1.7.5-7.6,3.4-14.6,6.6-21.3,9.7-1.1.5-1.7,1-2.1,1.6-.7,1-.5,2.3-.1,3,.1.2.4.7.9.7Z"/>
        <path d="M340.9,261.5c-.4,0-.9,0-1.4-.2-7.7-2.3-15.2-4.9-22.5-7.5-1.8-.6-2.5-1.7-2.2-3.5.1-.7.2-1.4,3-1.6.7.2,1.5.5,2.3.7,2.2.7,4.5,1.3,6.8,2.1l1.6.5c4.1,1.3,8.4,2.7,12.5,4.3,3,1.1,2.3,3,2.1,3.7-.4,1.1-1,1.6-2.2,1.6Z"/>
        <path d="M1167.8,989.7c5.5,0,9.4,3.1,9.5,7.9,0,5.5-5.2,10.4-11.4,10.6-5.1.2-9.3-3.4-9.5-8-.2-5.5,5.1-10.3,11.4-10.4Z"/>
        <path d="M207.5,331.4c-.5,0-1-.2-1.4-.3-5.3-2.1-11-4.4-17.6-7-3.6-1.5-3.1-2.9-2.7-3.9.5-1.3,1.1-1.6,2-1.6s1.6.2,2.6.6c6.5,2.4,13,5.1,18.5,7.5,2.1.9,2.1,2.3,1.9,3.2-.1.7-.3,1.5-2.9,1.7-.1,0-.3,0-.4,0Z"/>
        <path d="M936.5,457.4c-5.6,0-11.7,0-18.6,0-3.9,0-4-1.6-4-2.6,0-1.2.3-1.6.5-1.7.5-.6,1.8-.9,3.4-.9,2.2,0,4.4,0,6.6,0,4.6,0,9.1,0,13.4.2,2.3,0,2.8,1.3,2.9,2.3.1.7.3,1.6-2,2.6-.1,0-.3,0-.4,0-.5,0-1,.2-1.4.2h-.3Z"/>
        <path d="M433.3,294.9c-5.6,0-11.7,0-18.6,0-3.9,0-4-1.6-4-2.6,0-1.2.3-1.6.5-1.7.5-.6,1.8-.9,3.4-.9,2.2,0,4.4,0,6.6,0,4.6,0,9.1,0,13.4.2,2.3,0,2.8,1.3,2.9,2.3.1.7.3,1.6-2,2.6-.1,0-.3,0-.4,0-.5,0-1,.2-1.4.2h-.3Z"/>
        <path d="M957.6,1023.6c0-.6.3-1.4.9-2.2,1.7-2.5,3.5-4.9,5.3-7.4,2-2.8,4-5.6,6-8.5,1.9-2.6,2.7-2.8,4.1-2.2.3.1,1,.5,1,2,0,1-.3,2.2-.8,3.5-3.4,5.4-7.5,10.8-11.7,15.8-1.2,1.4-2.5,1.6-3.8.6-.9-.7-1-1.3-1-1.7Z"/>
        <path d="M847.6,981.2c-.5.7-1.6,1-2.4,1.1-3,.4-6,.8-9,1.2-3.4.4-6.9.9-10.3,1.4-3.2.4-3.9,0-4.4-1.5-.2-.6-.1-1,.3-1.6.6-.8,1.9-1.7,3.6-2.3,6.2-1.2,13-1.9,19.6-2.2,1.9,0,2.9.7,3,2.3,0,.7,0,1.3-.4,1.6Z"/>
        <path d="M899.5,256.2c-.5.7-1.6,1-2.4,1.1-3,.4-6,.8-9,1.2-3.4.4-6.9.9-10.3,1.4-3.2.4-3.9,0-4.4-1.5-.2-.6-.1-1,.3-1.6.6-.8,1.9-1.7,3.6-2.3,6.2-1.2,13-1.9,19.6-2.2,1.9,0,2.9.7,3,2.3,0,.7,0,1.3-.4,1.6Z"/>
        <path d="M1054.1,31.3c-.3,0-.7,0-1.1-.3-.6-.3-2-1.2-1.5-2.8,2.1-6.5,4.8-12.5,8-17.7.3-.6.9-.9,1.6-.9s.7,0,1,.2c.8.3,1.6.8,1.5,3.3l-.7,1.7c-2.1,5.1-4.3,10.5-7.1,15.4-.2.4-.8,1.1-1.7,1.1Z"/>
        <path d="M328.2,478.9c-.4,0-.8,0-1.2-.3-.5-.2-1.4-.6-1.1-2.8,0-.8.4-1.6,1-2.4l.8-1c2.6-3.4,5.3-7,8.1-10.3.5-.7,1.4-1.5,2.5-1.5s1.2.2,1.8.7c1.5,1.2.9,2.7,0,3.8-3,4.1-6.4,8.3-10.3,13-.5.6-1.1.9-1.7.9Z"/>
        <path d="M350.2,452.8c-.8,0-1.6-.4-2-1.2-.2-.4-.6-1.3,0-2.4,3.1-5.4,7.9-9.7,12.2-13.1.3-.2.6-.4,1-.4.6,0,1.2.3,1.7.8.3.3.8.9.8,1.7-.7,2.7-10.9,13.6-13.5,14.5,0,0,0,0-.1,0Z"/>
        <path d="M335.3,450.6c-.7,0-1.5-.4-2.4-1.1-3-2.3-6.5-5.1-9.3-8.2-.9-1-1-2-.4-3.1.5-.9,1.2-1,1.4-1,1.9,0,2.5.4,2.9.8.8.7,1.7,1.5,2.6,2.2,2.1,1.8,4.2,3.6,6.2,5.5,2.2,2.1,1.1,3.4.8,3.9-.8,1-1.4,1.1-1.8,1.1Z"/>
        <path d="M363.4,475.7c-.4,0-.7,0-1.1-.3-3.8-1.9-7.2-5-10.1-9.1-.5-.8-.4-1.5-.2-1.9.3-.6,1-1.2,2.1-1.3,2.6,0,11.1,7.7,11.3,10.1,0,.8-.2,1.4-.7,1.9-.3.3-.7.6-1.4.6Z"/>
        <path d="M210.7,1038.1c-.4,0-.8-.1-1.2-.4-1.5-.9-1.5-1.7-1.3-2.5,1.1-4.1,3-7.8,5.5-10.9.6-.7,1-.8,1.4-.8s.8.1,1.3.4c.8.4,1.4.9,1.2,2.9-1.5,3.6-3,7.3-5.5,10.4-.4.5-.9.8-1.4.8Z"/>
        <path d="M974.1,947.8c5.4,1.6,11.3-.2,16.8,1.9,1.1.4,2.8.5,2.3,2.3-.4,1.3-1.8,1.1-2.9.8-15.1-4.1-29-.4-42.8,5.6-1.7.7-4.5,3-5.4.8-1.2-2.8,2.6-2.9,4.4-3.6,8.8-3.9,18-6.4,27.7-7.8Z"/>
        <path d="M696,657.5c-3,3.3-6.7,3.2-9.9,3.6-10.2,1.4-19.4-1.3-27.9-7-.5-.3-1-.5-1.4-.9-.8-.7-2-1.4-1.1-2.7.6-.9,1.7-.4,2.5,0,1.4.8,2.9,1.6,4.3,2.5,8.8,5.9,18.5,5.7,28.3,4,1.5-.3,2.9-.6,5.2.4Z"/>
        <path d="M244.7,661.2c-7.3,3.4-15,5.5-23.1,4.2-5.2-.8-10.3-2.9-15.1-5.2-.8-.4-1.9-.7-1.4-1.9.4-1,1.3-1.1,2.3-.7,1.4.5,2.8.8,4.2,1.5,8.8,4.2,17.7,4.5,26.9,1.6,2.1-.7,4.1-1,6.2.5Z"/>
        <path d="M626,953.4c-2.7,2.1-5.3,0-7.7-.6-10.2-2.3-19.7-.6-29.1,3.5-1,.4-2.2,2.1-3.3.3-1.2-2,.9-2.5,2.1-3,11.6-5.6,23.6-6.3,35.9-2.5.7.2,1.3.7,1.8,1.2.2.2.2.7.3,1.1Z"/>
        <path d="M118.7,841.9c.2,2.3-1.2,3.9-2.1,5.7-1.6,2.9-3.7,5.6-3.5,9.2,0,1-.4,2-1.5,2-1.3,0-1.9-1.1-1.8-2.3.2-3.2,1.6-6,3.2-8.8,3.8-6.5,3.8-6.8-1.8-11.5-2.9-2.4-5.3-5.1-7-8.5-.5-1-1-2.2.3-2.9,1.1-.6,1.6.4,2,1.3,2.1,4.1,5.6,6.9,8.8,9.9,1.7,1.6,3.8,3.2,3.3,5.9Z"/>
        <path d="M1181.1,787.4c1.1,0,1.9.5,1.6,1.7-.3,1.2-.8,2.4-1.3,3.6-2.8,6.1-2.3,11.8,1.6,17.2,2.3,3.2,2.3,6.9,2,10.6,0,1.1-.6,1.8-1.7,1.7-1.2,0-1.7-.9-1.5-1.9,1-5-1.5-8.9-3.6-13-3.3-6.4-.8-12.5,1.3-18.6.3-.8.9-1.1,1.6-1.3Z"/>
        <path d="M1180,755.7c.1,1.3-1.7,1.9-2.4.7-1.7-2.8-4.3-4.5-7.6-5.9-2.4-1-2.5-3.6-.9-5.7,2.8-3.7,6.7-5.8,10.8-7.4,1-.4,2.3-.4,2.7,1,.3,1.4-.6,2-1.8,2.1-2.9.4-5,2.3-7.2,4-3,2.3-2.9,3,.6,4.9,3.7,2,5.5,3.6,5.7,6.3Z"/>
        <path d="M1036,656.7c-4.7.3-8.4-1.7-12-4.1-1.8-1.2-3.1-3.2-5.4-3.7-1.2-.3-1.4-1.1-.9-2.1.4-.9,1.3-1.5,2.3-.9,1.4.8,2.9,1.7,4.1,2.9,5.6,5.2,12,5.9,19,3.5,1.7-.6,4.4-2.6,5.2,0,.8,2.7-2.8,2.2-4.4,2.8-2.5.9-5.1,2.2-7.8,1.7Z"/>
        <path d="M1073.3,948.8c9.2-7.7,22.9-7.6,31.1-.2.7.6,1.5,1.2.8,2.2-.7,1-1.6.5-2.4,0-.5-.3-1-.4-1.5-.7-7-5.6-14.4-4.5-22-1.7-1.8.6-3.6,2.3-6.1.4Z"/>
        <path d="M433.3,665.9c-5.5.9-9.2-2.1-13-4.7-.9-.6-1.1-1.5-.6-2.4.6-1,1.5-.9,2.3-.3.3.2.7.3,1,.5,5.1,5.5,11.1,4.6,17.4,2.6,2.4-.8,5-1.4,7.4-2.2,1.3-.4,2.8-1,3.4.4.7,1.6-.9,2.1-2.2,2.4-5.3,1.6-10.5,3.5-15.7,3.6Z"/>
        <path d="M562.5,660.1c-8.2-1.5-16.4-2.6-24.2-5.5-.8-.3-1.6-.8-2.4-1.3-.6-.4-1.4-.8-1-1.7.4-1,1.2-1.2,2.2-.7,6.1,2.8,12.6,3.6,19.1,5.1,2.2.5,4.4.6,6.6.8,1.2,0,3-.4,3,1.5,0,2.3-1.9,1.6-3.3,1.9Z"/>
        <path d="M307.2,960.6c-.9-1.1-1.1-1.9-.6-2.5,2.6-3.9,13.2-7.2,17.6-5.6,3.1,1.2,5.9,3.1,8.6,4.9.9.6,2.1,1.4,1.5,2.6-.7,1.3-1.9.5-2.9,0-.6-.4-1.3-.8-1.8-1.2-6.5-5.3-12.9-4.2-19.4,0-.9.6-1.9,1.2-2.9,1.9Z"/>
        <path d="M227.9,948.4c3.9-.2,6.6,2,9.4,4.2.7.5,1.4,1.4.5,2.3-.6.6-1.4.4-2.1.2-.2,0-.3-.2-.5-.3-7-6.5-13.6-2.3-20.3.8-.7.3-1.2.8-1.9,1.2-.8.6-1.8.9-2.4,0-.6-.9.2-1.7.9-2.3,4.7-3.9,10.3-5.6,16.3-6Z"/>
        <path d="M723.7,946.3c5.2-.3,9.5,2.1,14.1,3.3,1,.2,1.8.7,1.4,1.9-.3.8-1.1.9-1.8.7-2.3-.5-4.8-.7-7-1.6-4.9-2-9.7-1.8-14.3.6-1.2.6-2.8,1.5-3.5.2-.9-1.8,1.2-2.2,2.4-2.9,2.8-1.6,5.7-2.5,8.7-2.1Z"/>
        <path d="M125.4,743.6c-.1.6,0,1.9-.5,2.7-.6,1.1-.2,3.5-2.5,2.8-1.9-.6-.6-2.1-.5-3.2.5-3.6,0-6.8-3.2-9.3-2.4-1.8-3.3-4.8-4.7-7.4-.4-.8-.9-1.7.2-2.3.8-.5,1.7,0,1.9.5,2.1,4.6,6.1,7.7,8.7,11.9.7,1.2.5,2.5.6,4.3Z"/>
        <path d="M1193,865c.3,3.1-1.4,6-3.1,8.8-.4.7-1.1,1.1-1.9.8-1.1-.4-1-1.4-.6-2.3.3-.8.9-1.6,1.3-2.4,2.5-5.6,1.5-9.5-3.5-12.7-1.1-.7-2.7-1.3-1.8-2.7.7-1.3,2.1-.8,3.4,0,3.7,2.5,6.5,5.4,6.4,10.7Z"/>
        <path d="M82,627.5c1,0,1.5.9,2.1,1.6,3.7,4.6,7.5,9.1,11.2,13.6.6.7,1.4,1.5.4,2.3-1,.8-2.1.5-2.9-.5-3.8-4.7-7.6-9.5-11.3-14.2-.6-.7-1.2-1.5-.5-2.4.2-.2.6-.3,1-.4Z"/>
        <path d="M857.6,148.6c-2.4-.3-4.2-1.4-4.3-4-.1-2.6,1.3-4.3,3.8-4.5,2.5-.2,4.2,1.4,4.4,3.9.2,2.6-1.3,4-3.9,4.6Z"/>
        <path d="M1009.7,961.5c-.2.3-.3,1-.7,1.2-.4.2-1.2,0-1.5-.2-2-1.9-4.1-3.6-6.9-4.3-.8-.2-1-1-1-1.8,0-.7.4-1,.9-1.2,2-.7,8.9,3.8,9.1,6.2Z"/>
        <path d="M581.5,693.8c-.4,0-1.1-.1-1.8-1.1-.7-1-1.1-1.9,1.1-3.9,1-.9,2.2-1.7,4-2.5,10.6-4.5,22-7.4,32-10,.3,0,.7-.2,1-.2h.2c2.2.2,2.6.9,2.8,1.7.3.9.3,2-1.4,3-1.2.6-2.6,1-4.1,1.5-1.9.5-3.6,1-5.4,1.5-8.9,2.4-18.1,4.9-26.6,9.5-.6.3-1.2.5-1.7.5Z"/>
        <path d="M266.4,693.6c-.5,0-1-.3-1.6-.9-.9-1-1.3-2,0-3.6.3-.4.7-.8,1.1-1.1,6.4-4.6,13.5-8,21.2-10,.7-.2,1.6-.3,2.6-.3s1.1,0,1.6,0c1.1,0,1.9.5,2.2,2.2-.1,1.8-1.2,2.3-2,2.5-8.2,1.8-16.1,5.4-23.4,10.6-.5.4-1,.6-1.4.6Z"/>
        <path d="M450.7,941.3c-5-.5-8.9-2.6-11.5-6.9-.6-1.1-1.1-1.9,0-2.9,1.4-1.1,1.9,0,2.5.9,3.1,5.1,7,6.4,13.1,5.1,9.1-2,17.3-6.2,26.3-8.3,1.5-.3,3.4-2.2,4.1.3.7,2.5-2.1,2-3.5,2.4-9.7,2.9-18.7,7.7-28.9,8.8-.7,0-1.4.3-2.1.5Z"/>
        <path d="M1025.7,937.4c-5-.5-8.9-2.6-11.5-6.9-.6-1.1-1.1-1.9,0-2.9,1.4-1.1,1.9,0,2.5.9,3.1,5.1,7,6.4,13.1,5.1,9.1-2,17.3-6.2,26.3-8.3,1.5-.3,3.4-2.2,4.1.3.7,2.5-2.1,2-3.5,2.4-9.7,2.9-18.7,7.7-28.9,8.8-.7,0-1.4.3-2.1.5Z"/>
        <path d="M147.3,875.9c3.1,3.3,3.5,7,3.2,10.9-.3,4.1-1.3,7.9-2.7,11.8-2.3,6.5-1.1,8.8,5,12,1.8,1,4.6.7,5.2,3.5-7.5,1.6-15.3-5.7-14-12.8.4-2.2.9-4.3,1.8-6.4,2-4.8,2.8-9.5.9-14.6-.4-1.1-.9-2.5.5-4.5Z"/>
        <path d="M727.3,681.3c7.4-7.1,27.6-7.2,36.3,0-7-.2-12.5-2.6-18.4-2.4-5.8.2-11.3,2.5-17.9,2.4Z"/>
        <path d="M1071.2,681.3c7.4-7.1,27.6-7.2,36.3,0-7-.2-12.5-2.6-18.4-2.4-5.8.2-11.3,2.5-17.9,2.4Z"/>
        <path d="M873.2,671.3c5.1-.4,9.5,1.6,14,3.2,1.1.4,2.3.7,1.9,2.1-.6,2.1-1.9.9-3,.5-7.4-3-14.9-3.9-22.6-1.3-.9.3-1.7.5-2.6.9-1,.4-2.1,2.4-3,.3-.8-1.7.5-2.9,2.1-3.3,4.4-1.2,8.8-2.8,13.3-2.3Z"/>
        <path d="M179.5,683.6c-4.8,0-9-.6-12.9.1-5.4,1-10.8,2.6-14.6,7.2-.7.9-1.7,2.5-3.1,1.2-1.1-1.1,0-2.4.9-3.3,1.3-1.3,2.6-2.8,4.2-3.6,6.2-3.4,12.9-5.2,20.1-4.9,1.8,0,3.7.2,5.3,3.4Z"/>
        <path d="M399.9,685.8c-.5,1.3-1.7,1.3-2.7.9-2.9-1-5.8-2.1-9-2.1-4.2,0-7.9,1.5-11.7,2.7-.9.3-1.7.9-2.4,0-.7-1,0-1.7.8-2.3,4.6-3.5,19.1-4.1,23.8-.9.6.4,1.3.7,1.3,1.7Z"/>
        <path d="M1000.1,672.1c-.5,1.3-1.7,1.3-2.7.9-2.9-1-5.8-2.1-9-2.1-4.2,0-7.9,1.5-11.7,2.7-.9.3-1.7.9-2.4,0-.7-1,0-1.7.8-2.3,4.6-3.5,19.1-4.1,23.8-.9.6.4,1.3.7,1.3,1.7Z"/>
        <path d="M145,802.6c-.3.8-.4,1.6-.8,2.2-2.3,3.1-4.6,6.2-6.9,9.3-.5.6-1.1,1.6-2.2.7-.7-.5-1-1.3-.5-1.9,2.6-3.8,5.3-7.5,8.1-11.2.3-.4.9-.8,1.4-.3.4.4.7.9.9,1.2Z"/>
        <path d="M891.2,980.5c0,2.5-2.1,4.6-4.6,4.6s-4.6-2.1-4.6-4.6,2.1-4.6,4.6-4.6,4.6,2.1,4.6,4.6Z"/>
        <circle cx="170.2" cy="553.9" r="4.6"/>
        <circle cx="1276.9" cy="194.5" r="4.6"/>
        <circle cx="488.7" cy="34.4" r="4.6"/>
        <path d="M755.7,137c0,2.5-2.1,4.6-4.6,4.6s-4.6-2.1-4.6-4.6,2.1-4.6,4.6-4.6,4.6,2.1,4.6,4.6Z"/>
        <path d="M424.1,358.7c0,2.5-2.1,4.6-4.6,4.6s-4.6-2.1-4.6-4.6,2.1-4.6,4.6-4.6,4.6,2.1,4.6,4.6Z"/>
        <path d="M282.5,137c0,2.5-2.1,4.6-4.6,4.6s-4.6-2.1-4.6-4.6,2.1-4.6,4.6-4.6,4.6,2.1,4.6,4.6Z"/>
        <circle cx="1226.6" cy="959.1" r="4.6"/>
        <path d="M329.6,1021.9c0,2.5-2.1,4.6-4.6,4.6s-4.6-2.1-4.6-4.6,2.1-4.6,4.6-4.6,4.6,2.1,4.6,4.6Z"/>
        <path d="M144.3,975.9c0,2.5-2.1,4.6-4.6,4.6s-4.6-2.1-4.6-4.6,2.1-4.6,4.6-4.6,4.6,2.1,4.6,4.6Z"/>
        <path d="M563.6,523c0,2.5-2.1,4.6-4.6,4.6s-4.6-2.1-4.6-4.6,2.1-4.6,4.6-4.6,4.6,2.1,4.6,4.6Z"/>
        <path d="M618.9,351.8c0,2.5-2.1,4.6-4.6,4.6s-4.6-2.1-4.6-4.6,2.1-4.6,4.6-4.6,4.6,2.1,4.6,4.6Z"/>
        <path d="M1235.8,883c0,2.5-2.1,4.6-4.6,4.6s-4.6-2.1-4.6-4.6,2.1-4.6,4.6-4.6,4.6,2.1,4.6,4.6Z"/>
        <circle cx="712.5" cy="473.7" r="4.6"/>
        <path d="M862,387.1c0,2.5-2.1,4.6-4.6,4.6s-4.6-2.1-4.6-4.6,2.1-4.6,4.6-4.6,4.6,2.1,4.6,4.6Z"/>
        <path d="M849.7,510.4c0,2.5-2.1,4.6-4.6,4.6s-4.6-2.1-4.6-4.6,2.1-4.6,4.6-4.6,4.6,2.1,4.6,4.6Z"/>
        <path d="M451.4,557.2c0,2.5-2.1,4.6-4.6,4.6s-4.6-2.1-4.6-4.6,2.1-4.6,4.6-4.6,4.6,2.1,4.6,4.6Z"/>
        <path d="M955.1,291.6c0,2.5-2.1,4.6-4.6,4.6s-4.6-2.1-4.6-4.6,2.1-4.6,4.6-4.6,4.6,2.1,4.6,4.6Z"/>
        <path d="M712.5,197.2c0,2.5-2.1,4.6-4.6,4.6s-4.6-2.1-4.6-4.6,2.1-4.6,4.6-4.6,4.6,2.1,4.6,4.6Z"/>
        <circle cx="1211.3" cy="199.1" r="4.6"/>
        <circle cx="1072.8" cy="363.3" r="4.6"/>
      </g>
      <g>
        <path d="M196.5,871.9c9.3-25.2,15.7-40.3,26.4-64.1,3.8-6.4,7.2-15.1,9-21.8,0-1.7,4.1-10.1,4.1-11.9,3.5-10.1,8.7-18.6,12.8-26.7,0-2,5.2-10.4,5.2-11.9,1.7-5.5,5.2-8.4,10.7-11.6h1.7c1.5,1.7,6.4,5.2,6.4,5.2,0,0,2,3.2,1.7,5.2,0,1.5,1.4,17.1,1.2,22l-.3,8.4c0,1.7,1.7,9,1.7,9,.9,13.6,2.3,25.8,5.5,39.1h2c1.7-1.7,6.7-4.9,6.7-6.4l3.5-6.7c3.8-5.2,25.2-36.8,32.2-45.5l5.2-7,3.5-6.4c2.3-1.7,9-8.4,10.7-10.1,7-1.2,7,2,9.9,7.2,1.2,17.1-4.1,32.2-6.4,49.3-4.1,18.8-4.3,26.4-6.4,44.9,0,1.7-4.1,19.7-4.1,19.7,0,1.7-2,11.9-2,13.6l-1.7,6.7c0,3.2-.6,17.4-.6,20.6l-1.7,2.9-2.6,1.7c-1.5,0-6.4,0-8.1-.3,0,0-3.2-1.7-3.2-3.2l-1.7-3.5c-1.5-13.3,4.3-25.5,6.4-39.1,3.5-15.4,4.3-27.3,6.4-42.3.3-10.4,9.9-35.1,7.8-44.9l-3.2,3.5c-1.7,3.2-16.5,23.2-18.3,26.4-1.5,2-6.7,14.8-9,16.5l-7,10.7c-5.2,6.7-5.2,10.7-10.4,17.7-3.2,4.9-5.2,9.6-10.7,13.3-1.7,1.7-8.1-4.1-10.2-5.8,0,0-1.4-4.9-1.4-6.4,0,0-1.5-10.4-1.5-13.6s-.9-13.9-.9-16l-1.5-6.7c0-1.7-1.5-15.4-1.5-17.1.3-3.5-2.6-15.7-2.6-17.4-2.3-1.5-7.5,7-7.5,8.7s-5.2,13.3-5.2,15.1c-3.8,8.4-7.5,15.1-11,23.8,0,1.5-5.8,11.9-5.8,13.3-5.2,11.6-4.4,15.1-9.9,28.4-2,3.2-5.5,13.6-5.5,15.4v1.7l-4.1,6.4-1.7,8.4s-2,3.8-3.5,3.8c-1.7,1.4-4.9,3.2-4.9,3.2,0,0-5.2-1.7-7-3.8l-1.7-1.5c-1.5-7.2,2.3-13.9,4.1-20.6Z"/>
        <path d="M370.8,898.9l7-17.1c0-2.3,4.9-10.4,4.9-12.2s3.2-8.4,3.2-10.2,7-14.2,9.9-20.3c-6.7-.3-18.6-1.7-18.6-3.5-1.5-6.7,4.1-12.8,4.1-12.8,8.1-1.7,22,.9,22,.9l1.7-5.5c8.1-13.3,13.6-30.7,20.3-46.1,8.4-20,18.8-37.4,29-58l5.2-5.2c6.7-4.9,13.6-4.9,17.1,3.8v47.6c0,1.7-1.7,10.2-1.7,11.9-1.7,7.2-3.2,27.3-3.2,29s0,15.4-1.2,22.6c1.4,1.5,4.9-.3,12.2-.3s9.3-.9,10.4,6.1c.6,2.9-1.7,8.4-6.4,8.4s-11,3.5-18,2.9c0,5.2-.6,18.6-.6,20.3v29.6c0,2.3,1.7,12.2,1.7,14.5s0,6.7-1.7,8.1c-2,1.7-5.5,1.7-8.7,1.7-5.2-1.7-7-4.9-7-9.9s-1.7-12.2-1.7-16v-1.7l1.7-6.7v-23.2l1.7-5.5v-8.1l-1.7-1.7h-39.4s-4.9,8.4-6.7,12.2c-5.2,9.9-10.1,21.8-13.3,33.9,0,1.4-5.5,13.6-5.5,15.4-1.7,7-4.9,10.1-11.9,8.4l-3.2-1.5-1.7-1.7v-10.1ZM444.5,824.3c1.7,0,8.4-.6,10.1-.6,0-10.4,1.5-26.1,3.2-36.2,1.7-15.4,6.7-30.4,3.2-46.1l-1.5,1.7-5.2,9c-6.7,9.9-11.6,21.7-17.1,33.6-1.7,5.2-3.5,8.7-4.9,13.6l-10.2,20.6-1.4,5.5c3.2,0,20-1.2,23.8-1.2Z"/>
        <path d="M574.1,890.5c0-1.4-5.2-15.1-5.2-16.8l-2.6-2.9s-1.7-4.9-2-6.4l-3.5-8.7-1.7-3.2c0-1.4-5.2-11.3-5.2-12.8-.3-2.3-4.9-13.9-6.7-15.7l-6.1-6.4-1.2,7.8c-5.5,11-5.2,17.1-8.7,29.9,0,1.5-5.2,18.8-5.2,20.6-2.3,7-4.9,16.2-7.5,23.5l-2.9,3.8s-2.9.3-4.6.9c-1.5.3-6.4-8.4-6.7-9.9,1.2-3.8,3.2-14.2,2.9-15.7,4.1-11,7.8-23.5,11.6-33.6.3-2.3,2-9.9,1.7-11.3,3.8-19.7,9.6-40.6,14.8-58.9-.6-1.5,4.6-14.5,5.8-18,1.5-3.5,4.3-9.3,7-12.8,3.2-2.6,4.9-2.3,8.7-2.9,4.9.6,3.8,3.2,4.9,8.1.6,4.9-4.6,8.7-7,16.5-3.8,7.5-7.8,17.7-8.4,26.4.6,1.7-.3,7-.3,7l2.9,1.7,4.6-2.9c9.9-4.6,21.7-4.6,27.8-9.9l9.3-9.9c7.2-9,6.7-10.7,7-20.9,0-5.5-2.3-12.2-6.4-16.5-4.1-5.2-8.7-9.6-16-10.1,0,0-12.5,0-15.9.3l-3.2.6c-13,3.5-9,.9-22.6,5.8-2,0-10.1,6.7-10.1,6.7-1.7.6-13,7-14.5,7-8.1,3.2-15.1-8.1-10.7-14.2l2.9-1.7c2-.3,8.4-4.9,10.2-4.9l3.2-2s8.1-2.9,11.6-3.2c6.4-2.9,12.2-3.8,12.2-3.8,4.6-1.2,22.9-5.8,27.8-6.1l15.1,1.7c1.7,2,12.8,7,14.8,8.4,7.2,4.9,7.5,9.9,12.8,16.2,0,3.5,2.9,11.3,3.5,14.8,0,0-1.5,13.6-2.3,17.1,0,1.5-4.1,7.5-4.1,7.5-1.2,4.3-11,13.9-12.8,15.9-10.2,5.8-27,14.2-36.8,15.7l2.9,3.8c2.9,6.7,4.6,14.2,9.6,20.9,2.6,10.4,9.3,22,14.2,31.6,5.5,8.1,8.7,15.1,12.5,24.1.3,1.5,1.2,7,1.2,8.4l-2.9,4.1c-1.5,0-7,1.2-7,1.2-1.5,0-5.5-4.9-7.2-7,0,0-4.9-7.2-5.2-9Z"/>
        <path d="M618.8,901.2c0-1.7,3.5-11.9,3.5-13.6s3.8-7,3.8-8.7,3.8-13.6,3.8-15.4c3.5-13,10.7-37.4,15.7-50.7,0-2.3,3.2-10.7,3.2-12.2l1.7-3.8c1.7-4.9,7-18.6,7-20.3s7-23.2,7-24.6,2.9-11.6,2.9-13.3c1.5-8.4,3.8-18.6,7-25.5l1.7-1.7c1.7,0,6.7-3.2,6.7-3.2h5.2l1.7,1.5c1.4,3.5,3.2,10.4,1.4,13.9,0,1.5-4.9,10.2-4.9,11.9,0,0-1.5,3.2-1.5,4.9s-3.8,10.4-3.8,11.9-6.7,21.2-6.7,21.2c-6.4,15.4-8.1,32.2-13.6,47.6-1.7,3.5-4.1,12.2-6.1,17.4,0,1.7-9.3,27.3-9.3,29-2,3.2-5.5,15.4-5.5,17.1s-2,11.6-2,13.9-4.1,11.6-4.1,13.6-3.5,4.6-3.5,4.6h-8.4c-1.7,0-4.9-3.8-4.9-5.2-1.7-3.8,2-8.7,2-10.1Z"/>
        <path d="M700.8,898.9l7-17.1c0-2.3,4.9-10.4,4.9-12.2s3.2-8.4,3.2-10.2,7-14.2,9.9-20.3c-6.7-.3-18.6-1.7-18.6-3.5-1.5-6.7,4.1-12.8,4.1-12.8,8.1-1.7,22,.9,22,.9l1.7-5.5c8.1-13.3,13.6-30.7,20.3-46.1,8.4-20,18.8-37.4,29-58l5.2-5.2c6.7-4.9,13.6-4.9,17.1,3.8v47.6c0,1.7-1.7,10.2-1.7,11.9-1.7,7.2-3.2,27.3-3.2,29s0,15.4-1.2,22.6c1.4,1.5,4.9-.3,12.2-.3s9.3-.9,10.4,6.1c.6,2.9-1.7,8.4-6.4,8.4s-11,3.5-18,2.9c0,5.2-.6,18.6-.6,20.3v29.6c0,2.3,1.7,12.2,1.7,14.5s0,6.7-1.7,8.1c-2,1.7-5.5,1.7-8.7,1.7-5.2-1.7-7-4.9-7-9.9s-1.7-12.2-1.7-16v-1.7l1.7-6.7v-23.2l1.7-5.5v-8.1l-1.7-1.7h-39.4s-4.9,8.4-6.7,12.2c-5.2,9.9-10.1,21.8-13.3,33.9,0,1.4-5.5,13.6-5.5,15.4-1.7,7-4.9,10.1-11.9,8.4l-3.2-1.5-1.7-1.7v-10.1ZM774.5,824.3c1.7,0,8.4-.6,10.1-.6,0-10.4,1.5-26.1,3.2-36.2,1.7-15.4,6.7-30.4,3.2-46.1l-1.5,1.7-5.2,9c-6.7,9.9-11.6,21.7-17.1,33.6-1.7,5.2-3.5,8.7-4.9,13.6l-10.2,20.6-1.4,5.5c3.2,0,20-1.2,23.8-1.2Z"/>
        <path d="M952,742.9c0-1.7-2.9-4.9-4.6-5.2-3.5-2-10.4.9-13.6,2.6-9,2.3-15.9,2.9-21.5,9.3-23.5,20.6-36,47.8-46.4,78,0,0-6.7,7.8-7,13,0,1.7-2.6,8.1-2.6,9.9-4.6,11.9-7.8,25.5,3.5,35.1,1.7,0,13.6.9,15.1,1.2,6.7.6,12.5-2.9,17.7-7.8,7.5-4.3,12.8-9.3,16.5-17.1,6.4-11.6,16.8-26.1,16.2-40-10.4-2.3-22.3,8.4-30.4,6.1-6.7-2-8.7-7.2-5.8-13.9l1.7-3.2,8.4-1.2c1.7.3,8.7-2.9,10.4-2.9l7.5-1.2c1.5,0,12.2-2,13.9-2,7.2-1.2,12.2-4.3,18.6-.9,1.5.3,2.9,3.8,2.9,3.8l-1.2,9.9c-1.4-.3-6.4,3.8-8.1,3.5l-.3,6.7c-.3,1.7-4.1,9.6-4.3,11.9l-2.9,7.8-1.7,3.8c0,1.5-7.5,13-7.8,14.8-2,4.6-9.6,16-9.6,16,0,1.7-7.2,7-9.6,8.4-1.5,0-8.4,4.3-10.4,5.8l-6.7,2.9-5.2,3.5c-2,1.4-7.5,2.6-7.5,2.6-3.5,0-15.1-.9-18.6-1.2-1.4-.3-8.4-3.8-10.1-4.1l-6.4-7.8s-2.9-3.2-2.9-4.9l-1.5-3.5c.3-2.3-1.5-18.3-1.2-20,.3-3.5,6.7-22.6,7-26.4,3.8-9,9-19.7,13.3-31.6,4.1-9.6,10.1-17.7,13.9-26.1l2.3-4.9c0-1.7,7.2-11.3,9.3-14.5,3.8-7,9-11.6,15.1-16.5,5.2-4.3,12.8-12.8,18-17.4,2-1.5,11-5.8,12.8-5.8s11.6-.9,15.1-.6c3.8.3,12.2.6,13.6.6,1.7.3,4.9,4.3,6.7,5.8,1.4,2,4.3,8.7,5.8,11-.3,3.5-2,9.9-4.9,11.3-3.5,2-12.5-4.3-12.5-4.3Z"/>
        <path d="M964.2,877.1c1.7-11.9,3.8-18,7.2-27.5l1.7-5.2c.3-1.7,5.2-9.9,5.2-12.2.3-1.7,7.8-11.6,7.8-13.3l1.5-6.4c0-1.7,2-5.5,2-5.5l3.5-6.4c2-1.7,2.9-8.7,4.3-10.2l3.8-5.2,2-6.4c0-1.7,3.8-10.1,3.8-12.2l1.7-4.9c0-1.7,2-13.6,2-15.1l8.7-3.2c5.2,0,42.9-3.8,47.8-3.8s7.2-1.5,8.7-1.5h4.9c2,.3,8.7-1.5,8.7-1.5,3.2.3,10.4-1.2,10.4-1.2h8.4l3.5,3.5-.3,10.4c-5.2,3.2-13.6,4.6-20.6,4.3-1.7,0-13.9,1.7-15.7,1.7-4.6,0-26.1.9-26.1.9-1.7,0-14.8,2.3-16.5,2.3-7.2,0-9,11.9-10.7,16.8-6.1,12.8-2.6,11.9-8.1,21.7l-2,5.2c3.2.3,16.8-1.2,18.6-1.2,0,0,33.1-3.8,39.4-5.2,2.3,0,10.4-1.7,12.2-1.4,0,0,3.5,1.7,5.2,1.7l1.7,1.7-.3,8.4c0,2-5.5,5.5-7.2,5.5-3.2-.3-22,2.6-25.5,2.3-13.9,1.4-39.4,2-53.1,6.7l-2,1.7c-1.7,3.2-8.7,18.6-10.4,20-.3,1.7,0,9,0,10.7-.3,1.7-3.8,7.2-3.8,8.7l-.3,7c6.7.3,53.1-1.5,59.7-1.5,1.5.3,13.6,2.3,15.4,2.3s5.2,1.7,5.2,3.2,1.5,6.7,1.5,6.7c0,2.3-3.5,5.5-4.9,5.5l-65.2,1.2c-1.5,0-5.5,1.7-7,1.7-3.5-.3-18.8-.6-22.3-.6l-1.5-2c-1.7-1.5-3.2-5.5-3.2-8.7Z"/>
      </g>
      <text class="st0" transform="translate(789.8 616.3)"><tspan x="0" y="0">an</tspan><tspan x="103.6" y="-9">s</tspan></text>
      <g>
        <g>
          <path d="M611.9,254.3c-7.2-10.8-16.3-12.4-21.1-12.4-12.5,0-22.3,9.8-30.1,17.6-2.4,2.4-5.3,5.3-6.8,6.4-1,.7-2,1.6-2.8,2.5-1.5,1.6-9.3,5.4-12.7,7-13.4,6.6-27.2,13.4-28.3,27.2-.3,4.4.6,12.8,10.9,20.1,2.3,1.6,5,2.5,7.9,2.6.4,0,.7,0,1.1,0,5.6,0,11.4-.9,16.6-2.2-5.4,17-9.9,34-14.3,50.5-2.9,11-6,22.4-9.3,33.8-15.6,56.3-28.4,107.6-39.1,156.7-3.6.7-7.8,1.2-11.9,1.8-13.2,1.6-26.8,3.4-36.2,11.7-2.5,2.2-4.1,5.3-4.6,8.6-1,6.6.9,13,5.2,18,6.6,7.6,18.7,11.5,35.9,11.5h0c22.5,0,70.5-8,75.7-32.5.2-.8.3-1.6.3-2.3.4-8.2-3.1-13.6-6-16.6-3-3.1-6.8-5.3-11.5-6.6,6.8-22.7,12.6-41.7,18-59.4,5.1-17.2,10.4-34.7,15.6-51.7,18-59.1,36.7-120.2,49.5-181.4.8-3.7,0-7.6-2.1-10.8ZM608.5,263.9c-12.8,60.9-31.4,121.9-49.4,180.9-5.2,17-10.5,34.5-15.6,51.7-7.1,23.2-14.1,46.3-19.9,65.5,6.5.5,11.3,2.5,14.7,6,2.2,2.3,4.7,6.3,4.4,12.5,0,.5,0,.9-.2,1.4-4.2,19.8-47.8,28.1-70.2,28.1-15.5,0-26.1-3.2-31.6-9.5-3.2-3.8-4.6-8.4-3.8-13.4.3-2,1.3-3.8,2.8-5.1,8.1-7.2,20.9-8.8,33.2-10.3,5.7-.7,11.5-1.4,16-2.7,10.8-50.1,23.8-102.4,39.7-159.9,3.3-11.3,6.3-22.8,9.3-33.9,5.3-19.9,10.8-40.2,17.6-60.4-8.5,2.9-17.5,4.9-25.4,4.9s-.7,0-1,0c-1.7,0-3.3-.6-4.7-1.6-7.6-5.4-8.8-11.1-8.5-15,.8-10.6,12.6-16.4,25.1-22.5,5.3-2.6,12.5-6.2,14.4-8.4.5-.6,1.1-1.1,1.7-1.5,2-1.4,4.9-4.3,7.7-7.1,7.5-7.5,15.9-16,26.1-16s11,1.7,16.4,9.9c1.3,1.9,1.7,4.2,1.2,6.5Z"/>
          <path d="M600.2,262.2c-16.4,78.1-42.2,155.4-64.9,232-7.8,25.3-15.5,50.9-23.2,76.7,6.9-.5,22.6-2.3,22.1,9.3-4.1,19.3-92.5,32.4-88.9,8.1,10.8-9.5,37.5-6.7,50.9-13,11.8-55.4,25.4-109.4,40.6-164,10.9-37.7,19.1-75.6,33.5-112.4-10.8,6.2-28.3,12.6-41,12.3-19.4-13.7,23.6-22.9,32.6-33.5,10.6-7.2,26.5-33.2,38.3-15.5Z"/>
        </g>
        <g>
          <path d="M780.9,296.7c-6.3-11.7-14.1-17.3-23.7-17.3s-30.2,10.6-47.3,29.8c-34.8,39-68.1,112.3-61.3,171.5l.2,2.1c3.7,32.7,8.8,77.6,39.6,86.7,4.3,1.3,8.6,1.9,12.7,1.9,13.9,0,27.2-7.5,39.6-22.4,11.3-13.7,21.6-33.1,30.5-57.7,15.6-43,24-94.7,24.3-124.4,0-.3,0-.5,0-.8-1.5-31.2-6.4-54.5-14.5-69.5ZM765.9,489.4c-8.7,24-18.6,42.8-29.6,56-11.2,13.5-23,20.3-35.2,20.3s-7.3-.6-11.1-1.7c-27.2-8-32.1-50.7-35.6-81.9l-.2-2.1c-6.6-57.5,26-129,59.9-167.1,15.8-17.7,31.5-27.9,43.1-27.9s11.7,1.5,18.7,14.4c7.7,14.2,12.4,36.7,13.9,67,0,.3,0,.6,0,.9-.4,29-8.8,80.2-24,122.2Z"/>
          <path d="M833.9,355.4c-2.6-38.6-10.2-68.4-22.6-88.4-15.9-25.9-36.7-31.3-51.4-31.3s-41.8,10.1-63.5,29.1c-19.6,17.2-38.2,40.9-53.8,68.4-20.5,36.1-34.2,76.7-38.7,114.3-5.3,44.1,2,84.3,21.1,116,0,.1.2.3.3.4,25.1,38.9,51.9,58.6,79.5,58.6s37.9-9.6,55.1-28.4c30.7-33.7,49.4-88.5,57.8-118.2,12.7-44.7,18.8-90.8,16.1-120.4ZM812.3,474.3c-8.3,29.2-26.6,83.1-56.5,115.9-16.1,17.6-33.2,26.6-50.9,26.6-25.6,0-50.8-18.8-74.8-56,0,0-.1-.2-.1-.2-18.4-30.7-25.4-69.6-20.3-112.4,4.4-36.8,17.9-76.6,38-112.2,15.3-27,33.5-50.2,52.6-67,20.6-18.1,41.3-27.7,59.8-27.7s31.9,5,46.5,28.6c11.9,19.3,19.2,48.2,21.8,85.9,2.6,28.9-3.5,74.3-16,118.4Z"/>
        </g>
        <path d="M819.7,356.6c8.5,91.8-75.7,365.1-182.6,199.7-94.7-157.7,164.2-471.1,182.6-199.7ZM803.9,365.8c-10.6-216-178.7-13.5-163.9,115.9,3.9,33.8,8.9,85.1,45.9,96,82.1,24.2,117.9-151.3,118.1-212.2,0,0,0,.4,0,.3Z"/>
      </g>
    </g>
  </g>
  <g id="Calque_3">
    <path class="st1" d="M607.2,257.4c-5.4-8.1-11.9-9.9-16.4-9.9-10.2,0-18.6,8.5-26.1,16-2.8,2.8-5.7,5.7-7.7,7.1-.6.4-1.2.9-1.7,1.5-1.9,2.3-9.2,5.8-14.4,8.4-12.5,6.2-24.3,12-25.1,22.5-.3,3.9.9,9.7,8.5,15,1.4,1,3,1.5,4.7,1.6.3,0,.7,0,1,0,7.8,0,16.9-2,25.4-4.9-6.8,20.1-12.3,40.5-17.6,60.4-3,11.1-6,22.5-9.3,33.9-16,57.5-29,109.8-39.7,159.9-4.5,1.2-10.3,2-16,2.7-12.3,1.5-25.1,3.1-33.2,10.3-1.5,1.3-2.5,3.1-2.8,5.1-.7,5,.6,9.7,3.8,13.4,5.5,6.3,16.1,9.5,31.6,9.5,22.4,0,66-8.2,70.2-28.1,0-.5.2-.9.2-1.4.3-6.2-2.3-10.2-4.4-12.5-3.3-3.5-8.2-5.4-14.7-6,5.8-19.2,12.7-42.3,19.9-65.5,5.1-17.2,10.5-34.8,15.6-51.7,18-59,36.6-120,49.4-180.9.5-2.2,0-4.6-1.2-6.5ZM535.3,494.1c-7.8,25.3-15.5,50.9-23.2,76.7,6.9-.5,22.6-2.3,22.1,9.3-4.1,19.3-92.5,32.4-88.9,8.1,10.8-9.5,37.5-6.7,50.9-13,11.8-55.4,25.4-109.4,40.6-164,10.9-37.7,19.1-75.6,33.5-112.4-10.8,6.2-28.3,12.6-41,12.3-19.4-13.7,23.6-22.9,32.6-33.5,10.6-7.2,26.5-33.2,38.3-15.5-16.4,78.1-42.2,155.4-64.9,232Z"/>
    <g>
      <path class="st1" d="M828.2,355.9c-2.6-37.7-9.9-66.6-21.8-85.9-14.6-23.7-33.3-28.6-46.5-28.6s-39.1,9.6-59.8,27.7c-19.1,16.8-37.3,39.9-52.6,67-20.1,35.5-33.6,75.3-38,112.2-5.1,42.9,1.9,81.8,20.3,112.4,0,0,0,.2.1.2,24,37.1,49.2,56,74.8,56s34.9-8.9,50.9-26.6c29.9-32.8,48.3-86.7,56.5-115.9,12.5-44.1,18.6-89.5,16-118.4ZM637.1,556.2c-94.7-157.7,164.2-471.1,182.6-199.7,8.5,91.8-75.7,365.1-182.6,199.7Z"/>
      <path d="M804,365.5s0,0,0,0c0,0,0,0,0,0Z"/>
    </g>
    <path class="st1" d="M803.9,365.8c-10.6-216-178.7-13.5-163.9,115.9,3.9,33.8,8.9,85.1,45.9,96,82,24.2,117.8-150.9,118.1-211.9,0,0,0,0,0,0ZM771.2,491.4c-8.9,24.6-19.2,44-30.5,57.7-12.3,14.8-25.6,22.4-39.6,22.4s-8.4-.6-12.7-1.9c-30.8-9.1-35.9-53.9-39.6-86.7l-.2-2.1c-6.8-59.2,26.6-132.5,61.3-171.5,17.2-19.2,34-29.8,47.3-29.8s17.4,5.7,23.7,17.3c8.1,14.9,13,38.3,14.5,69.5,0,.3,0,.5,0,.8-.4,29.7-8.8,81.4-24.3,124.4Z"/>
  </g>
  <metadata>
    <sfw xmlns="http://ns.adobe.com/SaveForWeb/1.0/">
      <slices/>
      <sliceSourceBounds x="18.87" y="2.38" width="1316.94" height="1043.02" bottomLeftOrigin="true"/>
    </sfw>
  </metadata>
</svg>