<?xml version="1.0" encoding="UTF-8"?>
<svg xmlns="http://www.w3.org/2000/svg" width="1354.7" height="1043" version="1.1" viewBox="0 0 1354.7 1043">
  <!-- Generator: Adobe Illustrator 29.7.1, SVG Export Plug-In . SVG Version: 2.1.1 Build 8)  -->
  <defs>
    <style>
      .st0 {
        fill: #fff;
      }

      .st1 {
        font-size: 304.9px;
      }

      .st1, .st2, .st3 {
        fill: #060606;
      }

      .st1, .st3 {
        font-family: ChauncyPro-Italic, 'Chauncy Pro';
        font-style: italic;
      }

      .st4 {
        fill: #222221;
      }

      .st3 {
        font-size: 125px;
      }
    </style>
  </defs>
  <g id="Calque_3">
    <g>
      <path class="st4" d="M1236.9,909.5c-2.5-5-6-9-9.7-13.3l-.9-1.1c-7.4-8.6-6.8-9.6-3.1-14.9.5-.7,1-1.4,1.5-2.3,4.7-7.1,2.7-11.8.2-14.5-5.9-6.3-6.1-13.3-4.7-21.9,1.6-9.3.6-17.1-2.8-24-5.1-10.1-5.3-19.8-.6-29.5.2-.5.4-1,.5-1.5.1-.4.2-.8.4-1.2,3.7-9.2,1.9-17.4-5.2-24.5-2.8-2.8-4.8-5.3-6.2-7.8-2.1-3.8-2.7-7.1-1.7-9.9,1-2.8,3.4-5,7.3-6.7,6.6-2.8,11.4-6.6,14.6-11.6,7.8-12.2,9.1-25.3,3.9-38.9-.2-.5-.4-.9-.6-1.4-.5-1.2-1.1-2.3-1.1-3.8-.4-11-11.7-21.3-23.2-21.3s-1.4,0-2.1.1c-7.5.9-13.7,4.5-19.4,8.1-2.3,1.4-4.4,2.2-6.5,2.2s-5.1-1.1-7.7-3.3c-4.5-3.9-8.6-7.3-12.5-10.2-6.5-4.9-13.1-7.3-20.2-7.3s-5,.3-7.6.9c-5.7,1.3-10.9,3.1-15.8,5.4-5,2.3-10,4.7-15,7.1l-4.6,2.2c-3.4,1.6-6.8,2.4-10.2,2.4s-7.8-1.1-11.7-3.3c-1.7-1-3.4-1.9-5.2-2.9-3.2-1.8-6.5-3.7-9.9-5.5-6.9-3.8-14.3-5.6-22.6-5.6s-7.2.3-11.1,1c-10,1.8-19.7,5.4-29,9h-.3c-1.9.8-3.8,1.6-5.7,2.3-6.7,2.5-12.7,3.7-18.4,3.7s-14.5-2.1-21.1-6.5c-.7-.5-1.5-.8-2.3-1.1-.4-.2-.8-.3-1.2-.5-7.4-3.5-15.1-5.2-23.7-5.2s-6.3.2-9.5.7c-13.8,1.9-26.7,6.3-38.6,10.9-9.7,3.7-18.6,5.5-27.2,5.5s-19.8-2.5-29.3-7.6c-7.4-4-15.8-6-25-6s-6.8.3-10.4.8c-12.3,1.8-24.1,5.8-35.5,9.7h-.4c-7.5,2.7-14.2,3.9-20.6,3.9-11.2,0-21-3.9-30-12-5.4-4.9-12.5-7.4-21-7.4s-1.6,0-2.4,0c-5.2.3-10.3,1-15.5,2.1-8.2,1.8-16.2,4.6-23.9,7.4-4.5,1.6-9.2,3.2-13.8,4.6-6.6,2-12.9,3-18.9,3s-15-1.7-21.9-5c-8.9-4.3-18-6.4-27.9-6.4s-16,1.3-24.8,4.1c-6.3,1.9-12.6,4.2-18.7,6.4-5.1,1.8-10.3,3.7-15.6,5.4-4.2,1.4-8.3,2-12.3,2s-11.1-1.3-16.4-4c-5.9-2.9-11.6-4.9-17.3-6.1-3-.6-6.1-.9-9.2-.9-9.5,0-18.5,2.8-26.8,5.9-1.6.6-3.2,1.2-4.8,1.8h-.2c-4.3,1.7-8.8,3.4-13.4,4.7-2,.6-4,.8-5.9.8-5.5,0-10.4-2.5-14.5-7.5-.8-.9-1.5-1.9-2.3-2.8-2-2.5-4.1-5.1-6.4-7.4-4.9-5.1-10.6-7.5-17.1-7.5s-3.1.1-4.7.4c-7.8,1.3-14.8,4.3-22.6,7.7-3.4,1.5-6.9,3.1-10.2,4.7-5.4,2.6-11,5.2-16.7,7.4-6.1,2.4-12.2,3.6-18.1,3.6s-11.2-1.1-16.7-3.2c-3.8-1.4-7.5-3-10.4-4.1-9-3.7-17.9-7.1-27.2-7.1s-.9,0-1.3,0h0c-.6,0-1.1,0-1.7,0-9.7,0-18.8,2.4-27.6,7.3-10.4,5.8-16.1,15.1-17.2,27.7-1.3,16.1,1.9,28.7,10.1,39.6,5.6,7.5,5.4,12.4-1.1,20-1.2,1.4-2.5,2.7-3.8,4.1-.9.9-1.8,1.9-2.7,2.9l-.8.9c-1.4,1.5-2.7,3-3.8,4.7-3.8,5.8-3,10.8,2.3,15.3.8.7,1.7,1.3,2.6,2l.5.4c2.4,1.7,3.5,2.6,3.7,3.6.2,1.1-.7,2.3-2.5,4.7-.6.8-1.3,1.7-1.9,2.5h0c-2.6,3.5-5,6.6-6.9,10.3-3.4,6.6-2.9,12.9,1.6,18.9,1.6,2.1,3.4,4.4,5.6,6.9,4.2,4.8,5,10.1,2.5,16.1l-.7,1.6c-1.4,3.4-2.8,6.8-4.1,10.3-2.2,5.9-2.1,10.5.3,14,4.4,6.5,3.2,12.8,1.2,18.5-.6,1.7-1.1,3.7-1.5,6-2.1,11.4,1.5,20.2,10.6,26.1,8.4,5.5,16.9,9.2,25.3,11.2,6.1,1.4,10.7,4.3,14.8,7.1.9.6,1.8,1.3,2.8,2,1.1.7,2.1,1.5,3.2,2.2,4.8,3.3,9.7,5,14.6,5s8.8-1.3,13.2-3.9c2.2-1.3,4.5-2.6,6.7-3.8l3-1.7c3-1.7,6-2.5,9-2.5s5.4.7,8.1,2l2.3,1.2c3.2,1.6,6.5,3.2,9.6,4.9,7.9,4.3,16.1,6.5,24.4,6.5s13.4-1.4,20.2-4.1c7.3-2.9,13.9-5.5,20.3-7.8,3.3-1.2,6.6-1.8,9.8-1.8,5.5,0,10.7,1.9,15.5,5.6,1.3,1,2.6,1.8,4,2.8,1,.7,1.9,1.3,2.9,2,6.2,4.5,13.1,6.7,20.9,6.7s5.4-.3,8.3-.8c4.9-.9,10.2-1.9,15.3-3.2,7.6-2,14.4-3,20.7-3,9,0,17.1,2,24.9,6.1,4.4,2.4,9.4,3.5,15.3,3.5s3.9-.1,6-.4c7.7-.9,14.7-3.6,21.8-6.5,2.4-1,4.7-2,7.1-3,5.4-2.3,11-4.6,16.7-6.5,6.4-2.1,12-3.2,17.4-3.2,8.9,0,16.6,2.9,23.6,8.9,1,.8,2.1,1.5,3.3,2.1,4.1,2.2,8.1,3.3,12.1,3.3s3.4-.2,5.1-.6c5.8-1.3,11-3.4,16.6-5.6h.2c1.6-.7,3.2-1.4,4.8-2,7-2.7,14.5-5.4,22.5-6.3,1.4-.2,2.8-.2,4.2-.2,10.2,0,19.5,4.2,27.2,8.3,8.4,4.5,16.9,6.7,25.2,6.7,8.1,0,16.3-2.1,24.5-6.3,8.5-4.4,15.6-7.6,22.4-10.1,5.2-1.9,10.2-2.9,15.1-2.9s12.5,1.7,18.3,4.9c1.2.7,2.5,1.3,3.7,1.9,1.4.7,2.8,1.4,4.2,2.2,7.3,4.2,14.8,6.3,23,6.3,5,0,10.3-.8,15.8-2.4,5.1-1.5,10.2-3.2,15.1-4.9,6.3-2.1,12.9-4.3,19.4-6.1,5.6-1.5,11.2-2.3,16.5-2.3,8.6,0,16.9,2.1,24.8,6.1,4.3,2.2,8.5,4.3,13.5,6.7,10,4.9,19.5,7.2,29.1,7.2,2.6,0,5.1-.2,7.7-.5,8.2-1.1,16.3-3.6,23.7-6.1,2.6-.9,5.2-1.8,7.8-2.7h.1c7.5-2.7,15.3-5.5,23.3-7.3,3.7-.9,7.3-1.3,10.8-1.3,9.2,0,17.5,3.2,24.7,9.6,1.2,1,2.4,2,3.7,3,.5.4,1,.8,1.6,1.2,5.1,4,10.3,5.9,15.9,5.9s6.1-.6,9.3-1.7c5.2-1.9,10.2-4.3,14.7-6.7l1.7-.9c6.4-3.3,13.1-6.8,19.9-9.7,7-3,13.3-4.5,19.3-4.5,8.5,0,16.2,3,23.4,9.3,4.5,3.9,9.4,5.9,14.6,5.9s9.4-1.6,14.3-4.7l1.7-1.1c4.2-2.7,8.6-5.5,13-8,5.6-3.3,10.4-4.8,15-4.8s4.9.4,7.3,1.3c.7.3,1.4.4,2,.4,2,0,3.5-1.3,4.7-2.8,5.4-6.3,6.1-13.2,2-21.2ZM657.1,931.6c-5.8,0-11.9,1-18.2,2.9-7.9,2.4-15.2,5.4-24,9.1-3.8,1.6-7.2,2.4-10.4,2.4-4.8,0-9.2-1.7-13.5-5.2-7.5-6-15.9-9-25.7-9s-10.9.9-17.2,2.6c-7.8,2.2-15.3,5.4-22.7,8.5l-3.4,1.4c-4.4,1.8-9.6,3.9-15.2,5.6-4,1.2-7.5,1.7-10.9,1.7s-8.1-.9-11.5-2.8c-8.9-4.8-18.2-7.1-28.7-7.1s-16.1,1.3-26.1,3.9c-4.9,1.3-10.8,2.7-17,3-.5,0-1,0-1.5,0-5.9,0-10.9-1.6-15.4-4.8-1.9-1.4-3.8-2.7-5.8-4-1-.7-2-1.3-2.9-2-6-4.1-12.2-6.1-19-6.1s-7.1.6-10.8,1.7c-6.6,2-13.4,4.5-20.3,7.7-6.5,3-13.1,4.5-19.4,4.5s-16.1-2.5-23.7-7.4c-7.3-4.7-14.2-7-21-7s-13.7,2.4-20.4,7.3c-3.7,2.7-7.4,4.1-11,4.1s-8.2-1.7-12.4-5.1c-6-4.9-12.2-9.9-20.3-11.3-6.2-1.1-11.7-3.5-17.3-6-2.7-1.2-5-3-7-4.5-3.5-2.7-5.1-6.1-5-10.6,0-4.9,1.5-9.5,2.8-13.6,2.3-7.3,1.6-13.4-1.9-18.7-1.9-2.8-2.2-6-.7-9.6.9-2.4,1.9-4.8,2.9-7.2.6-1.6,1.3-3.2,1.9-4.8,3.4-8.5,2.1-16.6-3.7-24.1-.8-1-1.6-2-2.4-3-.6-.7-1.2-1.5-1.8-2.2-4.5-5.6-4.6-8.1-.5-13.9,1.1-1.7,2.4-3.3,3.6-4.9,1.5-1.9,3-3.9,4.3-5.9,4.9-7.5,4-12.8-3.3-18.3-3.3-2.4-4.6-3.5-4.7-4.7-.1-1.2,1.1-2.5,4-5.6l.3-.4c2.6-2.7,5.3-5.5,7.6-8.5,7.3-9.5,7.6-18.2,1.2-28.4-.6-1-1.3-2-2-3-3-4.5-6.1-9.1-6.8-14.9-.9-6.7-1.7-13.6-.4-20.5,1.4-6.9,4.9-12,10.7-15.6,7.7-4.7,15.9-6.7,27.7-6.7h1.4c2.6,0,7.8.9,18.1,5,1.9.8,3.8,1.6,5.8,2.3h.3c2.1,1,4.2,1.9,6.3,2.7,7.1,2.9,14.3,4.3,21.5,4.3s14.3-1.4,21.5-4.2c6.1-2.4,12.1-5.2,17.9-7.9,3.1-1.5,6.3-3,9.5-4.4,5.8-2.6,12.1-5.3,18.8-6.8,1.5-.3,2.9-.5,4.3-.5,4.4,0,8.2,1.8,11.3,5.4,1.4,1.7,2.8,3.4,4.2,5h0c.9,1.3,1.9,2.4,2.9,3.6,6.3,7.5,13.5,11.2,22.1,11.2,3,0,6.1-.5,9.4-1.4,6.3-1.7,12.5-4.2,18.5-6.5l2.5-1c7-2.8,13.9-4.2,20.4-4.2s15.1,1.9,22.2,5.6c6.7,3.5,13.5,5.2,20.9,5.2s12.1-1.2,18.6-3.4c3-1.1,6-2.2,9-3.3,9.1-3.3,18.4-6.7,27.9-9.2,5.8-1.5,11.2-2.2,16.4-2.2,7.5,0,14.6,1.6,21.2,4.8,9.3,4.5,18.6,6.6,28.6,6.6,8.4,0,17-1.5,26.2-4.7,2.3-.8,4.5-1.6,6.9-2.4,9.3-3.3,18.9-6.7,28.8-8.7,3.7-.8,7-1.1,10.1-1.1,8.1,0,15.1,2.6,21.3,7.9,9,7.8,19.5,11.7,31,11.7s11.6-.9,17.8-2.7c5.2-1.5,10.4-3.1,15.5-4.7,4.5-1.4,9.5-2.9,14.4-4.4,6.5-1.9,12.8-2.9,18.8-2.9,9.1,0,17.9,2.2,26.2,6.5,9.3,4.9,18.8,7.3,29.1,7.3s15.6-1.4,23.9-4.1c3.1-1,6.2-2.1,9.4-3.2,8.5-2.9,17.3-5.9,26.2-8,5.5-1.3,10.8-1.9,15.7-1.9,9.4,0,17.9,2.3,25.8,7,7.3,4.3,14.7,6.4,22.8,6.4s11.1-1,17-2.9c4.2-1.4,8.4-2.9,12.4-4.4,7.8-2.9,15.8-5.8,24.1-7.6,3.7-.8,7.2-1.2,10.6-1.2,7.7,0,15,2,21.7,6,4.7,2.9,9,5.3,13.1,7.5,4.9,2.6,9.9,3.9,14.9,3.9s8.7-1,13-2.8c2.5-1.1,5.1-2.3,7.5-3.5h.3c1.3-.7,2.5-1.4,3.8-1.9l2-.9c3.8-1.8,7.8-3.6,11.7-5.4,5-2.3,9.8-3.4,14.3-3.4,7.3,0,14.1,3,20.1,9,2.2,2.1,4.6,4.1,7,5.9l1.1.9c4.2,3.4,8.4,5,12.9,5s7.3-1.1,11-3.3c3.1-1.9,6.4-3.8,9.8-5.3,2.4-1.1,4.8-1.6,7.2-1.6,6.6,0,12,4.2,14.2,11.1,2.3,7,3.6,12.9,4.1,18.5,1.2,12.5-5,23.4-16.3,28.4-5.8,2.6-9.9,6.6-11.8,11.7-1.9,5.1-1.5,10.9,1.3,16.8,1.9,4.1,4.2,7.2,6.8,9.5,6.4,5.5,7.6,12.1,3.8,20-.7,1.4-1.1,2.9-1.6,4.5-.1.4-.3.9-.4,1.3-2.9,9.1-2.5,17.3,1,24.5,4.5,9.1,5.7,18.9,3.7,29.9-1.5,8.4.3,15.4,5.6,21.3,2.1,2.3,1.7,4.3.4,6.5-7.4,12.7-7,16.6,2.6,27.7,2.5,2.9,4.7,5.6,6.8,8.2,1.9,2.5,3.2,4.9,3.9,7.4.8,2.7.8,4.2.2,5-.1.2-.6.7-2.1.7s-1.6-.1-2.8-.3c-1.4-.3-2.8-.4-4.2-.4-5.1,0-9.8,1.7-14.2,3.6-4.8,2-9,4.8-13.4,7.7-1.1.7-2.3,1.5-3.4,2.2-4.9,3.1-8.7,5.3-12.1,5.3s-6.6-2-11.8-6.1c-8.3-6.4-16.8-9.5-26.1-9.5s-10.4,1-15.9,2.9c-3.8,1.3-7.7,2.7-11.4,4.4-3.7,1.7-7.5,3.6-11.1,5.4-1.5.7-2.9,1.5-4.4,2.2-1,.5-2,1-3.1,1.5-2.6,1.3-5.3,2.6-7.9,4-3.8,2-7.3,3-10.7,3-4.9,0-9.4-2-13.8-6.1-9.6-8.9-20.4-13.4-32.1-13.4s-4.9.2-7.4.6c-5.3.8-10.9,2.1-17.3,4.1-4.8,1.5-9.7,3.2-14.4,4.9-6,2.1-12.2,4.3-18.4,6-5.5,1.6-11,2.4-16.3,2.4-8.3,0-16.5-2-24.4-5.9-1.5-.8-3.1-1.5-4.7-2.3-2.8-1.3-5.6-2.7-8.3-4.1-9.6-5.1-19.7-7.8-30.1-7.8s-13.7,1.1-20.7,3.2c-10.7,3.2-21,6.5-30.8,9.9-5,1.7-10,2.6-14.7,2.6-7.5,0-14.5-2.1-21.6-6.3-7-4.2-16.5-9.1-27.5-9.1s-1.7,0-2.5,0c-7.2.5-14.5,2.4-23,6.2-6.5,2.8-11.9,5.3-17.2,8-6.7,3.5-13.4,5.2-20,5.2s-13.4-1.8-20.1-5.4c-1.8-.9-3.5-1.7-5.5-2.6-1.2-.5-2.4-1.1-3.6-1.7-7.3-3.6-15.1-5.4-23.1-5.4Z"/>
      <path class="st4" d="M1081.2,305c.1-8.2-4-15.8-9.1-22.7-7.9-10.7-17.6-19.1-30.7-22.9-1.2-.3-2.4-1.1-3.4-1.8-5.4-3.8-5.3-7.7.1-11.4,5.7-3.9,11.4-7.7,17.1-11.6,51.7-35.5,103.4-70.9,155.1-106.4,1.4-.9,2.8-1.9,4.2-2.7,2-1.1,4-1.1,5.7.4,1.8,1.5,2,3.4,1.3,5.6-1.7,5-4.5,9.4-7.6,13.6-22,30.3-43.9,60.5-65.9,90.8-17.6,24.2-35.2,48.4-52.9,72.7-.4.6-.9,1.2-1.3,1.8-2.8,3.7-6,5-9.6,3.8-4.3-1.5-3.7-5-3.1-9.2ZM1090.7,298c3.7-5.1,6.7-9.3,9.7-13.5,3.9-5.3,4.7-11.1,2.4-17.2-1.2-3.1-2.7-6.1-4-9.2-4.3-10.7-12.8-17-22.6-22-1.5-.8-3-1.6-4.7-.5-7.4,5.1-14.8,10.1-22.7,15.5,20.6,10,34.8,24.6,41.8,46.8ZM1082.7,228c7.8,4.8,14.6,9.4,19.6,16,4.9,6.5,7.4,14.4,11.2,22.5,6.6-9.1,12.7-17.6,18.9-26.1,1.1-1.6.5-3.2,0-4.8-3-11.7-10.8-19.2-21.6-23.9-1.6-.7-3-1-4.7.1-7.6,5.3-15.3,10.6-23.5,16.3ZM1140.8,228.9c6.5-9,12.4-17.1,18.3-25.1,1.7-2.3,1.5-4.4,0-6.7-2.9-4.5-7.1-7.4-11.5-10.3-2.1-1.4-3.5-1.1-5.4.2-6.8,4.8-13.7,9.5-20.6,14.3-1.1.8-2.8,1.2-2.9,3.3,10,5.1,17.7,12.6,22.1,24.3ZM1153.9,179c5.8,3.7,10.1,7.7,13.9,12.8,10.3-14.2,20.3-28.1,30.4-41.9-.3-.3-.6-.5-.9-.8-14.2,9.8-28.4,19.5-43.4,29.9Z"/>
      <path class="st4" d="M638.6,26.9c1.3,2,1.5,4.1,2.1,6.1,12.2,43.1,21.9,86.9,33.6,130.1,3,11.3,6.6,22.5,9.9,33.7.6,2,1.3,3.9,1.2,6-.2,2.7-1.5,4.9-4.4,4.7-3.1-.2-6.2.1-9.4-.9-23.8-7.9-47.5-8.3-70.8,2.2-4.4,2-7.2.4-8.1-4.4-1.2-6.6.5-13,2-19.3,1.3-5.6,2.4-11.3,2.5-17.1,0-4.6,2.3-8.5,3.1-12.9,6.8-38.1,14.7-76,24.9-113.5,1.2-4.5,2.7-8.9,4.1-13.3.8-2.3,2.5-3.7,4.9-3.9,2.1-.2,3.5,1,4.3,2.4ZM673.6,196.3c-1.2-4-2.3-7.2-3.2-10.4-1-3.4-2.5-6.7-2.9-10.2-.9-8.3-5.5-11.6-13.5-13-14.3-2.3-28.2-2-41.9,2.5-1.9.6-3.9,1.1-4.4,3.7-1.7,9.1-3.7,18.2-5.7,28.3,12.5-3.5,23.7-6.8,35.6-6.5,12,.3,23.6,2.5,36,5.6ZM661.4,154.4c-1.9-7.8-3.7-15-5.4-22.2-.5-2-1.7-2.8-3.6-3.6-11.5-4.9-23-2.4-34.6-.5-1.7.3-2.6,1-3,2.7-1.5,7.8-3,15.6-4.7,24.3,17.2-4.9,33.7-5.2,51.2-.8ZM617.4,117.9c12.2-1.7,23.3-3.7,34.9,0-2-8.1-3.8-15.2-5.5-22.4-.5-2.2-1.8-3.4-3.9-4.3-6.1-2.5-12.1-.9-18.1.2-1.5.3-1.9,1.6-2.2,2.9-1.7,7.6-3.3,15.2-5.2,23.7ZM642.9,80.3c-2.7-11.2-5.3-21.5-8.9-31.5-3.4,10.4-5.9,20.8-8.1,31.8,5.7-.4,10.9-1.2,17-.3Z"/>
      <path class="st4" d="M319.2,92.8c.3,4-2.3,5.1-4.7,6-6.7,2.5-12.8,5.9-18.8,9.7-12.3,7.7-21.1,18-24.9,32.3-1.7,6.1-4.5,6.7-9.6,3.2-3.2-2.2-5.3-5.1-7.4-8.2-21.9-32.8-43.7-65.6-65.6-98.4-.7-1.1-1.5-2.2-2-3.3-.9-2-1.1-4,.4-5.8,1.6-1.9,3.7-2.3,6.1-1.2,4,1.9,8.1,3.7,12.1,5.7,35.9,18,71.8,36,107.6,54.1,2.9,1.5,6.3,2.6,6.9,5.9ZM302.7,93.2c-6.7-3.4-12.2-6.2-17.6-8.9-1.3-.7-2.5-1.3-4.1-.6-10.5,4.4-18.8,11-23.3,21.9-1.2,3-1.5,6.6-4.7,8.6-1.1.7-.6,1.6,0,2.4,3.4,4.7,6.2,10,10.3,14.7,7.6-18.2,21.5-29.5,39.4-38.1ZM270.8,77.1c-6.5-3.2-12.2-5.9-17.7-9-2.6-1.4-4.5-1-6.6.7-6.2,4.8-9.6,11.2-11.2,18.7-.3,1.2-.3,2.2.4,3.2,3.5,5.2,6.9,10.5,10.9,16.5,3.7-13.9,12.7-22.6,24.2-30.1ZM227.5,78.4c3-7,6.7-12.3,12.1-17-11.3-5.6-22.1-11-32.9-16.4l-.7.9c7,10.5,14,21.1,21.6,32.5Z"/>
      <path class="st4" d="M1026.7,585.3c-.6,0-1.2-.2-1.9-.6-2-1.1-2.5-2.6-1.9-6.4,1-6.8,2.9-13.5,5.1-20.8.4-1.4.8-3.2-.2-4.8-1-1.6-2.7-2.1-4-2.3-.9-.2-1.7-.3-2.5-.5-2.8-.6-5.7-1.1-8.6-1.2h-.2s-.2,0-.2,0c-.6,0-1.1.2-1.6.2-1,.2-1.9.3-2.7.3h-.2c-3.6,0-3.8-1.4-4-2.2-.2-1-.5-2.8,3.2-3.5,6.3-1.3,12.2-3.8,17.8-6.3,2-.9,4-1.8,6-2.6,3.8-1.5,6.1-3.9,7.5-7.9,2.8-7.8,5.9-15.3,9.4-23.7,1.3-3,2.7-5.7,4.3-7.9,1.5-2.1,3.2-3.3,4.9-3.3s3.6,1.4,5,3.8c2.5,4.5,3.8,9.6,5,14.1.3,1.1,1.2,4.5,4.4,4.5s2.1-.4,3.5-1.2c3.3-1.9,6.8-3.7,10.2-5.4l2.1-1.1c1.5-.8,2.6-1.1,3.6-1.1s1.5.3,2.2.9c1.2,1.1,1.6,2.3.2,5.6-3.4,7.9-8.8,14.5-13.7,20-3.2,3.6-3.9,7.1-2.2,11.8,1.6,4.5,3,9.3,4.3,13.9.5,1.9,1.1,3.8,1.7,5.7v.4c.3.7.5,1.4.7,2.1.6,3.2.3,4.7-1.3,5.8-.6.4-1.2.6-1.8.6-1,0-2.1-.4-3.6-1.3-3.5-2.1-7.2-3.8-10.8-5.4-1.8-.8-3.6-1.6-5.3-2.5-1.8-.9-3.4-1.3-5-1.3-2.5,0-4.7,1.1-6.9,3.5-4.5,4.8-9.4,9.3-14.1,13.8-1.3,1.2-2.6,2.4-3.8,3.6-1.6,1.5-3,2.6-4.4,2.6ZM1037.8,555.1c-3.5,0-4.3,3.1-5.5,7.4-.1.5-.3,1-.5,1.5-.6,1.9-1.3,4-1.1,6.9l.5,5.1,3.5-3.8c1.2-1.3,2.6-2.6,3.9-3.8,2.5-2.3,5.1-4.7,7-7.9l1.3-2.2-2.4-1c-3.3-1.4-5.1-2.1-6.7-2.1ZM1058.3,556.2l19,8.4-.9-4.4c-1.2-5.6-2.6-9.7-4.3-14.1l-1.3-3.4-12.3,13.5ZM1062.9,526.5c-1.3,0-2.8.4-4.7,1.3l-2.8,1.4c-3.6,1.8-7.4,3.6-11.1,5.2-5.5,2.4-6.1,7.8-6.4,11.1-.4,4,3.3,4.8,4.9,5.2.6.1,1.3.3,1.7.5.8.5,1.6.7,2.3.9.4.1.8.2,1.1.4,1.1.5,2.2.8,3.3.8,1.9,0,3.7-.9,5.3-2.8,2-2.3,4-4.6,6.1-6.8,1.2-1.3,2.4-2.6,3.5-3.9l.3-.3c1-1.1,2.5-2.7,2.2-5.2,0-6.4-3-7.8-5.5-7.8ZM1054.3,502c-3,6.3-6.1,13.1-8.5,20.9l-1.3,4.1,4.1-1.2c7.6-2.3,11.4-3.7,13-6.9,1.6-3.2.5-7-1.5-13-.2-.7-.5-1.3-.9-2.1-.2-.5-.5-1-.8-1.7l-2-4.6-2.2,4.5Z"/>
      <path class="st4" d="M376.9,625.4c-.7,0-1.4-.3-2.2-.8-1-.8-1.1-1.4,0-4.3,1.3-3,2.2-6.2,3.1-9.2v-.5c2.3-7.5,1.6-8.7-6.1-11.1-2.6-.8-5.5-1.4-9.2-1.8-2.6-.3-2.9-1.3-3.1-2.3-.2-1.2,0-2.6,2.5-3.5,7.5-2.7,14.4-5,21-7.2,3.6-1.2,5.8-3.2,7.3-6.5,2-4.5,4.3-9,6.5-13.3l1.3-2.5c.7-1.4,1.7-2.8,2.8-4.3,1.3-1.7,2.3-1.9,2.9-1.9s.6,0,1,.2c1.1.3,2.1,1,2.6,3.6.5,3.4,1,6.3,1.2,9.2.3,4.3,3.1,4.8,4.3,4.8s1.5-.1,2.4-.4c2-.6,3.9-1.3,5.9-1.9,2.6-.9,5.3-1.7,7.9-2.6,1.4-.5,2.6-.8,3.7-.8s.2,0,.3,0c1.5,0,2.6.6,3.1,1.5.5.9.4,2.1-.2,3.4-.9,1.9-2.5,3.4-4.2,5l-2.4,2.3c-3.6,3.5-7.4,7.2-11.3,10.5-2.7,2.4-3.5,5-2.5,8.6,1.2,4.5,2.7,10.1,3.7,15.5.3,1.8,0,3.3-.7,4.2-.6.7-1.5,1.1-2.6,1.1s0,0-.1,0c-2.5-.4-4.8-1.7-7.2-3-.7-.4-1.4-.8-2.1-1.2h-.1c-4.6-2.5-7.1-3.9-9.7-3.9s-5.5,1.9-10,5.7c-1.4,1.1-2.7,2.3-4,3.4-.9.8-1.8,1.6-2.8,2.4-1.1,1-2.2,1.4-3.1,1.4ZM402.2,584.2c-.7,0-1.4,0-2.2.2-5.9,1.2-9.5,4.7-11,10.8,0,.2-.1.4-.2.6-.4,1.1-1.4,4,2,5.7h.2c1.1.7,2.3,1.3,3.8,1.3h0c1.3,0,2.6-.5,3.7-1.6,1.6-1.5,3.3-2.9,5-4.4.7-.6,1.4-1.2,2.1-1.8.7-.6,2.5-2.1,2.3-4.6,0-2.1-.4-3.7-1.5-4.8-1-1-2.3-1.5-4-1.5Z"/>
      <path class="st4" d="M1219.6,448.7c-1.7,0-3.8-.6-5.8-5.1-8.4-18.6-11.6-36.5-9.8-54.7.6-6.5,2.4-11.7,5.6-16.1,2.7-3.8,6.5-5.9,10.5-5.9s6.8,1.5,9.6,4.3c4.5,4.5,5.8,10.4,7.1,17.6l.6,3.7,3-2.3c1-.8,2-1.5,3-2.3,2-1.6,3.9-3,5.9-4.4,2.1-1.5,4.5-2.6,7.4-3.3,1.4-.4,2.8-.5,4.1-.5,3.4,0,6.5,1.3,8.5,3.5,2.3,2.5,3.3,6.1,2.8,10.2-.5,4.5-1.8,8.7-3.8,12.4-11,20.1-25.3,33.7-43.7,41.6-1.9.8-3.5,1.2-4.8,1.2ZM1220.1,372.4c-2.4,0-4.5,1.3-6.3,3.8-2.1,2.9-3.4,6.4-4.1,10.8-2.2,15.1,0,30.4,7,49.7,1,2.7,2,5.6,5.1,5.6s3-.7,5-1.8c16.1-8.3,28.7-21.4,37.5-38.9,1-2,1.7-4.2,2.2-7,.6-3.4.1-6-1.3-7.7-.7-.9-2.1-1.9-4.4-1.9s-3,.4-4.7,1.2c-10.1,4.7-16.1,11.4-18.4,20.7-.4,1.5-1.1,2.7-2.1,4.1-1.5,2-2.4,2-2.7,2s-.7,0-1.1-.3c-.6-.3-1.9-.9-1.4-3.6.8-4.2.8-8.5.7-12.6,0-1,0-1.9,0-2.8,0-2.1,0-4.2,0-6.4-.3-3.4-1.1-8.3-4.8-12.1-1.9-2-3.9-3-6-3Z"/>
      <path class="st4" d="M158.9,443.4c-1,0-2.2-.2-3.5-.5-19.7-5.2-35.6-14-48.7-26.8-4.6-4.6-7.6-9.3-9-14.4-1.1-4.1-.6-8.1,1.4-11.1,2.1-3.1,5.6-5,10-5.5.7,0,1.3-.1,2-.1,5.5,0,10.6,2.6,16.1,5.7l3.3,1.8v-3.8c.2-1.3.2-2.5.2-3.7,0-2.6.1-5,.3-7.3.2-2.6.9-5.1,2.1-7.8,2.3-5,6.3-7.9,10.8-7.9s6.4,1.5,9.2,4.3c3.2,3.2,5.6,6.8,7.2,10.8,8.7,21.2,10.2,40.8,4.7,60.1-1.5,5.2-3.5,6.3-6.2,6.3ZM111.5,390.2c-.4,0-.9,0-1.3,0-2.9.3-5.1,1.3-6.3,3.1-1.3,1.8-1.5,4.1-.8,7,.9,3.5,2.8,6.7,5.8,10,10.3,11.3,23.6,19.3,43,25.9,1.9.7,3.2,1,4.3,1,3.6,0,4.3-3.4,5-6.4,3.7-17.7,1.5-35.7-6.5-53.6-.9-2-2.2-4-4.1-6.1-2.2-2.5-4.5-3.8-6.7-3.8s-4.9.9-6.4,6.6c-2.8,10.8-1.3,19.7,4.5,27.3.9,1.2,1.4,2.6,1.9,4.2.8,2.9,0,3.5-1,4.1-.4.2-.8.3-1.2.3-1,0-1.9-.8-2.5-1.5-2.8-3.3-6.1-5.9-9.4-8.5-.7-.6-1.4-1.2-2.1-1.7-1.6-1.4-3.2-2.7-5-4-2.5-1.7-6.4-4-11.1-4Z"/>
      <path class="st4" d="M485.9,135.6c-4.6,0-9.2-.9-13.6-1.9-13.1-2.8-23.9-7.8-33-15.4-4.8-4-8.1-8.5-10.2-13.7-1.9-4.8-1.7-9.3.6-12.7,2.2-3.1,5.9-4.9,10.6-4.9s1.5,0,2.2.1c3.2.4,6.3,1.4,9.6,2.5,1.4.5,2.8.9,4.3,1.4l3,.9v-3.2c-.1-.7-.1-1.4-.2-2.1-.1-3.3-.2-6.1.3-8.8,1.3-6.2,5.4-10.1,10.9-10.1s5.2.9,7.7,2.6c3.1,2.1,5.8,5,8.5,9.1,9.6,14.5,14.3,29.2,14.3,44.8,0,5.8-2.9,9.2-8.8,10.5-2,.4-4.1.7-6.4.7ZM440.2,92.4c-2.5,0-4.4.9-5.9,2.8-2.4,3.1-.9,6.2.1,8.3.1.3.3.6.4.8,1.7,3.8,4.4,7.2,7.9,10,11.9,9.4,26.1,14.8,42.3,15.9.6,0,1.2,0,1.8,0,2,0,4.5-.2,6.3-2.1,2.1-2.2,2.5-5.8,2.3-10.9h0c-1.1-11.4-5.8-23.8-13.4-35-1.4-2-2.9-4.3-5.1-6-2.3-1.9-4.3-2.8-6.2-2.8s-5.1.9-5.9,7.2c-1,7.9.8,13.9,5.6,18.3,2.3,2.1,1.7,3.2.9,4.3-1,1.3-2,1.3-2.3,1.3-.7,0-1.6-.3-2.5-.9-.2-.1-.3-.2-.5-.4-.3-.2-.5-.4-.8-.6-6.3-4.4-13.5-7.6-21.4-9.6-1.4-.4-2.6-.5-3.7-.5Z"/>
      <path class="st4" d="M1304.1,848.3c-2.5,0-5-1.9-6.6-5.2-2.1-4.4-3.1-9.1-3.8-14.9-2.1-15.9-1.6-30.2,1.7-43.5,1.5-6.3,3.5-10.6,6.5-14.1,2.3-2.7,4.8-4.1,7.4-4.1s5.7,1.9,7.7,5.3c1.3,2.2,2.1,4.8,3,7.7.3.9.6,1.9.9,2.9l.9,2.6,2.4-1.3c4.6-2.5,8.2-4.2,12.1-4.9,1.1-.2,2.2-.3,3.3-.3,8.4,0,14.7,6.2,15.1,14.8.3,7.2-2.2,14-8,22.2-9.1,12.8-21.9,23-40.1,32.1-.8.4-1.6.6-2.4.6ZM1308.9,772.9c-2.9,0-4.1,2.6-4.7,3.8l-.4.9c-1,2.1-2,4.3-2.7,6.7-4.3,16.1-4.5,32.8-.8,50.8.4,2,.9,4.5,3.3,6.3l1.1.9,1.3-.6c15.2-7.2,27.4-17.2,36.4-29.5,3.6-5,7-10.6,6.8-17.7-.1-6.4-3.9-10.5-9.6-10.5s-2.1.1-3.2.4c-7.2,1.7-12.3,5.2-15.4,10.5-1.3,2.3-2.3,3.1-3.4,3.1s-.7,0-1-.2c-1.7-.5-1.9-1.1-1.3-4.7v-.2c.9-6,.2-11.2-2-16,0-.2-.1-.3-.2-.5-.4-1.1-1.4-3.5-4.2-3.5h0Z"/>
      <path class="st4" d="M97.7,640.7c-2.9-.5-5.4-2.1-7.6-4.8-2.1-2.6-4.2-5.2-6.2-7.8-1.3-1.6-2.5-3.2-3.8-4.8-3.9-4.9-7.9-9.1-12.1-12.8-1.8-1.6-2.7-2.8-2.8-3.8,0-.9.6-2.2,2.1-3.8,7.3-8.1,12.2-17.5,16.6-26.4,1.1-2.2,2.8-4.9,4.7-4.9s2.9,1,4.8,3c9.5,10.1,17.6,21,24.1,32.7,1,1.7.8,2.9-.6,4.4-6.3,6.8-11.4,15.2-15.8,25.7-1,2.5-2,3.1-3.3,3.3ZM87.8,581.1c-.8,1.4-1.6,2.8-2.3,4.2-2.6,4.7-5,9.1-7.8,13.1-4.9,7.1-4.8,8.3.7,14.7l.3.3c3.5,4,6.8,8.1,10.4,12.4,1.6,1.9,3.1,3.8,4.8,5.8l2.2,2.6,1.6-3c3.7-6.8,7.4-13.7,12.2-19.8,2.3-2.9.6-5.6,0-6.6-5.4-8.8-11.4-16.7-18.4-24.2l-2.1-2.3-1.5,2.7Z"/>
      <path class="st4" d="M1045.4,1018.3c0-.8.6-1.7,1.6-2.4,8-5.7,14.4-13.6,19.4-24.1.8-1.8,1.7-2.8,2.6-3.1,1-.3,2.5.2,4.5,1.5,7.4,4.6,15.2,9.6,25.5,16l.8.5c1.8,1.2,3.9,2.5,6.5,3,2,.4,2.1,1.6,2.1,2,0,.1,0,.2,0,.3,0,1.2-.5,2.1-1.6,2.8-.7.4-1.4.8-2.2,1.2-.5.3-1.1.6-1.6.9l-1.6.9c-7.7,4.4-15.4,8.7-23.1,13.1-.2.1-.4.3-.6.4-.5.3-1.3.8-1.6.8h-.2s-.2,0-.2,0c-1.1,0-1.7-.2-2.4-.5-6.1-3.5-12.7-5.7-19.1-7.9l-3.1-1.1c-1.1-.4-2.2-.7-3.1-1.2-1.5-.8-2.5-2-2.5-3ZM1090.5,1007.4c-5.2-3.2-10-6.2-14.9-9.2-.1,0-.3-.2-.4-.3-.8-.6-2.1-1.5-3.7-1.1-1.1.3-2,1-2.7,2.3-2.7,5.1-6.4,10.1-12,16.2l-2.2,2.4,7.2,3c3.6,1.5,6.9,2.8,10.2,4.2,2.2.9,4.3.8,6.3-.3l20.8-11.9-8.7-5.4Z"/>
      <path class="st4" d="M740.3,108.6c-.3,0-.5,0-.8-.2-1-.4-2-1-1.9-4.1,0-1.5,1.9-4.3,5.3-5.6,2.5-1,5.3-1.4,9.1-1.4,8.6,0,10.3-1.5,12.2-10.1.2-.9.4-1.8.6-2.7.4-2,.8-3.9,1.3-5.8,1.4-4.7,4.2-7.4,8.6-8,5.4-.7,9.3-3.7,11.7-9.2,1-2.3,2-4.6,2.8-6.9,2.4-6.5,6-10.4,11.9-12.8,5.6-2.2,9.2-6.7,12.7-11,1.1-1.4,2.2-2.7,3.4-4,.7-.7,1.2-1.5,1.8-2.2.7-.9,1.4-1.7,2.1-2.4.6-.6,1.2-.9,1.8-.9s1,.2,1.5.5c.7.5,1.2,1,.5,3.5,0,.1-.1.4-.3.6-1.1,1.4-2.3,2.8-3.4,4.2-5.8,7.3-11.2,14.2-19.9,17.6-3.5,1.3-5.1,4.1-6.3,6.9-.5,1.1-.9,2.2-1.4,3.3-1.2,2.8-2.3,5.6-3.7,8.3-2.8,5.3-6.8,8.4-12,9.2-4,.6-6.5,2.9-7.4,7.1-.3,1.1-.5,2.3-.7,3.4-.5,2.4-.9,4.6-1.5,6.7-2,6.8-5.3,9.4-12.5,9.7-.6,0-1.3,0-1.9,0-1.6,0-3.2.1-4.9.2-3.1.3-5.5,1.9-7,4.8-.3.5-.8,1.1-1.6,1.1Z"/>
      <path class="st4" d="M1115.5,80.1c-.9,0-1.8-.9-2.4-2.2-.8-2-.8-3.8,0-5.1.8-1.3,2.2-2,4.2-2.2.5,0,1.1,0,1.7,0,1.1,0,2.3,0,3.5.2.8,0,1.5.1,2.3.1.7,0,1.3,0,1.9,0h0c1.6,0,3.2-.2,4.4-1.3,1.4-1.4,1.4-3.7,1.4-6.2,0-.9,0-1.9-.1-2.8,0,0,0,0,0-.1v-1c0-.7,0-1.3,0-2,0-1.4,0-2.7,0-4,.4-5,2.8-7.7,7.7-8.7h.3c.2-.1.5-.2.6-.2.7,0,1.3.1,1.9.1,9.7,0,10.6-8.8,10.8-11.7.4-4.3,3.3-7.1,7.4-7.1h.1c8.3,0,18.3-1.8,21.1-15.7.6-3,3.5-5.6,6.3-8l.8-.7c1-.9,2-1.4,2.8-1.4s.9,0,1.6.8c.6.6.9,1.1.9,1.7,0,.8-.5,1.6-1.3,2.4-4.6,4.3-7.7,9.6-9.8,16.7-1.6,5.3-5.5,8.3-11,8.3h-.6c-7.3,0-14.1,1.5-15,12.6-.2,2.7-1.5,6.3-10.2,7-8.9.7-9.8,1.8-9.2,10.8,0,.4,0,.8,0,1.2,0,.7.1,1.4.1,2.1.2,4.7-.7,8-2.6,10-1.8,1.9-4.7,2.8-8.9,2.8-.4,0-.8,0-1.2,0h-.3c-.5,0-.9,0-1.4,0-2,0-4.4.4-6.5,3-.4.4-.9.9-1.6.9Z"/>
      <path class="st4" d="M1265.5,712.6c-.1,0-.2,0-.3,0-.6,0-1.6-.1-2.1-2.7-1.9-9.3,6.2-23.5,15.5-27,2.6-.9,5.2-1.4,7.8-1.4s1.4,0,2.1.1c.5,0,.9,0,1.4,0,4.3,0,7.3-2.2,9-6.7,1.7-4.3,3.6-9.2,5.8-13.8,4.1-8.7,9.8-12.8,18.1-12.9,4.1,0,7.8-1.7,11-5,2.2-2.2,4.5-4.3,6.8-6.4l1.7-1.5c1.2-1.1,2.2-1.6,3-1.6s1.2.3,1.9.9c.4.3.6.7.6,1.2,0,1-.6,2.1-1.7,3.3-2.9,2.9-6.1,5.7-9.1,8.5-.9.8-1.8,1.6-2.7,2.5-2.4,2.2-5.5,3.3-9.1,3.3h-.2c-7.6,0-12.8,3.7-15.9,11.4-1.9,4.6-3.9,9.5-6.1,14.3-2.5,5.5-6.5,8-12.6,8h-.9c-12,0-18.6,5.7-20.6,17.9-.1.9-.2,1.7-.3,2.6,0,1-.2,2-.4,2.9-.4,2-1.5,2.2-2.5,2.2Z"/>
      <path class="st4" d="M122.9,903.1c-1.5,0-2.1-1.4-2.2-2.3-1.6-7.8-5.8-13.3-12.9-16.9-4-2-4.8-6.5-5.2-11.1-.3-3.8-1.4-7.5-7.7-7.8-5.1-.3-7.4-2.7-8.2-8.4,0-.4,0-.8-.1-1.2,0-.5,0-1-.2-1.5-1.4-10-2.2-10.7-12.5-11.8-3.4-.4-5.8-1.5-7.2-3.3-1.4-1.8-1.9-4.5-1.3-7.9.5-3,1.5-5.8,3.3-8.3,1-1.5,2.2-2.2,3.6-2.4.9,0,1.6.4,2,1.1.3.4.6,1.2,0,2.4-.3.7-.8,1.4-1.3,2.1-1.4,2.2-3.4,5.2-1.8,8.4,1.6,3.1,4.9,3.1,6.4,3.1s.8,0,1.2,0c.4,0,.7,0,1.1,0s1.1,0,1.6.1c5,1.1,7.8,3.9,9,9,.2.8.3,1.6.4,2.4.3,4.7.8,11.8,10.7,12.1,4.9.1,5.6,6.7,5.7,8,.5,7,3.1,11.2,8.7,14.3,5.3,2.9,8.3,8.1,9.4,16.4.4,2.8-.6,3.2-1.8,3.5-.3,0-.6.1-.8.1Z"/>
      <path class="st4" d="M875.4,216.7c-.6,0-2.1-.4-4.4-3.5l-2.6-3.4c-3.5-4.5-7.1-9.2-10.5-13.8-2.8-3.9-2.8-4,.3-7.9,3.2-4,6.3-8.2,9.3-12.2,1.7-2.3,3.5-4.6,5.2-6.9,1.1-1.5,1.7-3,2.2-4.5l.2-.6c.6-1.6,1.7-2.4,2.4-2.4s1.2.6,1.5,1.1c3.6,5.9,6.9,12.2,10,18.3,1.1,2.2,2.3,4.3,3.4,6.5,0,.1,0,.5.1.7,0,.1,0,.2,0,.3-.1,1-.4,2-1.1,3.1-2.3,4-4.6,8-6.9,12-1.8,3.1-3.5,6.2-5.3,9.3-1.5,2.6-2.9,4-4.1,4ZM877.2,174.2c-.8,0-1.9.3-3,1.8-1,1.4-2.2,2.8-3.5,4.2-3.1,3.5-6.3,7.1-7.1,11.6-.8,4.2,2.6,7.7,5.6,10.7,1.1,1.1,2.1,2.2,2.9,3.2.4.5.9.7,1.3.9.2,0,.4.2.7.3l1.9.9s7.6-13.2,9.6-16.9c1.1-2,1.1-4,0-6-1-1.6-2-3.3-2.9-4.9-.7-1.2-1.4-2.4-2.1-3.6-.9-1.5-2-2.2-3.2-2.2Z"/>
      <path class="st4" d="M453.9,1024.1c-3.2,0-6.5-.9-9.6-2.6-1.2-.6-2.2-1.2-2.9-2-.9-1.1-.8-1.8-.3-2.6.7-1.2,1.4-1.3,2-1.3s.2,0,.4,0c.5,0,.6.1.6.1,3,1.9,6.1,2.9,9.3,2.9,5.6,0,10.6-2.9,14.8-5.7,3.7-2.4,7.8-5.1,12.3-7,2.7-1.2,5.1-1.7,7.2-1.7s3.4.4,4.9,1.2c1.5.8,3,1.2,4.5,1.2,2.9,0,5.2-1.6,6.7-2.8,4.4-3.6,8.4-6.7,12.2-9.6,3.6-2.7,7.1-4.4,10.5-5,.5,0,1.1-.1,1.6-.1,2.1,0,4.1.8,5.5,2.2,1.3,1.3,2,3.1,2,5,0,2.9-1.2,3.2-1.9,3.4-.3,0-.5.1-.8.1-1.1,0-1.6-.8-1.9-1.5-1-2.9-2.9-3.5-4.2-3.5s-2.2.5-3.3,1c-3.4,1.7-6.4,4-9.2,6.3l-.8.6c-.8.6-1.6,1.3-2.4,1.9-2.3,1.9-4.7,3.8-7.2,5.5-2.2,1.5-4.4,2.3-6.5,2.3s-3.2-.4-4.8-1.3c-1.7-.9-3.5-1.3-5.3-1.3s-4.3.6-6.5,1.9c-2.5,1.4-5,2.9-7.4,4.3-2.8,1.7-5.6,3.4-8.5,4.9-3.8,2.1-7.5,3.2-11.1,3.2Z"/>
      <path class="st4" d="M81.6,1013.8c-1.8,0-3.6-.2-5.6-.6-1.7-.4-4.6-1.3-4.2-3.4.2-.9.3-2,3.7-2s.9,0,1.4,0c.3,0,.7,0,1,.1h.6c.9.2,1.8.3,2.8.3,3.5,0,6.9-1,10-3,3.1-2,6-3,8.7-3s4.5.7,6.7,2c1.1.7,2.2,1,3.3,1s2.6-.5,3.9-1.6c2.6-2.2,5.5-3.2,8.7-3.2s5.2.6,8.4,1.9c2.9,1.1,4.9,1.9,6.7,1.9,3.1,0,4.7-2,7.7-5.8,3.4-4.2,6.7-6.3,10.2-6.3s2.7.3,4.2.9c1.5.6,2.7,1.5,3.7,2.6,1.5,1.7,1.1,2.8.4,3.7-.5.6-1.1,1-1.7,1s-.8-.1-1.1-.4c-1.8-1.3-3.4-2-5.1-2-3.5,0-5.7,2.9-7.2,4.9-4.3,5.6-6.6,7.4-9.6,7.4s-4.5-.7-8.6-2.4c-2.8-1.2-5.1-1.7-7.2-1.7-3.1,0-5.9,1.1-8.6,3.5-1.3,1.1-2.7,1.7-4.2,1.7s-2.3-.4-3.5-1.1c-2.3-1.5-4.6-2.2-6.9-2.2s-5.1.9-7.9,2.7c-3.1,2-6.6,3-10.5,3Z"/>
      <path class="st4" d="M218,437.2c-.7,0-1.4-.1-2.1-.4-2-.7-4-2-3.6-3.4.4-1.5,1.1-2,2.6-2s1,0,1.6.2c.5,0,.9.1,1.3.1,2.2,0,4.1-1,5.8-1.8.5-.2.9-.5,1.4-.7,3.3-1.5,6.9-3,10.6-3s2.3.1,3.5.5c.6.2,1.2.2,1.7.2,2.5,0,4.1-1.6,5.3-2.8,3.2-3.3,6.9-4.9,10.8-4.9s4.7.5,7.2,1.5c1.6.7,3,1,4.3,1,2.8,0,5-1.5,6.7-4.6,2.4-4.2,5.1-7.3,8.5-9.4,2.2-1.4,4.5-2.1,6.8-2.1s5.6,1.2,7.7,3.3c2.3,2.4,1.7,3.5,1,4.4-.8,1-1.4,1-1.6,1-.6,0-1.3-.3-2-.9-1.7-1.5-3.5-2.2-5.3-2.2s-4.4,1.2-6.5,3.6c-1.7,1.9-3.1,4-4.5,5.9-.5.8-1.1,1.5-1.6,2.3-2.5,3.5-4.7,4.9-7.3,4.9s-2.7-.3-4.4-1.1c-2.9-1.2-5.5-1.8-7.8-1.8-4.2,0-7.9,1.9-11.2,5.8-1.1,1.3-2.6,2-4.3,2s-1.3-.1-2-.3c-1.5-.5-3.1-.7-4.6-.7-2.7,0-5.5.7-8.3,2.2-1.7.9-3.5,1.5-5.4,2.2-.7.2-1.4.5-2.1.8-.6.2-1.2.3-1.8.3Z"/>
      <path class="st4" d="M1121.2,452.4c-.7,0-1.5,0-2.3-.2-.9-.1-1.8-.2-2.8-.2h-.3s-.2,0-.2,0c-1.1.2-2.2.3-3.3.3-5.4,0-9.8-2.5-13.3-7.6-1.9-2.8-4.2-3.4-5.9-3.4s-2.8.4-4.4,1.2l-1.2.6c-2.2,1.2-4.4,2.3-6.6,3.2-1.7.6-3.1,1-4.4,1-2.5,0-4.6-1.2-6.9-4-4.7-5.8-7.1-8.7-10.8-8.7s-5.8,2-11.3,6c-.7.5-1.5,1-2.2,1.3-.5.1-.9.2-1.3.2-.9,0-1.5-.3-2-1.2-.4-.7-.7-1.6.5-2.9,2.2-2.4,4.6-4.4,7.2-6.1,3-1.9,5.9-2.9,8.8-2.9s7.4,1.7,10.6,4.9c1.2,1.2,2.3,2.7,3.5,4.5,1.3,2,3,3,4.8,3s2.2-.4,3.4-1.1c1.8-1.1,3.9-2.2,6.2-3.2,2.5-1.1,4.6-1.6,6.5-1.6,3.1,0,5.8,1.5,8.2,4.6,3.7,4.7,8.1,6.9,13.7,6.9s1.1,0,1.7,0c.4,0,.9,0,1.3,0,1.2,0,2.4.1,3.7.3,2.5.4,2.5,2,2.5,2.6,0,.6,0,1.8-2.5,2.4-.4.1-.9.2-1.4.2Z"/>
      <path class="st4" d="M889.9,1032.2c-.5.6-1.4,1-2.1,1.1-1.1.3-2.4.1-3.7,0-.9-.1-1.9-.2-2.9-.2h-.2s-.2,0-.2,0c-7,1.2-12.4-1.2-16.6-7.3-1.4-2.1-4.6-5.1-10.3-2.2l-1.2.6c-2.2,1.2-4.4,2.3-6.6,3.2-4.8,1.9-7.9,1.1-11.2-3-9-11-10.4-11.2-22-2.6-.7.5-1.5,1-2.2,1.3-2,.6-2.8-.1-3.3-.9-.4-.6-.7-1.4.1-2.5s.2-.3.3-.4c2.2-2.4,4.6-4.4,7.2-6.1,6.8-4.4,13.7-3.7,19.4,2,1.2,1.2,2.3,2.6,3.6,4.5,2.9,4.3,6.4,3,8.2,1.9,1.8-1.1,3.9-2.2,6.2-3.2,6.4-2.9,10.9-2,14.8,2.9,4.1,5.1,9,7.3,15.4,6.8,1.5-.1,3.2,0,5,.3,2.5.4,2.5,2,2.5,2.6,0,.5-.1.9-.4,1.2Z"/>
      <path class="st4" d="M1363.3,938c.3.7.2,1.7,0,2.4-.3,1.1-1,2.2-1.8,3.3-.5.8-1.1,1.6-1.6,2.5h0c0,.1,0,.3,0,.3-2.3,6.7-7,10.3-14.3,11.1-2.5.3-6.7,1.7-6.8,8v1.4c0,2.5,0,4.9-.3,7.3-.6,5.1-2.8,7.4-8,8.5-13.9,2.7-14.8,3.9-12.8,18.2.1.8.2,1.8,0,2.6-.4,2.1-1.4,2.4-2.4,2.5-.7,0-1.5,0-2.1-1.3s-.1-.3-.2-.5c-1-3-1.7-6.2-2-9.3-.7-8.1,3.2-13.9,11-16.2,1.6-.5,3.4-.8,5.6-1,5.1-.5,5.7-4.2,5.6-6.3-.1-2.1,0-4.4,0-7,.5-7,3.4-10.5,9.6-11.6,6.5-1.2,10.7-4.5,13.3-10.4.6-1.4,1.5-2.8,2.6-4.3,1.5-2,2.9-1.3,3.4-1,.4.2.7.5.9.9Z"/>
      <path class="st4" d="M290.8,1025.3c-1.6-.2-2.8-1-3.6-2.7-2.9-5.8-6.9-10.7-11.8-14.5-2.1-1.6-2.4-3.6-.8-5.8,5.3-7.4,9.8-13.3,14.1-18.4.5-.6,1.2-.9,2.1-.9,2.3,0,5.2,1.9,5.8,4.7,1.3,6.5,3.6,11.4,7.5,15.5,1.3,1.3,1.4,2.8.4,4.5-3.1,5.1-6.6,10.9-10.7,16-.7.9-1.7,1.5-3,1.7ZM286.9,994.9c-.7.9-1.4,1.6-2,2.4-4.7,5.8-4.7,7,.2,12.6.9,1,1.7,2.1,2.7,3.3.5.6,1.1,1.3,1.7,2.1l2,2.4,1.7-2.6c.5-.7,1.1-1.4,1.7-2.1,1.9-2.1,4.4-4.9,2.4-9-1.1-2.3-2.4-4.6-3.8-7-.6-1-1.1-2-1.7-3.1l-1.6-2.9-3.3,3.9Z"/>
      <path class="st4" d="M293.2,598.1c-3,0-6-.6-8.7-1.9-6.1-2.8-9-8.4-7.6-14.8.6-2.9,2.1-5.5,4.9-8.5,3.7-4,8.9-6.6,16.4-8.1.3,0,.6,0,1,0,4.8,0,10.7,6.1,11.3,11.9,0,.4,0,.9,0,1.3,0,.3,0,.5,0,.8,0,4.7-1.5,9.4-4.5,13.8-2.4,3.5-7.3,5.7-12.9,5.7ZM297.2,570.9c-2.8,0-5.4,1.5-7.6,2.7l-.6.3c-.7.4-1.5,1-2.2,1.6-2,1.8-6.1,5.5-4.3,11,1.6,4.8,5.8,5.4,8.6,5.9.3,0,1,.2,1,.2h.2c.3,0,.6,0,.8,0,5.8,0,8.8-2.1,10.7-7.6v-.3c1.3-3.4,3.2-8.5-1.5-12.1-1.5-1.2-3.3-1.8-5.1-1.8Z"/>
      <path class="st4" d="M721.8,1023.2c-3,0-6-.6-8.7-1.9-6.1-2.8-9-8.4-7.6-14.8.6-2.9,2.1-5.5,4.9-8.5,3.7-4,8.9-6.6,16.4-8.1.3,0,.6,0,1,0,4.8,0,10.7,6.1,11.3,11.9,0,.4,0,.9,0,1.3,0,.3,0,.5,0,.8,0,4.7-1.5,9.4-4.5,13.8-2.4,3.5-7.3,5.7-12.9,5.7ZM725.8,996c-2.8,0-5.4,1.5-7.6,2.7l-.6.3c-.8.4-1.5,1-2.2,1.6-2,1.8-6.1,5.5-4.3,11,1.6,4.8,5.8,5.4,8.6,5.9.3,0,1,.2,1,.2h.2c.3,0,.6,0,.8,0,5.8,0,8.8-2.1,10.7-7.6v-.3c1.3-3.4,3.2-8.5-1.5-12.1-1.5-1.2-3.3-1.8-5.1-1.8Z"/>
      <path class="st4" d="M414.4,235.4c-.8,0-2.4-.3-5.2-2-21.1-12.4-42.3-24.8-63.4-37.2-1.5-.9-3-1.8-4.2-2.9-.9-.8-1.1-1.8-.6-2.9.2-.5.5-1.1,2.6-1.1s.8,0,1.2,0c.3.1,1,.6,1.5.9.4.2.8.5,1.2.7l9.1,5.3c18.4,10.8,36.9,21.6,55.3,32.5,3.7,2.2,4.4,3.8,4.6,4.4,0,.3,0,.8-.3,1.4-.4.6-.9.9-1.6.9Z"/>
      <path class="st4" d="M1156.8,589.8c-5.3,0-9.3-2.3-12.4-7-2.9-4.4-2.6-8.9.9-14.2,2.2-3.2,4.8-6,7.9-8.3,2.5-1.9,5.5-3.8,8.5-3.8s2.4.3,3.5,1c5.1,2.9,7.9,7.3,7.9,12.4-.5,8.4-3.4,18.5-14.2,19.7-.7,0-1.4.1-2.1.1ZM1160.8,562.6c-2.1,0-3.6,1.4-4.7,2.4-.3.2-.5.5-.8.7-1.5,1.2-3,2.7-4.6,4.8-2,2.6-2.9,5-2.5,7.2.3,1.9,1.4,3.7,3.4,5.1,1.6,1.1,3.4,1.7,5.4,1.7h0c3.3,0,6.4-1.7,8.1-4.4,1.6-2.7,2.5-5.5,2.5-8.6.4-3.3-1.1-6.3-4-8.1-.9-.5-1.8-.8-2.8-.8Z"/>
      <path class="st4" d="M1239.4,557.2c-.5,0-1-.2-1.6-.5-.5-.3-.8-.7-.9-1.2-.2-1,.2-2.5,1.2-3.9,1.8-2.7,4.1-5.8,6.6-8.6.9-1,2.1-2.6,1.9-4.5-.2-1.9-1.7-3.2-3-4.1-2.3-1.6-4.4-3.5-6.2-5.1-.3-.3-1.2-1.1-.4-3,.2-.4.4-.9,3-.9h0c1.2,0,2.5,1.2,3.9,2.4.6.5,1.2,1.1,1.9,1.6,2.5,1.9,3.9,3,5.6,3s3.4-1.4,5.7-4c.3-.3.6-.7.9-1,.9-1,1.8-2,2.8-2.8.8-.7,1.6-1.1,2.3-1.1s.7,0,1.3.6c.5.5,1.8,1.6.1,4-1.1,1.5-2.4,3.1-4.1,4.8-.5.5-2.1,2.1-1.9,4.2.1,1.4.9,2.6,2.5,3.7,2,1.4,4.1,3.1,6.5,5,2.4,2,1.7,3,1.2,3.8-.7,1.1-1.3,1.2-1.8,1.2s-1.5-.3-2.5-.8c-2.5-1.4-4.6-3-6.2-4.6-1.5-1.6-3-2.3-4.5-2.3-2.4,0-3.9,1.8-5,3.4-1.1,1.7-2.4,3.3-3.6,4.9-.9,1.2-1.8,2.3-2.7,3.5-1.7,2.3-2.7,2.3-3,2.3Z"/>
      <path class="st4" d="M1344,910.4c-1.3,0-2.7-.2-4-.6-6.2-1.9-9.4-7.6-7.7-13.8,1.7-6.3,5.6-11.2,11.8-14.6,1.9-1,3.8-1.6,5.4-1.6,4.3,0,6.8,3.5,8.2,6.5.6,1.4.8,2.9,1,4.4.1.9.2,1.8.4,2.6,0,4.9-1.8,9.3-5,12.6-2.8,2.8-6.4,4.4-10.1,4.4ZM1344.3,887.9c-3.1,2.1-5.3,5-6.5,8.5-.8,2.4-.4,4.2.2,5.2.6,1.1,1.8,2.5,4.5,3.2.5.1,1,.2,1.6.2,3.4,0,7.1-2.6,8.7-6,1-2.1,1.1-3.8.4-5.4-.6-1.5-1.9-2.6-3.8-3.3,0,0-.2-.2-.2-.4-.5-.7-1.3-2-3-2.4l-1-.2-.8.6Z"/>
      <path class="st4" d="M131.6,962.9c-6.1-.3-10.1-3.5-11-8.8-1.1-6.3,3-15,8.6-18.2,1.8-1,3.7-1.6,5.7-1.6s4.5.8,6.1,2.3c8.2,7.9,8.6,10.6,5.7,15.8-3.6,6.4-8.9,10.1-15,10.4ZM134.1,940.2c-4,0-8.1,6.2-8.2,10.8,0,1.2,0,3.5,1.5,5,.9,1,2.3,1.4,3.9,1.4,3,0,6.7-2.5,8.8-4.8,1.6-1.8,2.4-3.5,2.3-5-.2-2.6-5.6-7.4-8.3-7.4h0Z"/>
      <path class="st4" d="M613.1,1010.6c-6.5,0-12.9-7-13.2-14.4-.2-6.9,6.4-13.2,14.1-13.5h.2c5.4,0,12.3,6.9,12.4,12.3,0,7.6-6.7,15.5-13.4,15.6h-.1ZM611.2,989.2c-3.3.5-5.5,2.9-5.8,6.6-.3,3.8,3.4,8.8,6.8,9.3.2,0,.4,0,.6,0,3.5,0,7.7-4.3,8.1-8.3.1-1.2-.6-2-.8-2.3-1.2-1.5-5.9-5.1-8.4-5.3h-.3s-.3,0-.3,0Z"/>
      <path class="st4" d="M504.2,236.5c-4.7,0-8.4-4.8-8.5-11,0-7.5,6-14.2,13.1-14.4h.1c5.3,0,10.3,6.1,10.4,12.7,0,3-1,5.8-3,7.9-2.7,2.9-7,4.6-12,4.7h-.2Z"/>
      <path class="st4" d="M926.1,85.9c-5.9,0-10.5-5.1-10.6-11.6,0-8.1,3.9-13.3,10-13.4h.1c3.2,0,7,1.8,9.8,4.7,2.3,2.4,3.6,5.1,3.6,7.4-.1,6.2-6.7,12.9-12.9,13h0Z"/>
      <path class="st4" d="M1046.5,128.3c-1.3,0-2.5-.3-3.8-.9-4.4-2.2-5.2-6.2-5.3-8.5,0-9.3,6.3-17,13.9-17,3.7,0,6.7,1.3,8.5,3.7,1.8,2.3,2.3,5.4,1.4,8.7-1.2,4.5-3.8,8.3-7.9,11.3-2.5,1.8-4.7,2.7-6.9,2.7ZM1050.9,107.6c-3.7,0-7.6,4.5-7.9,9.2v.3s0,.3,0,.3c0,.1,0,.3,0,.5,0,.7,0,1.7.5,2.6.4.7,1.4,1.9,3.6,1.9,3.7,0,9-6.6,9-10,0-1.2-.4-4.1-4.4-4.7-.3,0-.5,0-.8,0Z"/>
      <path class="st4" d="M818.1,86.5c-1.3,0-1.7-.5-2-1-.7-1.2-.7-2.4,0-3.4.6-.9,1.5-1.7,2.6-2.6,13.2-10.2,26.2-20.1,38.4-29.5,1.1-.9,2.2-1.5,3.1-1.7.5-.1.9-.2,1.3-.2.8,0,1.4.3,1.9,1.1.4.7.6,1.6-.6,3-.6.7-1.4,1.3-2.3,1.9-.3.2-.5.4-.8.6-10,7.7-20,15.4-30,23.1-2.3,1.8-4.6,3.5-6.6,5.9-1.5,1.8-3.1,2.7-4.9,2.7h-.2Z"/>
      <path class="st4" d="M973.3,58.6c-.4,0-.9-.2-1.4-.5-.8-.6-1.8-1.4.9-5.3.3-.4.5-.7.8-1.1.2-.2.3-.4.5-.7,4.1-5.4,3.9-6.8-1.3-11.3h0c-2.3-2-2-3-1.4-4,.6-1.1,1.2-1.2,1.7-1.2s1.3.2,2.3.6c.5.2,1,.4,1.4.7,1.8,1.5,3.4,2.2,5.1,2.2s4.3-1.3,6-4c.2-.4.7-.8,1.2-1.2l.3-.2c1-.8,1.9-1.3,2.7-1.3s.9,0,1.7.9c.6.6,1.5,1.4-.5,3.9-.7.9-1.6,1.8-2.4,2.7-.4.4-.8.9-1.2,1.3l-1.3,1.4,1.1,1.5c1.5,2,3.5,3.4,5.2,4.5.9.6,1.8,1.2,2.6,1.9,2.3,2.1,1.8,3.2,1,4.2-.6.8-1.2,1-1.6,1-.6,0-1.4-.3-2.4-.9-1.9-1.2-3.9-2.6-6.2-4.3-1.1-.8-2.1-1.2-3.1-1.2s-2.7.8-3.8,2.3c-1.2,1.8-2.6,3.5-4,5.1-1.5,1.8-2.9,2.8-3.9,2.8Z"/>
      <path class="st4" d="M358.6,338.6c-.4,0-.9-.2-1.4-.5-.8-.6-1.8-1.4.9-5.3.3-.4.5-.7.8-1,.2-.2.3-.4.5-.7,4.1-5.4,3.9-6.8-1.3-11.3h0c-2.3-2-2-3-1.4-4,.6-1.1,1.2-1.2,1.7-1.2s1.3.2,2.3.6c.5.2,1,.4,1.4.7,1.8,1.5,3.4,2.2,5.1,2.2s4.3-1.3,6-4c.2-.4.8-.8,1.3-1.2l.2-.2c1-.8,1.9-1.3,2.7-1.3s.9,0,1.7.9c.6.6,1.5,1.4-.5,3.9-.7.9-1.6,1.8-2.4,2.7-.4.4-.8.9-1.2,1.3l-1.3,1.4,1.1,1.5c1.5,2,3.5,3.4,5.2,4.5.9.6,1.8,1.2,2.6,1.9,2.3,2.1,1.8,3.2,1,4.2-.6.8-1.2,1-1.6,1-.6,0-1.4-.3-2.4-.9-1.9-1.2-3.9-2.6-6.2-4.3-1.1-.8-2.1-1.2-3.1-1.2s-2.7.8-3.8,2.3c-1.2,1.8-2.7,3.6-4,5.1-1.5,1.8-2.9,2.8-3.9,2.8Z"/>
      <path class="st4" d="M963.3,378.4c-.4,0-.9-.1-1.5-.4-.9-.5-1.5-1.1-.5-4.2.3-.9.8-1.8,1.4-2.7.3-.5.5-.9.8-1.4.2-.5.6-1,.9-1.5.9-1.4,2-3.1,2-5,0-3.2-2.8-4.1-4.3-4.6-.5-.2-1.1-.4-1.3-.6-1.5-1.1-1.8-2.4-.9-4.1.6-1.1,1.4-1.7,2.3-1.7s1,.2,1.5.5c1.5,1,3.5,2.2,5.8,2.2s3.9-.9,6-2.8c.4-.4,1-.5,1.4-.5,1.3,0,2.5.7,2.9,1.4.4.6.7,1.5.5,2.3-.2.7-1,1.3-1.6,1.6-.6.3-2.6,1.3-2.9,3.4-.3,2.1,1.3,3.6,2.2,4.5,2,2,3.8,3.8,5.5,5.5,2,2.1,1.5,3.4.7,4.5-.5.6-1,.7-1.3.7-.5,0-1.6-.2-3.3-1.7-1.3-1.1-2.5-2.2-3.8-3.6-.7-.6-1.3-1.3-2.1-2l-2.1-2-1.4,2.5c-.5.9-1,1.7-1.5,2.5-1,1.7-1.9,3.3-2.9,4.9-.6.9-1.5,2-2.6,2Z"/>
      <path class="st4" d="M209.1,1039.5c-.5,0-1.1-.3-1.6-.8-.6-.5-1.8-1.7.6-4.2,2.3-2.5,4.9-5.1,8.2-8.1,5.2-4.7,10.4-9.4,15.5-13.9,2.6-2.3,5.2-4.6,7.7-6.9,1-.9,1.8-1.3,2.7-1.3s.9.1,1.4.4c.5.2.9.6,1.1,2-.3,1.2-.9,2.3-1.9,3.2-3.6,3.3-7.3,6.6-10.9,9.7-6.7,5.9-13.6,12-20.1,18.5-.9.9-1.9,1.4-2.6,1.4Z"/>
      <path class="st4" d="M1156.4,106.4c-.4,0-1-.1-1.7-1-.5-.6-.7-1.2-.7-1.8,0-.8.6-1.6,1.6-2.4,5.2-4.3,10.8-8.4,16.1-12.4h.2c4.7-3.6,9.3-6.9,14.9-10.9.7-.5,1.4-.7,2-.7s1.1.2,1.7.6c.6.4.8,1,.8,1.2-.1,1.9-.9,2.8-2.3,3.8-10,7.4-20,14.9-30,22.3-1,.8-1.9,1.2-2.6,1.2Z"/>
      <path class="st4" d="M1311.1,732.8c-.5,0-1.2-.1-2-1.2-.3-.4-1.1-1.5.4-3.4,1.2-1.5,2.9-2.6,4.6-3.7.5-.3.9-.6,1.4-.9,2.9-1.9,5.8-3.9,8.7-5.8,5.3-3.6,10.8-7.2,16.2-10.8.8-.5,1.8-.8,2.6-.8s1.5,0,2,1c.4.8,1.2,2.4-1.5,4.2-3,2-6.2,4.1-9.2,6-7.1,4.6-14.4,9.3-21.1,14.8,0,0,0,0-.1,0-.2,0-.3.1-.5.2-.6.3-1.1.4-1.6.4Z"/>
      <path class="st4" d="M98.9,729.2c-6.6,0-11.9-4.3-11.9-9.8,0-4.8,3.7-8.7,8.6-8.8h.2c6,0,10.4,4.5,10.5,10.8,0,4.9-2.4,7.7-7,7.8h-.3Z"/>
      <path class="st4" d="M679.7,270.8c-2.7,0-5.1-1-6.9-2.8-1.7-1.7-2.6-4-2.6-6.4,0-5.2,3.7-9.3,8.2-9.3,6.4,0,9.9,3.5,9.9,9.9,0,2.4-.8,4.7-2.4,6.2-1.6,1.6-3.8,2.4-6.2,2.4h0Z"/>
      <path class="st4" d="M183.6,215.2c-5.2,0-9.6-4.4-9.6-9.4,0-4.8,4.1-8.3,9.7-8.4h.1c5.6,0,9.3,3.4,9.4,8.4,0,2.2-1,4.5-2.9,6.4-1.9,1.9-4.3,3-6.6,3h0Z"/>
      <path class="st4" d="M1009.1,217.1c-4.2-.2-7.6-4.3-7.5-9.2,0-4.3,3.8-8.3,7.8-8.3,4.3,0,9.9,5.1,9.9,8.9,0,1.8-.9,3.7-2.5,5.3-2,2-4.8,3.3-7.4,3.3s-.2,0-.3,0Z"/>
      <path class="st4" d="M282.7,508.3c-4.2-.2-7.6-4.3-7.5-9.2,0-4.3,3.8-8.3,7.8-8.3,4.3,0,9.9,5.1,9.9,8.9,0,1.8-.9,3.7-2.5,5.3-2,2-4.8,3.3-7.4,3.3s-.2,0-.3,0Z"/>
      <path class="st4" d="M491.9,453.1c-4.2-.2-7.6-4.3-7.5-9.2,0-4.3,3.8-8.3,7.8-8.3,4.3,0,9.9,5.1,9.9,8.9,0,1.8-.9,3.7-2.5,5.3-2,2-4.8,3.3-7.4,3.3s-.2,0-.3,0Z"/>
      <path class="st4" d="M518.7,1043c-.8,0-1.4-.4-1.9-.9-.5-.6-.6-1.5-.3-2.3.3-1.1,1.2-2,2.3-3,1.9-1.8,3.8-3.6,5.7-5.4,3.6-3.5,7.2-6.9,10.9-10.3.9-.9,1.9-1.7,2.9-2.1.4-.2.8-.3,1.2-.3.7,0,1.2.3,1.7.9.5.6.8,1.3,0,2.7-.2.5-.5,1-.8,1.2-6.3,6.1-12.6,12.1-18.9,18.1l-.4.4c-.6.6-1.5,1-2.5,1.2Z"/>
      <path class="st4" d="M1203,303.7c-2.8-.1-3-.9-3.2-1.7-.4-1.5,0-2.5,1.2-3.2.7-.4,1.6-.8,2.4-1,7.9-2,15.7-3.9,21.5-5.3.7-.2,1.4-.3,2-.3h.1c2.4,0,2.7,1.2,2.8,1.8.2.7.4,2.3-1.2,2.7-6.5,1.9-13,3.6-19.3,5.3-2.2.6-4.4,1.2-6.6,1.7Z"/>
      <path class="st4" d="M74.2,924.7c0,0-.2,0-.3,0-10.3-2.6-19.5-7.6-27.1-12.2-.4-.2-.4-1.3,0-2.3.2-.5.5-1.1,2.6-1.1h.1c0,0,.2,0,.3,0,.5.1,1.2.3,1.7.5,7.6,3.4,14.6,6.6,21.3,9.7,1.1.5,1.7,1,2.1,1.6.7,1,.5,2.3.1,3-.1.2-.4.7-.9.7Z"/>
      <path class="st4" d="M387.5,261.5c-.4,0-.9,0-1.4-.2-7.7-2.3-15.2-4.9-22.5-7.5-1.8-.6-2.5-1.7-2.2-3.5.1-.7.2-1.4,3-1.6.7.2,1.5.5,2.3.7,2.2.7,4.5,1.3,6.8,2.1l1.6.5c4.1,1.3,8.4,2.7,12.5,4.3,3,1.1,2.3,3,2.1,3.7-.4,1.1-1,1.6-2.2,1.6Z"/>
      <path class="st4" d="M1214.4,989.7c5.5,0,9.4,3.1,9.5,7.9,0,5.5-5.2,10.4-11.4,10.6-5.1.2-9.3-3.4-9.5-8-.2-5.5,5.1-10.3,11.4-10.4Z"/>
      <path class="st4" d="M268.5,302.2c-.5,0-1-.2-1.4-.3-5.3-2.1-11-4.4-17.6-7-3.6-1.5-3.1-2.9-2.7-3.9.5-1.3,1.1-1.6,2-1.6s1.6.2,2.6.6c6.5,2.4,13,5.1,18.5,7.5,2.1.9,2.1,2.3,1.9,3.2-.1.7-.3,1.5-2.9,1.7-.1,0-.3,0-.4,0Z"/>
      <path class="st4" d="M983.1,457.4c-5.6,0-11.7,0-18.6,0-3.9,0-4-1.6-4-2.6,0-1.2.3-1.6.5-1.7.5-.6,1.8-.9,3.4-.9,2.2,0,4.4,0,6.6,0,4.6,0,9.1,0,13.4.2,2.3,0,2.8,1.3,2.9,2.3.1.7.3,1.6-2,2.6-.1,0-.3,0-.4,0-.5,0-1,.2-1.4.2h-.3Z"/>
      <path class="st4" d="M1004.1,1023.6c0-.6.3-1.4.9-2.2,1.7-2.5,3.5-4.9,5.3-7.4,2-2.8,4-5.6,6-8.5,1.9-2.6,2.7-2.8,4.1-2.2.3.1,1,.5,1,2s-.3,2.2-.8,3.5c-3.4,5.4-7.5,10.8-11.7,15.8-1.2,1.4-2.5,1.6-3.8.6-.9-.7-1-1.3-1-1.7Z"/>
      <path class="st4" d="M894.1,981.2c-.5.7-1.6,1-2.4,1.1-3,.4-6,.8-9,1.2-3.4.4-6.9.9-10.3,1.4-3.2.4-3.9,0-4.4-1.5-.2-.6-.1-1,.3-1.6.6-.8,1.9-1.7,3.6-2.3,6.2-1.2,13-1.9,19.6-2.2,1.9,0,2.9.7,3,2.3,0,.7,0,1.3-.4,1.6Z"/>
      <path class="st4" d="M1100.6,31.3c-.3,0-.7,0-1.1-.3-.6-.3-2-1.2-1.5-2.8,2.1-6.5,4.8-12.5,8-17.7.3-.6.9-.9,1.6-.9s.7,0,1,.2c.8.3,1.6.8,1.5,3.3l-.7,1.7c-2.1,5.1-4.3,10.5-7.1,15.4-.2.4-.8,1.1-1.7,1.1Z"/>
      <path class="st4" d="M374.7,478.9c-.4,0-.8,0-1.2-.3-.5-.2-1.4-.6-1.1-2.8,0-.8.4-1.6,1-2.4l.8-1c2.6-3.4,5.3-7,8.1-10.3.5-.7,1.4-1.5,2.5-1.5s1.2.2,1.8.7c1.5,1.2.9,2.7,0,3.8-3,4.1-6.4,8.3-10.3,13-.5.6-1.1.9-1.7.9Z"/>
      <path class="st4" d="M396.7,452.8c-.8,0-1.6-.4-2-1.2-.2-.4-.6-1.3,0-2.4,3.1-5.4,7.9-9.7,12.2-13.1.3-.2.6-.4,1-.4.6,0,1.2.3,1.7.8.3.3.8.9.8,1.7-.7,2.7-10.9,13.6-13.5,14.5,0,0,0,0-.1,0Z"/>
      <path class="st4" d="M381.8,450.6c-.7,0-1.5-.4-2.4-1.1-3-2.3-6.5-5.1-9.3-8.2-.9-1-1-2-.4-3.1.5-.9,1.2-1,1.4-1,1.9,0,2.5.4,2.9.8.8.7,1.7,1.5,2.6,2.2,2.1,1.8,4.2,3.6,6.2,5.5,2.2,2.1,1.1,3.4.8,3.9-.8,1-1.4,1.1-1.8,1.1Z"/>
      <path class="st4" d="M409.9,475.7c-.4,0-.7,0-1.1-.3-3.8-1.9-7.2-5-10.1-9.1-.5-.8-.4-1.5-.2-1.9.3-.6,1-1.2,2.1-1.3,2.6,0,11.1,7.7,11.3,10.1,0,.8-.2,1.4-.7,1.9-.3.3-.7.6-1.4.6Z"/>
      <path class="st4" d="M257.2,1038.1c-.4,0-.8-.1-1.2-.4-1.5-.9-1.5-1.7-1.3-2.5,1.1-4.1,3-7.8,5.5-10.9.6-.7,1-.8,1.4-.8s.8.1,1.3.4c.8.4,1.4.9,1.2,2.9-1.5,3.6-3,7.3-5.5,10.4-.4.5-.9.8-1.4.8Z"/>
      <path class="st4" d="M1020.7,947.8c5.4,1.6,11.3-.2,16.8,1.9,1.1.4,2.8.5,2.3,2.3-.4,1.3-1.8,1.1-2.9.8-15.1-4.1-29-.4-42.8,5.6-1.7.7-4.5,3-5.4.8-1.2-2.8,2.6-2.9,4.4-3.6,8.8-3.9,18-6.4,27.7-7.8Z"/>
      <path class="st4" d="M742.5,657.5c-3,3.3-6.7,3.2-9.9,3.6-10.2,1.4-19.4-1.3-27.9-7-.5-.3-1-.5-1.4-.9-.8-.7-2-1.4-1.1-2.7.6-.9,1.7-.4,2.5,0,1.4.8,2.9,1.6,4.3,2.5,8.8,5.9,18.5,5.7,28.3,4,1.5-.3,2.9-.6,5.2.4Z"/>
      <path class="st4" d="M291.2,661.2c-7.3,3.4-15,5.5-23.1,4.2-5.2-.8-10.3-2.9-15.1-5.2-.8-.4-1.9-.7-1.4-1.9.4-1,1.3-1.1,2.3-.7,1.4.5,2.8.8,4.2,1.5,8.8,4.2,17.7,4.5,26.9,1.6,2.1-.7,4.1-1,6.2.5Z"/>
      <path class="st4" d="M672.5,953.4c-2.7,2.1-5.3,0-7.7-.6-10.2-2.3-19.7-.6-29.1,3.5-1,.4-2.2,2.1-3.3.3-1.2-2,.9-2.5,2.1-3,11.6-5.6,23.6-6.3,35.9-2.5.7.2,1.3.7,1.8,1.2.2.2.2.7.3,1.1Z"/>
      <path class="st4" d="M165.2,841.9c.2,2.3-1.2,3.9-2.1,5.7-1.6,2.9-3.7,5.6-3.5,9.2,0,1-.4,2-1.5,2-1.3,0-1.9-1.1-1.8-2.3.2-3.2,1.6-6,3.2-8.8,3.8-6.5,3.8-6.8-1.8-11.5-2.9-2.4-5.3-5.1-7-8.5-.5-1-1-2.2.3-2.9,1.1-.6,1.6.4,2,1.3,2.1,4.1,5.6,6.9,8.8,9.9,1.7,1.6,3.8,3.2,3.3,5.9Z"/>
      <path class="st4" d="M1227.7,787.4c1.1,0,1.9.5,1.6,1.7-.3,1.2-.8,2.4-1.3,3.6-2.8,6.1-2.3,11.8,1.6,17.2,2.3,3.2,2.3,6.9,2,10.6,0,1.1-.6,1.8-1.7,1.7-1.2,0-1.7-.9-1.5-1.9,1-5-1.5-8.9-3.6-13-3.3-6.4-.8-12.5,1.3-18.6.3-.8.9-1.1,1.6-1.3Z"/>
      <path class="st4" d="M1226.6,755.7c.1,1.3-1.7,1.9-2.4.7-1.7-2.8-4.3-4.5-7.6-5.9-2.4-1-2.5-3.6-.9-5.7,2.8-3.7,6.7-5.8,10.8-7.4,1-.4,2.3-.4,2.7,1,.3,1.4-.6,2-1.8,2.1-2.9.4-5,2.3-7.2,4-3,2.3-2.9,3,.6,4.9,3.7,2,5.5,3.6,5.7,6.3Z"/>
      <path class="st4" d="M1082.6,656.7c-4.7.3-8.4-1.7-12-4.1-1.8-1.2-3.1-3.2-5.4-3.7-1.2-.3-1.4-1.1-.9-2.1.4-.9,1.3-1.5,2.3-.9,1.4.8,2.9,1.7,4.1,2.9,5.6,5.2,12,5.9,19,3.5,1.7-.6,4.4-2.6,5.2,0,.8,2.7-2.8,2.2-4.4,2.8-2.5.9-5.1,2.2-7.8,1.7Z"/>
      <path class="st4" d="M1119.8,948.8c9.2-7.7,22.9-7.6,31.1-.2.7.6,1.5,1.2.8,2.2-.7,1-1.6.5-2.4,0-.5-.3-1-.4-1.5-.7-7-5.6-14.4-4.5-22-1.7-1.8.6-3.6,2.3-6.1.4Z"/>
      <path class="st4" d="M479.9,665.9c-5.5.9-9.2-2.1-13-4.7-.9-.6-1.1-1.5-.6-2.4.6-1,1.5-.9,2.3-.3.3.2.7.3,1,.5,5.1,5.5,11.1,4.6,17.4,2.6,2.4-.8,5-1.4,7.4-2.2,1.3-.4,2.8-1,3.4.4.7,1.6-.9,2.1-2.2,2.4-5.3,1.6-10.5,3.5-15.7,3.6Z"/>
      <path class="st4" d="M609.1,660.1c-8.2-1.5-16.4-2.6-24.2-5.5-.8-.3-1.6-.8-2.4-1.3-.6-.4-1.4-.8-1-1.7.4-1,1.2-1.2,2.2-.7,6.1,2.8,12.6,3.6,19.1,5.1,2.2.5,4.4.6,6.6.8,1.2,0,3-.4,3,1.5,0,2.3-1.9,1.6-3.3,1.9Z"/>
      <path class="st4" d="M353.7,960.6c-.9-1.1-1.1-1.9-.6-2.5,2.6-3.9,13.2-7.2,17.6-5.6,3.1,1.2,5.9,3.1,8.6,4.9.9.6,2.1,1.4,1.5,2.6-.7,1.3-1.9.5-2.9,0-.6-.4-1.3-.8-1.8-1.2-6.5-5.3-12.9-4.2-19.4,0-.9.6-1.9,1.2-2.9,1.9Z"/>
      <path class="st4" d="M274.4,948.4c3.9-.2,6.6,2,9.4,4.2.7.5,1.4,1.4.5,2.3-.6.6-1.4.4-2.1.2-.2,0-.3-.2-.5-.3-7-6.5-13.6-2.3-20.3.8-.7.3-1.2.8-1.9,1.2-.8.6-1.8.9-2.4,0-.6-.9.2-1.7.9-2.3,4.7-3.9,10.3-5.6,16.3-6Z"/>
      <path class="st4" d="M770.3,946.3c5.2-.3,9.5,2.1,14.1,3.3,1,.2,1.8.7,1.4,1.9-.3.8-1.1.9-1.8.7-2.3-.5-4.8-.7-7-1.6-4.9-2-9.7-1.8-14.3.6-1.2.6-2.8,1.5-3.5.2-.9-1.8,1.2-2.2,2.4-2.9,2.8-1.6,5.7-2.5,8.7-2.1Z"/>
      <path class="st4" d="M172,743.6c-.1.6,0,1.9-.5,2.7-.6,1.1-.2,3.5-2.5,2.8-1.9-.6-.6-2.1-.5-3.2.5-3.6,0-6.8-3.2-9.3-2.4-1.8-3.3-4.8-4.7-7.4-.4-.8-.9-1.7.2-2.3.8-.5,1.7,0,1.9.5,2.1,4.6,6.1,7.7,8.7,11.9.7,1.2.5,2.5.6,4.3Z"/>
      <path class="st4" d="M1239.5,865c.3,3.1-1.4,6-3.1,8.8-.4.7-1.1,1.1-1.9.8-1.1-.4-1-1.4-.6-2.3.3-.8.9-1.6,1.3-2.4,2.5-5.6,1.5-9.5-3.5-12.7-1.1-.7-2.7-1.3-1.8-2.7.7-1.3,2.1-.8,3.4,0,3.7,2.5,6.5,5.4,6.4,10.7Z"/>
      <path class="st4" d="M128.6,627.5c1,0,1.5.9,2.1,1.6,3.7,4.6,7.5,9.1,11.2,13.6.6.7,1.4,1.5.4,2.3-1,.8-2.1.5-2.9-.5-3.8-4.7-7.6-9.5-11.3-14.2-.6-.7-1.2-1.5-.5-2.4.2-.2.6-.3,1-.4Z"/>
      <path class="st4" d="M904.1,148.6c-2.4-.3-4.2-1.4-4.3-4-.1-2.6,1.3-4.3,3.8-4.5,2.5-.2,4.2,1.4,4.4,3.9.2,2.6-1.3,4-3.9,4.6Z"/>
      <path class="st4" d="M1056.3,961.5c-.2.3-.3,1-.7,1.2-.4.2-1.2,0-1.5-.2-2-1.9-4.1-3.6-6.9-4.3-.8-.2-1-1-1-1.8,0-.7.4-1,.9-1.2,2-.7,8.9,3.8,9.1,6.2Z"/>
      <path class="st4" d="M628,693.8c-.4,0-1.1-.1-1.8-1.1-.7-1-1.1-1.9,1.1-3.9,1-.9,2.2-1.7,4-2.5,10.6-4.5,22-7.4,32-10,.3,0,.7-.2,1-.2h.2c2.2.2,2.6.9,2.8,1.7.3.9.3,2-1.4,3-1.2.6-2.6,1-4.1,1.5-1.9.5-3.6,1-5.4,1.5-8.9,2.4-18.1,4.9-26.6,9.5-.6.3-1.2.5-1.7.5Z"/>
      <path class="st4" d="M313,693.6c-.5,0-1-.3-1.6-.9-.9-1-1.3-2,0-3.6.3-.4.7-.8,1.1-1.1,6.4-4.6,13.5-8,21.2-10,.7-.2,1.6-.3,2.6-.3s1.1,0,1.6,0c1.1,0,1.9.5,2.2,2.2-.1,1.8-1.2,2.3-2,2.5-8.2,1.8-16.1,5.4-23.4,10.6-.5.4-1,.6-1.4.6Z"/>
      <path class="st4" d="M497.2,941.3c-5-.5-8.9-2.6-11.5-6.9-.6-1.1-1.1-1.9,0-2.9,1.4-1.1,1.9,0,2.5.9,3.1,5.1,7,6.4,13.1,5.1,9.1-2,17.3-6.2,26.3-8.3,1.5-.3,3.4-2.2,4.1.3.7,2.5-2.1,2-3.5,2.4-9.7,2.9-18.7,7.7-28.9,8.8-.7,0-1.4.3-2.1.5Z"/>
      <path class="st4" d="M1072.3,937.4c-5-.5-8.9-2.6-11.5-6.9-.6-1.1-1.1-1.9,0-2.9,1.4-1.1,1.9,0,2.5.9,3.1,5.1,7,6.4,13.1,5.1,9.1-2,17.3-6.2,26.3-8.3,1.5-.3,3.4-2.2,4.1.3.7,2.5-2.1,2-3.5,2.4-9.7,2.9-18.7,7.7-28.9,8.8-.7,0-1.4.3-2.1.5Z"/>
      <path class="st4" d="M193.8,875.9c3.1,3.3,3.5,7,3.2,10.9-.3,4.1-1.3,7.9-2.7,11.8-2.3,6.5-1.1,8.8,5,12,1.8,1,4.6.7,5.2,3.5-7.5,1.6-15.3-5.7-14-12.8.4-2.2.9-4.3,1.8-6.4,2-4.8,2.8-9.5.9-14.6-.4-1.1-.9-2.5.5-4.5Z"/>
      <path class="st4" d="M773.9,681.3c7.4-7.1,27.6-7.2,36.3,0-7-.2-12.5-2.6-18.4-2.4-5.8.2-11.3,2.5-17.9,2.4Z"/>
      <path class="st4" d="M1117.8,681.3c7.4-7.1,27.6-7.2,36.3,0-7-.2-12.5-2.6-18.4-2.4-5.8.2-11.3,2.5-17.9,2.4Z"/>
      <path class="st4" d="M919.7,671.3c5.1-.4,9.5,1.6,14,3.2,1.1.4,2.3.7,1.9,2.1-.6,2.1-1.9.9-3,.5-7.4-3-14.9-3.9-22.6-1.3-.9.3-1.7.5-2.6.9-1,.4-2.1,2.4-3,.3-.8-1.7.5-2.9,2.1-3.3,4.4-1.2,8.8-2.8,13.3-2.3Z"/>
      <path class="st4" d="M226,683.6c-4.8,0-9-.6-12.9.1-5.4,1-10.8,2.6-14.6,7.2-.7.9-1.7,2.5-3.1,1.2-1.1-1.1,0-2.4.9-3.3,1.3-1.3,2.6-2.8,4.2-3.6,6.2-3.4,12.9-5.2,20.1-4.9,1.8,0,3.7.2,5.3,3.4Z"/>
      <path class="st4" d="M446.4,685.8c-.5,1.3-1.7,1.3-2.7.9-2.9-1-5.8-2.1-9-2.1-4.2,0-7.9,1.5-11.7,2.7-.9.3-1.7.9-2.4,0-.7-1,0-1.7.8-2.3,4.6-3.5,19.1-4.1,23.8-.9.6.4,1.3.7,1.3,1.7Z"/>
      <path class="st4" d="M1046.6,672.1c-.5,1.3-1.7,1.3-2.7.9-2.9-1-5.8-2.1-9-2.1-4.2,0-7.9,1.5-11.7,2.7-.9.3-1.7.9-2.4,0-.7-1,0-1.7.8-2.3,4.6-3.5,19.1-4.1,23.8-.9.6.4,1.3.7,1.3,1.7Z"/>
      <path class="st4" d="M191.6,802.6c-.3.8-.4,1.6-.8,2.2-2.3,3.1-4.6,6.2-6.9,9.3-.5.6-1.1,1.6-2.2.7-.7-.5-1-1.3-.5-1.9,2.6-3.8,5.3-7.5,8.1-11.2.3-.4.9-.8,1.4-.3.4.4.7.9.9,1.2Z"/>
      <path class="st4" d="M937.7,980.5c0,2.5-2.1,4.6-4.6,4.6s-4.6-2.1-4.6-4.6,2.1-4.6,4.6-4.6,4.6,2.1,4.6,4.6Z"/>
      <circle class="st4" cx="216.7" cy="553.9" r="4.6"/>
      <circle class="st4" cx="535.2" cy="34.4" r="4.6"/>
      <path class="st4" d="M802.2,137c0,2.5-2.1,4.6-4.6,4.6s-4.6-2.1-4.6-4.6,2.1-4.6,4.6-4.6,4.6,2.1,4.6,4.6Z"/>
      <path class="st4" d="M470.6,358.7c0,2.5-2.1,4.6-4.6,4.6s-4.6-2.1-4.6-4.6,2.1-4.6,4.6-4.6,4.6,2.1,4.6,4.6Z"/>
      <path class="st4" d="M329,137c0,2.5-2.1,4.6-4.6,4.6s-4.6-2.1-4.6-4.6,2.1-4.6,4.6-4.6,4.6,2.1,4.6,4.6Z"/>
      <circle class="st4" cx="1273.1" cy="959.1" r="4.6"/>
      <path class="st4" d="M376.1,1021.9c0,2.5-2.1,4.6-4.6,4.6s-4.6-2.1-4.6-4.6,2.1-4.6,4.6-4.6,4.6,2.1,4.6,4.6Z"/>
      <path class="st4" d="M190.9,975.9c0,2.5-2.1,4.6-4.6,4.6s-4.6-2.1-4.6-4.6,2.1-4.6,4.6-4.6,4.6,2.1,4.6,4.6Z"/>
      <path class="st4" d="M610.2,523c0,2.5-2.1,4.6-4.6,4.6s-4.6-2.1-4.6-4.6,2.1-4.6,4.6-4.6,4.6,2.1,4.6,4.6Z"/>
      <path class="st4" d="M665.4,351.8c0,2.5-2.1,4.6-4.6,4.6s-4.6-2.1-4.6-4.6,2.1-4.6,4.6-4.6,4.6,2.1,4.6,4.6Z"/>
      <path class="st4" d="M1282.4,883c0,2.5-2.1,4.6-4.6,4.6s-4.6-2.1-4.6-4.6,2.1-4.6,4.6-4.6,4.6,2.1,4.6,4.6Z"/>
      <circle class="st4" cx="759" cy="473.7" r="4.6"/>
      <path class="st4" d="M908.5,387.1c0,2.5-2.1,4.6-4.6,4.6s-4.6-2.1-4.6-4.6,2.1-4.6,4.6-4.6,4.6,2.1,4.6,4.6Z"/>
      <path class="st4" d="M896.3,510.4c0,2.5-2.1,4.6-4.6,4.6s-4.6-2.1-4.6-4.6,2.1-4.6,4.6-4.6,4.6,2.1,4.6,4.6Z"/>
      <path class="st4" d="M497.9,557.2c0,2.5-2.1,4.6-4.6,4.6s-4.6-2.1-4.6-4.6,2.1-4.6,4.6-4.6,4.6,2.1,4.6,4.6Z"/>
      <path class="st4" d="M1001.6,291.6c0,2.5-2.1,4.6-4.6,4.6s-4.6-2.1-4.6-4.6,2.1-4.6,4.6-4.6,4.6,2.1,4.6,4.6Z"/>
      <path class="st4" d="M765.4,159.3c0,2.5-2.1,4.6-4.6,4.6s-4.6-2.1-4.6-4.6,2.1-4.6,4.6-4.6,4.6,2.1,4.6,4.6Z"/>
      <circle class="st4" cx="1257.8" cy="199.1" r="4.6"/>
      <circle class="st4" cx="1119.3" cy="363.3" r="4.6"/>
    </g>
  </g>
  <g id="Calque_4">
    <text class="st1" transform="translate(204.6 900.3)"><tspan x="0" y="0">MARIAGE</tspan></text>
    <g>
      <path class="st2" d="M521.2,610c-4.1,0-8.6,0-13.3-.2-5.3-.2-10.4-.9-15.2-2.3-7.1-1.7-11.5-7.5-11.5-15s1.2-7.2,3.7-10.3c.8-1.1,1.5-2,2-2.7l2.3-3.4,4-.8c7.1-1.5,15.5-3,24.9-4.5,6.3-1,12-2.2,17.1-3.4,5.5-25.7,11.5-51.5,17.8-76.6,6.8-27.3,14.1-54.9,21.7-82.1,5.2-18.4,10.4-37.3,15.4-56.3,3.1-11.7,6.7-23.5,10.6-35.2-8.5,2.7-16.5,4.1-23.9,4.1s-9.7-5.1-11.6-7.9c-3-4.3-4.2-7.3-4.2-10.5s.9-8.2,7.1-12.3l.4-.3.5-.3c6-3.1,11.9-6.4,17.7-9.7,5.6-3.2,11.3-6.8,16.9-10.8h.2c0-.1.2-.3.2-.3,1.6-1,2.9-2,3.9-3.1,1.6-1.8,3.3-3.6,4.8-5.5l.2-.3.3-.3c2.1-2.1,5.3-4.8,9.7-8,5.8-4.3,11-6.4,15.9-6.4s6.3,1.6,10.7,4.8c3.2,2.3,8.1,5.9,8.1,11.9s-.6,7-1.8,10.7c-.9,2.6-1.9,5-3,7.1-3.9,23.9-9.5,47.7-16.6,70.7-7.1,22.9-14.1,46.3-20.9,69.5-7.6,25.8-15.4,51.7-23.2,76.9-6.5,21-12.9,42.4-19.3,63.8,2.2.3,4.3.8,6.5,1.5,3.7,1.1,12.2,5.1,12.2,17.7s-1,6-2.8,8.2c-4.1,5.2-9.2,9.3-15.1,12.2-5.3,2.7-11.3,4.8-17.6,6.3-6.1,1.5-12.5,2.4-18.8,2.7-6,.3-11.4.5-16.2.5Z"/>
      <path class="st0" d="M521.2,605c-4.1,0-8.5,0-13.2-.2-4.9-.2-9.6-.9-14.1-2.1-4.8-1.1-7.7-4.9-7.7-10.1s.9-5.1,2.6-7.3c.9-1.2,1.7-2.2,2.2-3l1.1-1.7,2-.4c7.1-1.5,15.4-3,24.7-4.5,7.7-1.2,14.6-2.7,20.6-4.3,5.7-26.7,11.9-53.4,18.4-79.5,6.8-27.2,14-54.8,21.6-81.9,5.2-18.4,10.4-37.4,15.4-56.4,4-14.9,8.6-29.9,13.9-44.8-2.9,1.2-6,2.4-9.3,3.4-8.1,2.7-15.8,4-22.7,4s-5.4-2.7-7.4-5.7c-2.3-3.4-3.3-5.6-3.3-7.7s.8-5.4,4.9-8.1h.2c0-.1.2-.3.2-.3,6-3.2,12.1-6.5,17.9-9.8,5.7-3.3,11.5-7,17.3-11h.1c0,0,.1-.1.1-.1,2-1.2,3.6-2.6,4.9-4,1.7-1.8,3.3-3.7,5-5.6h.1c0-.1.1-.3.1-.3,1.9-1.9,4.9-4.4,9.2-7.5,4.9-3.6,9.1-5.4,12.9-5.4s3.7.9,7.8,3.8c3.4,2.5,6,4.6,6,7.8s-.5,5.9-1.6,9.1c-.9,2.6-1.9,5-3,7.1-3.8,23.9-9.4,47.8-16.6,70.8-7.1,22.9-14.2,46.4-20.9,69.6-7.6,25.8-15.4,51.6-23.2,76.8-7,22.9-14.1,46.3-21.1,69.8h.2c3.7,0,7.5.6,11.4,1.8,3.2,1,8.6,4,8.6,12.9s-.5,3.8-1.6,5c-3.7,4.6-8.2,8.3-13.5,10.9-5,2.5-10.6,4.5-16.5,5.9-5.8,1.4-11.9,2.2-17.9,2.6-5.9.3-11.2.4-15.9.4Z"/>
      <path class="st4" d="M647.7,262.2c0,2.4-.4,4.9-1.3,7.5-.9,2.6-1.9,5-3.1,7.1-3.8,24.1-9.3,47.8-16.5,71-7.2,23.2-14.2,46.5-20.9,69.7-7.6,25.9-15.4,51.4-23.1,76.7-7.8,25.3-15.5,50.9-23.2,76.7,1.5-.3,3.8-.4,7.1-.4s6.5.5,9.9,1.5c3.4,1,5.1,3.7,5.1,8.2s-.2,1.5-.4,1.8c-3.2,4.1-7.2,7.4-11.9,9.7-4.7,2.4-9.9,4.2-15.4,5.5-5.6,1.3-11.2,2.1-17,2.4-5.7.3-11,.4-15.7.4s-8.5,0-13-.2c-4.6-.2-8.9-.8-13-2-2.6-.6-4-2.3-4-5.3s.5-2.9,1.5-4.2c1-1.3,1.8-2.4,2.4-3.3,7.1-1.5,15.2-2.9,24.5-4.4,9.3-1.5,17.3-3.2,24-5.3,5.9-27.6,12.2-55,19-82.2,6.8-27.2,14-54.5,21.6-81.8,5.3-18.8,10.4-37.6,15.4-56.4,5-18.8,11-37.5,18.1-56-5.6,3.2-12.2,6.1-19.8,8.6-7.6,2.5-14.7,3.7-21.2,3.7s-1.7-1.2-3.3-3.5c-1.6-2.3-2.4-4-2.4-4.9,0-1.5.9-2.8,2.6-4,6.2-3.2,12.2-6.5,18.1-9.9,5.9-3.4,11.8-7.1,17.6-11.2,2.3-1.5,4.3-3.1,6-4.9,1.6-1.8,3.3-3.7,5.1-5.7,1.8-1.8,4.6-4.1,8.6-7.1,4-2.9,7.3-4.4,9.9-4.4s2.2,1,4.8,2.9c2.6,1.9,4,3.2,4,3.7Z"/>
      <path class="st2" d="M750,616.6c-18.1,0-33.6-5.8-46.2-17.1-11.7-10.5-21.2-23.6-28.4-38.9-7-14.8-12-30.7-15.1-47.2-3-16.2-4.6-31-4.6-43.9,0-21.3,2.6-43.2,7.8-65.1,5.2-22,12.9-43.1,23.1-62.7,10.2-19.7,23.1-37.9,38.4-54.1,15.4-16.4,33.4-29.8,53.5-40h.2c4.6-2.3,9.2-3.8,13.9-4.7,4.5-.9,9.1-1.3,13.8-1.3,15.7,0,28.7,4.5,38.5,13.4,9,8.2,16,18.4,20.9,30.3,4.6,11.3,7.7,23.7,9.3,36.7,1.5,12.6,2.3,24.2,2.3,34.5s-.7,24.7-2,36.6c-1.3,11.8-3.2,23.8-5.6,35.7-.3,1.7-.6,3.5-.8,5.3-.3,2.2-.8,4.3-1.3,6.2,0,.5-.2,1.1-.3,1.6,0,7.3-.9,15.3-2.6,24-1.7,8.6-3.9,17.3-6.7,26-2.7,8.6-5.7,17-8.8,24.9-3.1,7.9-6.3,15.1-9.3,21.6-3.6,7.8-7.8,15.8-12.6,23.8-4.8,8.1-10.4,15.8-16.5,22.8-6.3,7.2-13.5,13.6-21.4,18.9-8.3,5.6-17.6,9.4-27.7,11.4-1.9.4-3.9.6-6,.8-2.1.2-4,.3-5.7.3ZM808.3,280.6c-4.6,0-8.9,1-12.7,2.9-15.2,7.6-29,18.3-40.9,31.6-12.1,13.7-22.5,29-30.7,45.6-8.3,16.7-14.7,34.6-19.1,53-4.4,18.4-6.6,36.2-6.6,53s4.1,44.4,12.1,65.2c1.6,4.3,3.8,8.9,6.6,13.9,2.7,4.8,6,9.3,9.7,13.4,3.6,4,7.6,7.3,11.7,9.9,3.4,2.1,7,3.1,11.1,3.1s9.9-1.4,14.4-4.4c5.4-3.4,10.4-7.8,14.9-12.9,4.7-5.4,9.1-11.3,12.9-17.6,4-6.6,7.5-12.5,10.4-17.7,4.8-8.5,9.1-17.3,12.7-26.2,3.7-9.1,7.2-18.4,10.3-27.5,1.5-5,2.8-9.8,4-14.5,1.4-5.1,3.1-10.2,5.1-15,0,0,0,0,0-.1v-1.4l.6-1.2c.9-11.3,2.2-22.8,3.9-34,1.7-11.2,2.5-22.6,2.5-33.8s-.4-15.4-1.3-25.9c-.8-10-2.6-19.9-5.4-29.3-2.6-8.9-6.4-16.6-11.3-22.9-3.8-4.9-8.7-7.2-15.3-7.2Z"/>
      <path class="st0" d="M750,611.6c-16.8,0-31.2-5.3-42.8-15.8-11.2-10.1-20.3-22.6-27.2-37.3-6.8-14.4-11.7-29.9-14.7-46-3-15.9-4.5-30.4-4.5-43,0-20.9,2.6-42.4,7.6-64,5.1-21.6,12.7-42.3,22.7-61.6,10-19.3,22.7-37.1,37.6-52.9,15-15.9,32.6-29,52.1-38.9h.2c4.2-2,8.4-3.4,12.6-4.2,4.1-.8,8.5-1.2,12.9-1.2,14.4,0,26.3,4.1,35.1,12.1,8.5,7.7,15,17.3,19.6,28.5,4.4,10.9,7.4,22.9,8.9,35.4,1.5,12.4,2.2,23.8,2.2,33.9s-.7,24.3-2,36.1c-1.3,11.6-3.2,23.6-5.6,35.4-.3,1.7-.6,3.6-.8,5.5-.3,2.1-.7,4.1-1.3,5.9,0,.5-.2,1.2-.4,1.8v.4c0,7-.8,14.9-2.5,23.5-1.7,8.4-3.8,17-6.5,25.5-2.7,8.5-5.6,16.7-8.7,24.6-3.1,7.8-6.2,14.9-9.2,21.2-3.5,7.7-7.7,15.6-12.3,23.3-4.7,7.9-10.1,15.3-15.9,22.1-6,6.9-12.8,13-20.4,18.1-7.7,5.2-16.4,8.8-25.8,10.7-1.7.3-3.5.6-5.4.7-2,.2-3.7.2-5.3.2ZM808.3,275.6c-5.4,0-10.4,1.2-15,3.4-15.8,7.9-30.1,18.9-42.4,32.8-12.4,14-23,29.7-31.4,46.7-8.5,17.1-15,35.3-19.5,54-4.4,18.8-6.7,37-6.7,54.2s4.2,45.6,12.5,67c1.7,4.5,4,9.4,7,14.5,2.9,5.1,6.4,9.9,10.4,14.3,3.9,4.3,8.2,8,12.8,10.8,4.2,2.6,8.7,3.9,13.7,3.9s11.7-1.7,17.1-5.2c5.8-3.7,11.1-8.4,15.9-13.9,4.9-5.6,9.4-11.8,13.4-18.3,4-6.6,7.6-12.7,10.5-17.9,4.9-8.6,9.2-17.6,13-26.8,3.8-9.2,7.3-18.6,10.5-27.9,1.5-5,2.9-10,4.1-14.8,1.3-5,3-9.9,5.1-14.7,0-.3.2-.6.3-.9v-1.1l.5-1.1c.9-11.5,2.2-23.2,3.9-34.7,1.7-11.5,2.6-23.1,2.6-34.5s-.4-15.7-1.3-26.3c-.8-10.3-2.7-20.5-5.6-30.3-2.7-9.5-6.8-17.7-12.1-24.6-4.8-6.1-11.1-9.1-19.2-9.1Z"/>
      <path class="st4" d="M867.3,356.6c0,12.1-.7,23.9-2,35.5-1.3,11.6-3.2,23.3-5.5,35.1-.3,1.8-.6,3.7-.9,5.7-.3,2.1-.7,4-1.3,5.7,0,.6,0,1-.2,1.1-.2.2-.2.4-.2.7v1.3c0,6.8-.8,14.3-2.4,22.5-1.6,8.2-3.7,16.5-6.4,24.9s-5.5,16.5-8.6,24.3c-3.1,7.8-6.1,14.8-9,20.9-3.5,7.6-7.6,15.3-12.1,22.9-4.6,7.6-9.7,14.8-15.4,21.4-5.7,6.6-12.2,12.3-19.4,17.2-7.2,4.9-15.2,8.2-24,9.9-1.5.3-3.1.5-4.8.7-1.8.1-3.4.2-4.9.2-15.6,0-28.7-4.9-39.5-14.6-10.7-9.7-19.4-21.6-26-35.7-6.6-14.1-11.4-29-14.3-44.8-2.9-15.7-4.4-29.8-4.4-42.1,0-20.6,2.5-41.5,7.5-62.8,5-21.3,12.4-41.4,22.3-60.4,9.8-19,22.1-36.2,36.8-51.8,14.7-15.6,31.6-28.2,50.7-37.9,3.8-1.8,7.6-3,11.5-3.7,3.8-.7,7.8-1.1,11.9-1.1,13.2,0,23.8,3.6,31.7,10.8,7.9,7.2,14,16.1,18.3,26.7,4.3,10.6,7.1,22,8.6,34.2,1.5,12.2,2.2,23.3,2.2,33.3ZM851.5,365.8c0-7.1-.4-15.9-1.3-26.7-.9-10.7-2.8-21.2-5.7-31.3-2.9-10.1-7.3-18.9-13-26.2-5.7-7.3-13.4-11-23.1-11s-11.9,1.3-17.2,4c-16.5,8.2-31.1,19.6-43.9,34-12.8,14.4-23.5,30.4-32.2,47.8-8.7,17.5-15.3,35.9-19.8,55.1-4.6,19.3-6.8,37.7-6.8,55.3s4.3,46.7,12.8,68.8c1.8,4.7,4.2,9.8,7.3,15.2,3.1,5.4,6.8,10.5,11,15.2,4.3,4.7,8.9,8.6,13.9,11.7,5,3.1,10.4,4.6,16.3,4.6s13.7-2,19.8-6c6.2-4,11.8-8.9,17-14.8,5.1-5.9,9.8-12.2,13.9-19,4.1-6.8,7.6-12.8,10.6-18.1,5-8.8,9.4-17.9,13.2-27.3,3.8-9.4,7.3-18.8,10.6-28.2,1.5-5,2.9-10,4.2-15,1.3-5,3-9.8,5.1-14.6,0-.3,0-.5.2-.7s.2-.4.2-.7v-.9l.4-.9c.9-11.8,2.2-23.5,4-35.3,1.8-11.8,2.6-23.5,2.6-35.3Z"/>
    </g>
    <text class="st3" transform="translate(836.4 616.3)"><tspan x="0" y="0">an</tspan><tspan x="103.6" y="-9">s</tspan></text>
  </g>
  <metadata>
    <sfw xmlns="http://ns.adobe.com/SaveForWeb/1.0/">
      <slices/>
      <sliceSourceBounds x="-1266.77" y="-1745.02" width="7615.71" height="2452.65" bottomLeftOrigin="true"/>
    </sfw>
  </metadata>
</svg>