<?xml version="1.0" encoding="UTF-8"?>
<svg id="Objects" xmlns="http://www.w3.org/2000/svg" width="140" height="126.3" version="1.1" xmlns:xlink="http://www.w3.org/1999/xlink" viewBox="0 0 140 126.3">
  <!-- Generator: Adobe Illustrator 29.7.1, SVG Export Plug-In . SVG Version: 2.1.1 Build 8)  -->
  <defs>
    <style>
      .st0 {
        fill: #c2b891;
      }

      .st1 {
        fill: #fff;
      }

      .st2 {
        fill: none;
      }

      .st3 {
        filter: url(#drop-shadow-1);
      }

      .st3, .st4 {
        fill: #ab9861;
      }
    </style>
    <filter id="drop-shadow-1" x="19.5" y="22.8" width="44.8" height="70.1" filterUnits="userSpaceOnUse">
      <feOffset dx="0" dy="1.5"/>
      <feGaussianBlur result="blur" stdDeviation=".7"/>
      <feFlood flood-color="#000" flood-opacity=".3"/>
      <feComposite in2="blur" operator="in"/>
      <feComposite in="SourceGraphic"/>
    </filter>
  </defs>
  <path class="st0" d="M0,109.8v-21.6c46.7,15.1,93.3-15.1,140,0v21.6c-46.7-15.1-93.3,15.1-140,0Z"/>
  <path class="st1" d="M114.7,18.5c24.7,24.7,24.7,64.6,0,89.3-24.7,24.7-64.7,24.7-89.3,0C.7,83.1.7,43.2,25.3,18.5c24.7-24.7,64.6-24.7,89.3,0Z"/>
  <g>
    <path class="st3" d="M54.9,79.6V22.8h-17.9c-7.3,8.7-11.8,10.3-17.6,13.1l4.6,11.1,10-4.7v37.2h-10v13.3h40.1v-13.3h-9.3Z"/>
    <g>
      <path class="st2" d="M95.6,37.7c-3.7-.1-8.3,7.6-8.3,19.9s4.9,21.1,8.9,21.1,8.1-8.1,8.1-20.4-3.8-20.6-8.7-20.6Z"/>
      <path class="st4" d="M95.7,21.6c-16.7,0-28.3,14.8-28.3,36s12,36.6,28.8,36.6,28.3-13.6,28.3-35.9-9.1-36.7-28.8-36.7ZM96.2,78.7c-4,0-8.9-8.1-8.9-21.1s4.6-20,8.3-19.9c4.9,0,8.7,8.6,8.7,20.6s-3.5,20.4-8.1,20.4Z"/>
    </g>
  </g>
  <g>
    <path class="st4" d="M140,109.8C93.3,124.9,46.7,94.7,0,109.8v-21.6c46.7-15.1,93.3,15.1,140,0v21.6Z"/>
    <g>
      <path class="st1" d="M38.1,88.3c.3.3.4.6.4,1v12.7c0,.4-.1.7-.4.9-.2.2-.6.3-1,.3-.4,0-.7-.2-1-.4-.3-.3-.4-.6-.4-1v-8.9c-1.2,1.8-2.4,3.6-3.6,5.4-.1.2-.3.3-.5.4-.2.1-.4.2-.6.1-.2,0-.4,0-.6-.1-.2-.1-.4-.3-.5-.4-1.2-1.9-2.4-3.8-3.6-5.7v9.1c0,.4-.1.7-.4,1-.2.3-.5.4-.9.4-.4,0-.7-.1-.9-.3-.2-.2-.4-.6-.4-.9v-12.7c0-.4.1-.7.4-1,.3-.3.6-.4,1-.4.2,0,.4,0,.7.1.2.1.4.2.5.4,1.6,2.4,3.2,4.9,4.8,7.3,1.6-2.4,3.3-4.8,4.9-7.2.1-.2.3-.3.5-.4.2-.1.4-.1.6-.1.4,0,.7.2,1,.4Z"/>
      <path class="st1" d="M54,103.8c0,.4-.1.7-.4.9-.2.2-.5.3-.9.2-.3,0-.5-.1-.7-.3-.2-.2-.4-.4-.5-.7-.4-.9-.8-1.9-1.1-2.8-2.2-.3-4.4-.5-6.6-.7-.4.9-.8,1.7-1.1,2.6-.1.3-.3.5-.5.6-.2.1-.4.2-.7.2-.4,0-.7-.2-.9-.4-.2-.2-.3-.5-.3-.9,0-.1,0-.3,0-.4,1.8-4.2,3.7-8.5,5.5-12.7.1-.3.3-.5.5-.6.2-.1.5-.2.8-.1.3,0,.5.1.7.3.2.2.4.4.5.7,1.8,4.5,3.6,9,5.4,13.6,0,.2.1.4.1.5ZM45,97.9c1.5.1,2.9.3,4.4.5-.7-1.8-1.5-3.6-2.2-5.4-.7,1.6-1.5,3.3-2.2,4.9Z"/>
      <path class="st1" d="M68.4,105.5c.1.2.2.4.2.6,0,.3,0,.5-.3.7-.2.2-.6.3-1,.2-.4,0-.7-.2-1-.4-1.1-.8-1.6-2.1-1.6-3.9,0-.5-.2-1-.5-1.3-.3-.4-.8-.6-1.5-.7-1.4-.2-2.7-.4-4.1-.6v4.3c0,.4-.1.7-.3.9-.2.2-.5.3-.8.2-.4,0-.8-.2-1.1-.5-.3-.3-.5-.6-.5-1v-12.7c0-.4.1-.7.4-.9.3-.2.6-.3,1-.2,2.1.3,4.2.6,6.3,1,.8.1,1.5.4,2.2,1,.7.5,1.2,1.2,1.6,2,.4.8.6,1.6.6,2.5,0,.7-.2,1.4-.6,2-.4.6-.9,1.1-1.5,1.4.9.8,1.4,1.7,1.5,2.8,0,.2,0,.5,0,.7,0,.5.1.8.2,1,0,.2.2.4.4.5.2.1.3.3.5.5ZM64.2,98.3c.2-.2.5-.5.6-.9.2-.4.2-.8.2-1.3,0-.4,0-.8-.2-1.2-.2-.4-.4-.7-.6-.9-.2-.2-.5-.4-.8-.4-1.6-.3-3.2-.5-4.8-.7v5c1.6.2,3.2.5,4.8.7.3,0,.5,0,.8-.3Z"/>
      <path class="st1" d="M73.3,107.6c-.3.2-.6.3-1,.2-.4,0-.7-.2-1-.5-.3-.3-.4-.6-.4-1v-12.7c0-.4.1-.7.4-.9.3-.2.6-.3,1-.2.4,0,.7.2.9.5.3.3.4.6.4,1v12.7c0,.4-.1.7-.4.9Z"/>
      <path class="st1" d="M89.3,109.1c0,.4-.1.7-.4.9-.2.2-.5.3-.9.3-.3,0-.5-.1-.7-.3-.2-.2-.4-.4-.5-.7-.4-.9-.8-1.9-1.1-2.8-2.2-.3-4.4-.6-6.6-1-.4.8-.8,1.7-1.1,2.5-.1.3-.3.5-.5.6-.2.1-.4.2-.7.1-.4,0-.7-.2-.9-.4-.2-.2-.3-.5-.3-.9,0-.1,0-.3,0-.4,1.8-4.1,3.7-8.2,5.5-12.3.1-.3.3-.5.5-.6.2-.1.5-.2.8,0,.3,0,.5.2.7.3.2.2.4.4.5.7,1.8,4.6,3.6,9.1,5.4,13.6,0,.2.1.4.1.5ZM80.2,103.1c1.5.2,2.9.4,4.4.6-.7-1.8-1.5-3.6-2.2-5.5-.7,1.6-1.5,3.2-2.2,4.8Z"/>
      <path class="st1" d="M103.3,103.7c.2.3.4.6.4,1v4.7c0,.5-.2.9-.7,1.2-1.4.8-3,1.2-4.7,1-1.5-.1-2.8-.6-4-1.4-1.2-.8-2.2-1.9-2.9-3.2-.7-1.3-1.1-2.7-1.1-4.1,0-1.4.4-2.7,1.1-3.8.7-1.1,1.7-2,2.9-2.6,1.2-.6,2.6-.8,4-.7,1.5.1,2.7.5,3.8,1.2.2.1.4.3.5.5.1.2.2.4.2.6,0,.4-.1.7-.4.9-.2.3-.5.4-.9.4-.2,0-.5,0-.7-.2-.8-.4-1.6-.6-2.5-.7-.9,0-1.8,0-2.6.5-.8.4-1.4,1-1.9,1.7-.5.8-.7,1.6-.7,2.6,0,1,.2,1.9.7,2.7.5.9,1.1,1.6,1.9,2.1.8.6,1.7.9,2.6.9.4,0,.9,0,1.3,0,.5,0,.9-.1,1.2-.2v-2.9c-.7,0-1.4,0-2.1-.2-.4,0-.7-.2-1-.5-.3-.3-.4-.6-.4-1,0-.4.1-.7.4-.9.3-.2.6-.3,1-.3,1.2,0,2.4.2,3.6.2.4,0,.7.2.9.4Z"/>
      <path class="st1" d="M116,109.5c.3.2.4.5.4.9,0,.4-.1.7-.4.9-.3.2-.6.4-1,.4-2.5,0-4.9.1-7.4,0-.4,0-.7-.1-1-.4-.3-.3-.4-.6-.4-1,0-4.2,0-8.5,0-12.7,0-.4.1-.7.4-.9.3-.2.6-.4,1-.4,2.5,0,4.9,0,7.4,0,.4,0,.7,0,1,.3.3.2.4.5.4.9,0,.4-.1.7-.4.9-.2.2-.6.4-1,.4-2,0-4,.1-6,0,0,1.2,0,2.5,0,3.7,1.7,0,3.3,0,5,0,.4,0,.7,0,1,.3.3.2.4.5.4.9,0,.4-.1.7-.4.9-.2.2-.6.4-1,.4-1.7,0-3.3,0-5,0,0,1.4,0,2.7,0,4.1,2,0,4,0,6,0,.4,0,.7,0,1,.3Z"/>
    </g>
  </g>
  <metadata>
    <sfw xmlns="http://ns.adobe.com/SaveForWeb/1.0/">
      <slices/>
      <sliceSourceBounds x="72.02" y="-212.38" width="140" height="126.31" bottomLeftOrigin="true"/>
    </sfw>
  </metadata>
</svg>